<?xml version="1.0" encoding="utf-8"?>
<!-- Generator: Adobe Illustrator 23.0.5, SVG Export Plug-In . SVG Version: 6.00 Build 0)  -->
<svg version="1.1" xmlns="http://www.w3.org/2000/svg" xmlns:xlink="http://www.w3.org/1999/xlink" x="0px" y="0px"
	 viewBox="0 0 219.4 56.3" style="enable-background:new 0 0 219.4 56.3;" xml:space="preserve">
<style type="text/css">
	.st0{filter:url(#Adobe_OpacityMaskFilter);}
	.st1{fill:url(#SVGID_1_);}
	.st2{opacity:0.42;mask:url(#circuit_2_);}
	.st3{fill:none;stroke:#00F9FF;stroke-width:0.1563;stroke-miterlimit:10;}
	.st4{fill:#00F9FF;}
	.st5{filter:url(#Adobe_OpacityMaskFilter_1_);}
	.st6{fill:url(#SVGID_2_);}
	.st7{opacity:0.42;mask:url(#circuit_3_);}
</style>
<g id="BG">
</g>
<g id="DESIGN">
	<defs>
		<filter id="Adobe_OpacityMaskFilter" filterUnits="userSpaceOnUse" x="121.6" y="-0.1" width="97.7" height="56.4">
			<feColorMatrix  type="matrix" values="1 0 0 0 0  0 1 0 0 0  0 0 1 0 0  0 0 0 1 0"/>
		</filter>
	</defs>
	<mask maskUnits="userSpaceOnUse" x="121.6" y="-0.1" width="97.7" height="56.4" id="circuit_2_">
		<g class="st0">
			
				<linearGradient id="SVGID_1_" gradientUnits="userSpaceOnUse" x1="62.8852" y1="-27.0539" x2="62.8852" y2="29.1961" gradientTransform="matrix(-1 -4.248674e-03 4.248674e-03 -1 232.9829 29.3647)">
				<stop  offset="0" style="stop-color:#000018"/>
				<stop  offset="2.363619e-02" style="stop-color:#303043"/>
				<stop  offset="4.894572e-02" style="stop-color:#5B5B6A"/>
				<stop  offset="7.706878e-02" style="stop-color:#82828E"/>
				<stop  offset="0.1073" style="stop-color:#A4A4AD"/>
				<stop  offset="0.1404" style="stop-color:#C0C0C6"/>
				<stop  offset="0.1772" style="stop-color:#D8D8DB"/>
				<stop  offset="0.2195" style="stop-color:#E9E9EB"/>
				<stop  offset="0.2704" style="stop-color:#F6F6F7"/>
				<stop  offset="0.3389" style="stop-color:#FDFDFD"/>
				<stop  offset="0.5" style="stop-color:#FFFFFF"/>
				<stop  offset="0.6611" style="stop-color:#FDFDFD"/>
				<stop  offset="0.7296" style="stop-color:#F6F6F6"/>
				<stop  offset="0.7805" style="stop-color:#E9E9E9"/>
				<stop  offset="0.8228" style="stop-color:#D8D8D8"/>
				<stop  offset="0.8596" style="stop-color:#C0C0C0"/>
				<stop  offset="0.8927" style="stop-color:#A4A4A4"/>
				<stop  offset="0.9229" style="stop-color:#828282"/>
				<stop  offset="0.9511" style="stop-color:#5B5B5B"/>
				<stop  offset="0.9764" style="stop-color:#303030"/>
				<stop  offset="1" style="stop-color:#000000"/>
			</linearGradient>
			<polygon class="st1" points="120.2,-0.3 220.2,0.1 220,56.4 120,55.9 			"/>
		</g>
	</mask>
	<g id="circuit" class="st2">
		<g>
			<g>
				<polyline class="st3" points="189.3,56.2 189.3,50.4 185.1,47.9 185.2,38.6 				"/>
				<g>
					<circle class="st4" cx="185.2" cy="38.7" r="0.5"/>
				</g>
			</g>
		</g>
		<g>
			<g>
				<polyline class="st3" points="180.9,45 181,35.7 189,31.1 				"/>
				<g>
					<path class="st4" d="M181.4,45c0,0.3-0.2,0.5-0.5,0.5c-0.3,0-0.5-0.2-0.5-0.5s0.2-0.5,0.5-0.5C181.2,44.5,181.4,44.8,181.4,45z
						"/>
				</g>
				<g>
					<path class="st4" d="M189.3,31.5c0.2-0.1,0.3-0.4,0.2-0.6c-0.1-0.2-0.4-0.3-0.6-0.2c-0.2,0.1-0.3,0.4-0.2,0.6
						C188.7,31.6,189,31.7,189.3,31.5z"/>
				</g>
			</g>
		</g>
		<g>
			<g>
				<polyline class="st3" points="210.5,47.6 210.5,33.4 202.5,28.7 				"/>
				<g>
					<path class="st4" d="M210.9,47.6c0,0.3-0.2,0.5-0.5,0.5c-0.3,0-0.5-0.2-0.5-0.5s0.2-0.5,0.5-0.5
						C210.7,47.1,210.9,47.3,210.9,47.6z"/>
				</g>
				<g>
					<path class="st4" d="M202.7,28.4c-0.2-0.1-0.5-0.1-0.6,0.2c-0.1,0.2-0.1,0.5,0.2,0.6c0.2,0.1,0.5,0.1,0.6-0.2
						C203,28.8,203,28.5,202.7,28.4z"/>
				</g>
			</g>
		</g>
		<g>
			<g>
				<polyline class="st3" points="193.7,28 193.7,13.9 185.3,8.9 185.3,4.5 				"/>
				<g>
					<path class="st4" d="M194.1,28c0,0.3-0.2,0.5-0.5,0.5c-0.3,0-0.5-0.2-0.5-0.5c0-0.3,0.2-0.5,0.5-0.5
						C193.9,27.5,194.1,27.8,194.1,28z"/>
				</g>
				<g>
					<path class="st4" d="M185.8,4.5c0-0.3-0.2-0.5-0.5-0.5s-0.5,0.2-0.5,0.5c0,0.3,0.2,0.5,0.5,0.5C185.6,5,185.8,4.8,185.8,4.5z"
						/>
				</g>
			</g>
		</g>
		<g>
			<g>
				<polyline class="st3" points="210.9,28.3 219,23.7 219.1,9.1 210.6,4.2 210.7,0.1 				"/>
				<g>
					<path class="st4" d="M211.2,28.7c-0.2,0.1-0.5,0.1-0.6-0.2c-0.1-0.2-0.1-0.5,0.2-0.6c0.2-0.1,0.5-0.1,0.6,0.2
						C211.5,28.3,211.4,28.6,211.2,28.7z"/>
				</g>
			</g>
		</g>
		<g>
			<g>
				<polyline class="st3" points="214.6,56.3 214.7,40.8 208.6,37.2 				"/>
				<g>
					<path class="st4" d="M208.9,36.8c-0.2-0.1-0.5-0.1-0.6,0.2c-0.1,0.2-0.1,0.5,0.2,0.6c0.2,0.1,0.5,0.1,0.6-0.2
						C209.2,37.2,209.1,37,208.9,36.8z"/>
				</g>
			</g>
		</g>
		<g>
			<g>
				<polyline class="st3" points="213,34.9 218.9,38.3 218.9,52.5 				"/>
				<g>
					<path class="st4" d="M212.8,35.3c-0.2-0.1-0.3-0.4-0.2-0.6c0.1-0.2,0.4-0.3,0.6-0.2c0.2,0.1,0.3,0.4,0.2,0.6
						C213.3,35.4,213,35.4,212.8,35.3z"/>
				</g>
				<g>
					<path class="st4" d="M218.4,52.5c0,0.3,0.2,0.5,0.5,0.5c0.3,0,0.5-0.2,0.5-0.5s-0.2-0.5-0.5-0.5
						C218.6,52,218.4,52.2,218.4,52.5z"/>
				</g>
			</g>
		</g>
		<g>
			<g>
				<polyline class="st3" points="210.4,56.3 210.4,52.9 206.6,50.7 				"/>
				<g>
					<path class="st4" d="M206.9,50.3c-0.2-0.1-0.5-0.1-0.6,0.2c-0.1,0.2-0.1,0.5,0.2,0.6c0.2,0.1,0.5,0.1,0.6-0.2
						C207.2,50.7,207.1,50.4,206.9,50.3z"/>
				</g>
			</g>
		</g>
		<g>
			<g>
				<polyline class="st3" points="201.6,53.1 197.8,55.3 197.8,56.3 				"/>
				<g>
					<path class="st4" d="M201.4,52.7c0.2-0.1,0.5,0,0.6,0.2c0.1,0.2,0,0.5-0.2,0.6c-0.2,0.1-0.5,0-0.6-0.2
						C201.1,53.1,201.1,52.8,201.4,52.7z"/>
				</g>
			</g>
		</g>
		<g>
			<g>
				<line class="st3" x1="193.5" y1="56.3" x2="193.5" y2="53.3"/>
				<g>
					<path class="st4" d="M194,53.3c0-0.3-0.2-0.5-0.5-0.5c-0.3,0-0.5,0.2-0.5,0.5c0,0.3,0.2,0.5,0.5,0.5
						C193.8,53.8,194,53.6,194,53.3z"/>
				</g>
			</g>
		</g>
		<g>
			<g>
				<polyline class="st3" points="194.1,8.8 202.2,4.1 202.2,0 				"/>
				<g>
					<path class="st4" d="M194.4,9.2c-0.2,0.1-0.5,0.1-0.6-0.2c-0.1-0.2-0.1-0.5,0.2-0.6c0.2-0.1,0.5-0.1,0.6,0.2
						C194.7,8.7,194.6,9,194.4,9.2z"/>
				</g>
			</g>
		</g>
		<g>
			<g>
				<polyline class="st3" points="189.9,6.3 198,1.7 198,0 				"/>
				<g>
					<path class="st4" d="M190.2,6.7c-0.2,0.1-0.5,0.1-0.6-0.2c-0.1-0.2-0.1-0.5,0.2-0.6c0.2-0.1,0.5-0.1,0.6,0.2
						C190.5,6.3,190.4,6.6,190.2,6.7z"/>
				</g>
			</g>
		</g>
		<g>
			<g>
				<polyline class="st3" points="180.7,6.7 168.4,13.7 168.3,23.5 160.3,28.1 				"/>
				<g>
					<path class="st4" d="M180.4,6.3c0.2-0.1,0.5-0.1,0.6,0.2c0.1,0.2,0.1,0.5-0.2,0.6c-0.2,0.1-0.5,0.1-0.6-0.2
						C180.1,6.7,180.2,6.5,180.4,6.3z"/>
				</g>
				<g>
					<path class="st4" d="M160,27.7c-0.2,0.1-0.3,0.4-0.2,0.6c0.1,0.2,0.4,0.3,0.6,0.2c0.2-0.1,0.3-0.4,0.2-0.6
						C160.6,27.6,160.3,27.6,160,27.7z"/>
				</g>
			</g>
		</g>
		<g>
			<g>
				<polyline class="st3" points="168.7,28.6 176.8,33.3 176.7,42.6 				"/>
				<g>
					<path class="st4" d="M168.5,29c-0.2-0.1-0.3-0.4-0.2-0.6c0.1-0.2,0.4-0.3,0.6-0.2c0.2,0.1,0.3,0.4,0.2,0.6
						C169,29.1,168.7,29.1,168.5,29z"/>
				</g>
				<g>
					<path class="st4" d="M176.2,42.6c0,0.3,0.2,0.5,0.5,0.5c0.3,0,0.5-0.2,0.5-0.5c0-0.3-0.2-0.5-0.5-0.5
						C176.5,42.1,176.2,42.3,176.2,42.6z"/>
				</g>
			</g>
		</g>
		<g>
			<g>
				<polyline class="st3" points="172.5,49.9 172.5,35.6 164.1,30.8 164.2,11.7 				"/>
				<g>
					<path class="st4" d="M172.9,49.9c0,0.3-0.2,0.5-0.5,0.5c-0.3,0-0.5-0.2-0.5-0.5c0-0.3,0.2-0.5,0.5-0.5
						C172.7,49.4,172.9,49.6,172.9,49.9z"/>
				</g>
				<g>
					<path class="st4" d="M164.6,11.8c0-0.3-0.2-0.5-0.5-0.5c-0.3,0-0.5,0.2-0.5,0.5s0.2,0.5,0.5,0.5
						C164.4,12.2,164.6,12,164.6,11.8z"/>
				</g>
			</g>
		</g>
		<g>
			<g>
				<polyline class="st3" points="185.1,56.2 185.1,52.8 177.1,48.1 				"/>
				<g>
					<path class="st4" d="M177.3,47.7c-0.2-0.1-0.5-0.1-0.6,0.2c-0.1,0.2-0.1,0.5,0.2,0.6c0.2,0.1,0.5,0.1,0.6-0.2
						C177.6,48.2,177.5,47.9,177.3,47.7z"/>
				</g>
			</g>
		</g>
		<g>
			<g>
				<line class="st3" x1="176.7" y1="53.2" x2="176.7" y2="56.2"/>
				<g>
					<path class="st4" d="M176.2,53.2c0-0.3,0.2-0.5,0.5-0.5c0.3,0,0.5,0.2,0.5,0.5c0,0.3-0.2,0.5-0.5,0.5
						C176.4,53.7,176.2,53.5,176.2,53.2z"/>
				</g>
			</g>
		</g>
		<g>
			<g>
				<polyline class="st3" points="168.2,56.1 168.3,38.1 159.9,33.2 122.1,33 				"/>
				<g>
					<path class="st4" d="M122.1,32.6c-0.3,0-0.5,0.2-0.5,0.5c0,0.3,0.2,0.5,0.5,0.5c0.3,0,0.5-0.2,0.5-0.5
						C122.6,32.8,122.4,32.6,122.1,32.6z"/>
				</g>
			</g>
		</g>
		<g>
			<g>
				<polyline class="st3" points="164,56.1 164,45.4 160.2,43.2 				"/>
				<g>
					<path class="st4" d="M160.5,42.8c-0.2-0.1-0.5-0.1-0.6,0.2c-0.1,0.2-0.1,0.5,0.2,0.6c0.2,0.1,0.5,0.1,0.6-0.2
						C160.8,43.2,160.7,42.9,160.5,42.8z"/>
				</g>
			</g>
		</g>
		<g>
			<g>
				<polyline class="st3" points="168.8,8.7 181.1,1.6 181.1,-0.1 				"/>
				<g>
					<path class="st4" d="M169,9c-0.2,0.1-0.5,0.1-0.6-0.2c-0.1-0.2-0.1-0.5,0.2-0.6c0.2-0.1,0.5-0.1,0.6,0.2
						C169.3,8.6,169.3,8.9,169,9z"/>
				</g>
			</g>
		</g>
		<g>
			<g>
				<polyline class="st3" points="172.7,-0.1 172.7,1.6 164.6,6.1 				"/>
				<g>
					<path class="st4" d="M164.4,5.7c-0.2,0.1-0.3,0.4-0.2,0.6c0.1,0.2,0.4,0.3,0.6,0.2c0.2-0.1,0.3-0.4,0.2-0.6
						C164.9,5.6,164.6,5.5,164.4,5.7z"/>
				</g>
			</g>
		</g>
		<g>
			<g>
				<line class="st3" x1="218.6" y1="28.8" x2="215.1" y2="30.7"/>
				<g>
					<path class="st4" d="M218.3,28.4c0.2-0.1,0.5,0,0.6,0.2c0.1,0.2,0,0.5-0.2,0.6c-0.2,0.1-0.5,0-0.6-0.2
						C218,28.8,218.1,28.5,218.3,28.4z"/>
				</g>
				<g>
					<path class="st4" d="M214.9,30.3c-0.2,0.1-0.3,0.4-0.2,0.6c0.1,0.2,0.4,0.3,0.6,0.2c0.2-0.1,0.3-0.4,0.2-0.6
						C215.4,30.2,215.2,30.1,214.9,30.3z"/>
				</g>
			</g>
		</g>
	</g>
	<defs>
		<filter id="Adobe_OpacityMaskFilter_1_" filterUnits="userSpaceOnUse" x="-0.2" y="-3.5" width="93.8" height="89.3">
			<feColorMatrix  type="matrix" values="1 0 0 0 0  0 1 0 0 0  0 0 1 0 0  0 0 0 1 0"/>
		</filter>
	</defs>
	<mask maskUnits="userSpaceOnUse" x="-0.2" y="-3.5" width="93.8" height="89.3" id="circuit_3_">
		<g class="st5">
			
				<linearGradient id="SVGID_2_" gradientUnits="userSpaceOnUse" x1="170.6587" y1="24.4834" x2="170.6587" y2="113.0251" gradientTransform="matrix(0.9999 1.072295e-02 -1.072295e-02 0.9999 -92.8351 -29.0687)">
				<stop  offset="0" style="stop-color:#000018"/>
				<stop  offset="2.363619e-02" style="stop-color:#303043"/>
				<stop  offset="4.894572e-02" style="stop-color:#5B5B6A"/>
				<stop  offset="7.706878e-02" style="stop-color:#82828E"/>
				<stop  offset="0.1073" style="stop-color:#A4A4AD"/>
				<stop  offset="0.1404" style="stop-color:#C0C0C6"/>
				<stop  offset="0.1772" style="stop-color:#D8D8DB"/>
				<stop  offset="0.2195" style="stop-color:#E9E9EB"/>
				<stop  offset="0.2704" style="stop-color:#F6F6F7"/>
				<stop  offset="0.3389" style="stop-color:#FDFDFD"/>
				<stop  offset="0.5" style="stop-color:#FFFFFF"/>
				<stop  offset="0.6611" style="stop-color:#FDFDFD"/>
				<stop  offset="0.7296" style="stop-color:#F6F6F6"/>
				<stop  offset="0.7805" style="stop-color:#E9E9E9"/>
				<stop  offset="0.8228" style="stop-color:#D8D8D8"/>
				<stop  offset="0.8596" style="stop-color:#C0C0C0"/>
				<stop  offset="0.8927" style="stop-color:#A4A4A4"/>
				<stop  offset="0.9229" style="stop-color:#828282"/>
				<stop  offset="0.9511" style="stop-color:#5B5B5B"/>
				<stop  offset="0.9764" style="stop-color:#303030"/>
				<stop  offset="1" style="stop-color:#000000"/>
			</linearGradient>
			<polygon class="st6" points="155.3,86.6 -2.1,84.9 -1.1,-3.6 156.3,-1.9 			"/>
		</g>
	</mask>
	<g id="circuit_1_" class="st7">
		<g>
			<g>
				<polyline class="st3" points="47.1,-3.1 47,6.1 53.6,10 53.5,24.7 				"/>
				<g>
					<circle class="st4" cx="53.5" cy="24.6" r="0.7"/>
				</g>
			</g>
		</g>
		<g>
			<g>
				<polyline class="st3" points="60.2,14.6 60.1,29.3 47.3,36.4 				"/>
				<g>
					<path class="st4" d="M59.5,14.7c0-0.4,0.3-0.7,0.7-0.7c0.4,0,0.7,0.3,0.7,0.7c0,0.4-0.3,0.7-0.7,0.7
						C59.8,15.4,59.5,15.1,59.5,14.7z"/>
				</g>
				<g>
					<path class="st4" d="M47,35.8c-0.4,0.2-0.5,0.7-0.3,1c0.2,0.4,0.7,0.5,1,0.3c0.4-0.2,0.5-0.7,0.3-1
						C47.8,35.7,47.3,35.6,47,35.8z"/>
				</g>
			</g>
		</g>
		<g>
			<g>
				<polyline class="st3" points="13.7,10.3 13.5,32.6 26.1,40 				"/>
				<g>
					<path class="st4" d="M13,10.3c0-0.4,0.3-0.7,0.7-0.7c0.4,0,0.7,0.3,0.7,0.7c0,0.4-0.3,0.7-0.7,0.7C13.3,11.1,13,10.7,13,10.3z"
						/>
				</g>
				<g>
					<path class="st4" d="M25.7,40.7c0.4,0.2,0.8,0.1,1-0.3c0.2-0.4,0.1-0.8-0.3-1c-0.4-0.2-0.8-0.1-1,0.3
						C25.2,40,25.4,40.5,25.7,40.7z"/>
				</g>
			</g>
		</g>
		<g>
			<g>
				<polyline class="st3" points="40,41.3 39.8,63.6 53,71.4 52.9,78.4 				"/>
				<g>
					<path class="st4" d="M39.3,41.3c0-0.4,0.3-0.7,0.7-0.7c0.4,0,0.7,0.3,0.7,0.7c0,0.4-0.3,0.7-0.7,0.7
						C39.6,42,39.3,41.7,39.3,41.3z"/>
				</g>
			</g>
		</g>
		<g>
			<g>
				<polyline class="st3" points="12.8,40.6 0.1,47.8 -0.2,70.8 13,78.6 12.9,85.1 				"/>
				<g>
					<path class="st4" d="M12.4,40c0.4-0.2,0.8-0.1,1,0.3c0.2,0.4,0.1,0.8-0.3,1c-0.4,0.2-0.8,0.1-1-0.3
						C11.9,40.6,12.1,40.2,12.4,40z"/>
				</g>
			</g>
		</g>
		<g>
			<g>
				<polyline class="st3" points="7.3,-3.5 7,21 16.5,26.7 				"/>
				<g>
					<path class="st4" d="M16.1,27.3c0.4,0.2,0.8,0.1,1-0.3c0.2-0.4,0.1-0.8-0.3-1c-0.4-0.2-0.8-0.1-1,0.3
						C15.6,26.6,15.8,27.1,16.1,27.3z"/>
				</g>
			</g>
		</g>
		<g>
			<g>
				<polyline class="st3" points="9.6,30.3 0.3,24.8 0.6,2.5 				"/>
				<g>
					<path class="st4" d="M9.9,29.6c0.4,0.2,0.5,0.7,0.3,1c-0.2,0.4-0.7,0.5-1,0.3c-0.4-0.2-0.5-0.7-0.3-1
						C9.1,29.5,9.6,29.4,9.9,29.6z"/>
				</g>
				<g>
					<path class="st4" d="M1.3,2.5c0-0.4-0.3-0.7-0.7-0.7c-0.4,0-0.7,0.3-0.7,0.7s0.3,0.7,0.7,0.7C1,3.3,1.3,2.9,1.3,2.5z"/>
				</g>
			</g>
		</g>
		<g>
			<g>
				<polyline class="st3" points="13.9,-3.4 13.8,1.9 19.8,5.4 				"/>
				<g>
					<path class="st4" d="M19.4,6.1c0.4,0.2,0.8,0.1,1-0.3c0.2-0.4,0.1-0.8-0.3-1c-0.4-0.2-0.8-0.1-1,0.3C19,5.4,19.1,5.9,19.4,6.1z
						"/>
				</g>
			</g>
		</g>
		<g>
			<g>
				<polyline class="st3" points="27.7,1.7 33.8,-1.7 33.8,-3.2 				"/>
				<g>
					<path class="st4" d="M28.1,2.3c-0.4,0.2-0.8,0.1-1-0.3c-0.2-0.4-0.1-0.8,0.3-1c0.4-0.2,0.8-0.1,1,0.3
						C28.6,1.7,28.5,2.1,28.1,2.3z"/>
				</g>
			</g>
		</g>
		<g>
			<g>
				<line class="st3" x1="40.5" y1="-3.2" x2="40.4" y2="1.5"/>
				<g>
					<path class="st4" d="M39.7,1.5c0,0.4,0.3,0.7,0.7,0.7c0.4,0,0.7-0.3,0.7-0.7c0-0.4-0.3-0.7-0.7-0.7C40,0.7,39.7,1,39.7,1.5z"/>
				</g>
			</g>
		</g>
		<g>
			<g>
				<polyline class="st3" points="60.2,74.9 79.6,64 79.8,48.7 92.6,41.5 				"/>
				<g>
					<path class="st4" d="M92.9,42.1c0.4-0.2,0.5-0.7,0.3-1c-0.2-0.4-0.7-0.5-1-0.3c-0.4,0.2-0.5,0.7-0.3,1
						C92.1,42.2,92.5,42.3,92.9,42.1z"/>
				</g>
			</g>
		</g>
		<g>
			<g>
				<polyline class="st3" points="79.3,40.6 66.7,33.2 66.8,18.5 				"/>
				<g>
					<path class="st4" d="M79.6,40c0.4,0.2,0.5,0.7,0.3,1c-0.2,0.4-0.7,0.5-1,0.3c-0.4-0.2-0.5-0.7-0.3-1
						C78.8,39.9,79.3,39.8,79.6,40z"/>
				</g>
				<g>
					<path class="st4" d="M67.6,18.6c0-0.4-0.3-0.7-0.7-0.7c-0.4,0-0.7,0.3-0.7,0.7c0,0.4,0.3,0.7,0.7,0.7
						C67.2,19.3,67.6,19,67.6,18.6z"/>
				</g>
			</g>
		</g>
		<g>
			<g>
				<polyline class="st3" points="73.6,7.1 73.3,29.6 86.6,37.2 86.3,67.2 				"/>
				<g>
					<path class="st4" d="M72.9,7.1c0-0.4,0.3-0.7,0.7-0.7c0.4,0,0.7,0.3,0.7,0.7c0,0.4-0.3,0.7-0.7,0.7C73.2,7.9,72.8,7.5,72.9,7.1
						z"/>
				</g>
			</g>
		</g>
		<g>
			<g>
				<polyline class="st3" points="53.8,-3 53.7,2.3 66.3,9.8 				"/>
				<g>
					<path class="st4" d="M65.9,10.4c0.4,0.2,0.8,0.1,1-0.3c0.2-0.4,0.1-0.8-0.3-1c-0.4-0.2-0.8-0.1-1,0.3
						C65.5,9.8,65.6,10.2,65.9,10.4z"/>
				</g>
			</g>
		</g>
		<g>
			<g>
				<line class="st3" x1="67" y1="1.8" x2="67.1" y2="-2.9"/>
				<g>
					<path class="st4" d="M67.7,1.7c0,0.4-0.3,0.7-0.7,0.7c-0.4,0-0.7-0.3-0.7-0.7C66.3,1.3,66.6,1,67,1C67.4,1,67.7,1.3,67.7,1.7z"
						/>
				</g>
			</g>
		</g>
		<g>
			<g>
				<polyline class="st3" points="87,-2.7 86.8,14.2 92.8,17.8 				"/>
				<g>
					<path class="st4" d="M92.4,18.4c0.4,0.2,0.8,0.1,1-0.3c0.2-0.4,0.1-0.8-0.3-1c-0.4-0.2-0.8-0.1-1,0.3
						C91.9,17.7,92.1,18.2,92.4,18.4z"/>
				</g>
			</g>
		</g>
		<g>
			<g>
				<line class="st3" x1="0.8" y1="39.8" x2="6.2" y2="36.9"/>
				<g>
					<path class="st4" d="M1.2,40.4c-0.4,0.2-0.8,0.1-1-0.3c-0.2-0.4-0.1-0.8,0.3-1c0.4-0.2,0.8-0.1,1,0.3
						C1.7,39.8,1.5,40.2,1.2,40.4z"/>
				</g>
				<g>
					<path class="st4" d="M6.5,37.5c0.4-0.2,0.5-0.6,0.3-1c-0.2-0.4-0.6-0.5-1-0.3c-0.4,0.2-0.5,0.6-0.3,1
						C5.7,37.6,6.2,37.7,6.5,37.5z"/>
				</g>
			</g>
		</g>
	</g>
</g>
</svg>
