<svg xmlns="http://www.w3.org/2000/svg" xmlns:xlink="http://www.w3.org/1999/xlink" viewBox="0 0 378.08 493.46"><defs><style>.cls-1,.cls-47,.cls-74{fill:none;}.cls-16,.cls-17,.cls-18,.cls-2,.cls-21,.cls-38,.cls-41,.cls-44,.cls-50,.cls-51,.cls-52,.cls-55,.cls-56,.cls-59,.cls-60,.cls-62,.cls-64,.cls-65,.cls-69,.cls-72{isolation:isolate;}.cls-3{fill:url(#radial-gradient);}.cls-4{fill:url(#radial-gradient-2);}.cls-5{fill:url(#linear-gradient);}.cls-6{fill:url(#linear-gradient-2);}.cls-7{fill:url(#linear-gradient-3);}.cls-8{fill:url(#linear-gradient-4);}.cls-9{fill:url(#linear-gradient-5);}.cls-10{clip-path:url(#clip-path);}.cls-11{fill:#1b0f36;}.cls-12{fill:#15092e;}.cls-13{fill:#1f123d;}.cls-14,.cls-15,.cls-16,.cls-17,.cls-38,.cls-41,.cls-50,.cls-52,.cls-55,.cls-56,.cls-60,.cls-86{fill:#fff;}.cls-15,.cls-17,.cls-37{fill-rule:evenodd;}.cls-16,.cls-17{opacity:0.7;}.cls-18,.cls-21{font-size:5.53px;}.cls-18,.cls-44,.cls-49,.cls-64,.cls-75{fill:#08f;}.cls-18,.cls-21,.cls-41,.cls-65,.cls-69{font-family:SegoeUI-Light, Segoe UI;font-weight:300;}.cls-19{letter-spacing:0.06em;}.cls-20{letter-spacing:-0.02em;}.cls-21,.cls-23,.cls-78{fill:#ababc9;}.cls-22{fill:#025dc4;}.cls-24{fill:url(#linear-gradient-6);}.cls-25{fill:url(#linear-gradient-7);}.cls-26{fill:url(#linear-gradient-8);}.cls-27{fill:url(#linear-gradient-9);}.cls-28{fill:url(#linear-gradient-10);}.cls-29{fill:url(#linear-gradient-11);}.cls-30{fill:url(#linear-gradient-12);}.cls-31{fill:url(#linear-gradient-13);}.cls-32{fill:url(#linear-gradient-14);}.cls-33{fill:url(#linear-gradient-15);}.cls-34{fill:url(#linear-gradient-16);}.cls-35{fill:url(#linear-gradient-17);}.cls-36{fill:url(#linear-gradient-18);}.cls-37{fill:#1161ad;}.cls-38{font-size:6.91px;}.cls-38,.cls-44,.cls-50,.cls-52,.cls-55,.cls-56,.cls-60,.cls-64{font-family:SegoeUI, Segoe UI;}.cls-39{letter-spacing:-0.02em;}.cls-40{letter-spacing:-0.05em;}.cls-41,.cls-44{font-size:5.99px;}.cls-42{letter-spacing:-0.16em;}.cls-43{letter-spacing:0.01em;}.cls-45{letter-spacing:-0.01em;}.cls-46{fill:#8d8db9;}.cls-47{stroke:#8d8db9;stroke-width:0.69px;}.cls-48,.cls-65,.cls-69,.cls-73,.cls-76,.cls-77{fill:#6464b4;}.cls-50,.cls-51,.cls-59,.cls-62,.cls-72{font-size:7.37px;}.cls-51,.cls-62{fill:#b22c2c;}.cls-51,.cls-59,.cls-62,.cls-72{font-family:SegoeUI-Semibold, Segoe UI;font-weight:600;}.cls-51,.cls-59{letter-spacing:0.01em;}.cls-52,.cls-55,.cls-56,.cls-60{font-size:3.69px;}.cls-52{letter-spacing:0.06em;}.cls-53{letter-spacing:0.05em;}.cls-54{letter-spacing:0.1em;}.cls-56{letter-spacing:0.02em;}.cls-57{fill:#ff280b;}.cls-58{fill:#f7931a;}.cls-59,.cls-61,.cls-72{fill:#009b3e;}.cls-60{letter-spacing:0.1em;}.cls-62,.cls-72{letter-spacing:0.01em;}.cls-63{letter-spacing:-0.1em;}.cls-64,.cls-65,.cls-69{font-size:4.15px;}.cls-65{letter-spacing:-0.06em;}.cls-66{letter-spacing:0em;}.cls-67{letter-spacing:0.04em;}.cls-68{letter-spacing:0em;}.cls-70{letter-spacing:-0.02em;}.cls-71{letter-spacing:-0.16em;}.cls-73,.cls-74,.cls-76,.cls-77{stroke:#6464b4;}.cls-73,.cls-75{stroke-width:0.23px;}.cls-74{stroke-width:0.46px;}.cls-75{stroke:#08f;}.cls-76,.cls-78{stroke-width:0.14px;}.cls-77{stroke-width:0.18px;}.cls-78{stroke:#ababc9;}.cls-79{fill:url(#Degradado_sin_nombre_57);}.cls-80{fill:url(#Degradado_sin_nombre_57-2);}.cls-81{fill:url(#Degradado_sin_nombre_57-3);}.cls-82{fill:url(#Degradado_sin_nombre_57-4);}.cls-83{fill:url(#Degradado_sin_nombre_57-5);}.cls-84{fill:url(#Degradado_sin_nombre_59);}.cls-85,.cls-86,.cls-91{mix-blend-mode:hard-light;}.cls-85{fill:url(#Degradado_sin_nombre_50);}.cls-86{opacity:0.06;}.cls-87,.cls-91{opacity:0.7;}.cls-88{fill:url(#Degradado_sin_nombre_75);}.cls-89{fill:url(#Degradado_sin_nombre_75-2);}.cls-90{fill:url(#Degradado_sin_nombre_75-3);}.cls-92{fill:url(#Degradado_sin_nombre_79);}.cls-93{fill:url(#Degradado_sin_nombre_79-2);}.cls-94{fill:url(#Degradado_sin_nombre_79-3);}.cls-95{fill:url(#Degradado_sin_nombre_79-4);}.cls-96{fill:url(#Degradado_sin_nombre_79-5);}.cls-97{fill:url(#Degradado_sin_nombre_79-6);}.cls-98{fill:url(#Degradado_sin_nombre_79-7);}.cls-99{fill:url(#Degradado_sin_nombre_79-8);}.cls-100{fill:url(#Degradado_sin_nombre_79-9);}.cls-101{fill:url(#Degradado_sin_nombre_79-10);}.cls-102{fill:url(#Degradado_sin_nombre_79-11);}.cls-103{fill:url(#Degradado_sin_nombre_79-12);}.cls-104{fill:url(#Degradado_sin_nombre_79-13);}.cls-105{fill:url(#Degradado_sin_nombre_79-14);}.cls-106{fill:url(#Degradado_sin_nombre_79-15);}.cls-107{fill:url(#Degradado_sin_nombre_79-16);}.cls-108{fill:url(#Degradado_sin_nombre_79-17);}.cls-109{fill:url(#Degradado_sin_nombre_79-18);}.cls-110{fill:url(#Degradado_sin_nombre_79-19);}.cls-111{fill:url(#Degradado_sin_nombre_79-20);}.cls-112{fill:url(#Degradado_sin_nombre_79-21);}.cls-113{fill:url(#Degradado_sin_nombre_79-22);}.cls-114{fill:url(#Degradado_sin_nombre_79-23);}.cls-115{fill:url(#Degradado_sin_nombre_79-24);}.cls-116{fill:url(#Degradado_sin_nombre_79-25);}.cls-117{fill:url(#Degradado_sin_nombre_79-26);}.cls-118{fill:url(#Degradado_sin_nombre_79-27);}.cls-119{fill:url(#Degradado_sin_nombre_79-28);}.cls-120{fill:url(#Degradado_sin_nombre_79-29);}.cls-121{fill:url(#Degradado_sin_nombre_79-30);}.cls-122{fill:url(#Degradado_sin_nombre_79-31);}.cls-123{fill:url(#Degradado_sin_nombre_79-32);}.cls-124{fill:url(#Degradado_sin_nombre_79-33);}.cls-125{fill:url(#Degradado_sin_nombre_79-34);}.cls-126{fill:url(#Degradado_sin_nombre_79-35);}.cls-127{fill:url(#Degradado_sin_nombre_79-36);}.cls-128{fill:url(#Degradado_sin_nombre_79-37);}.cls-129{fill:url(#Degradado_sin_nombre_79-38);}.cls-130{fill:url(#Degradado_sin_nombre_79-39);}.cls-131{fill:url(#Degradado_sin_nombre_79-40);}.cls-132{fill:url(#Degradado_sin_nombre_79-41);}.cls-133{fill:url(#Degradado_sin_nombre_79-42);}.cls-134{fill:url(#Degradado_sin_nombre_79-43);}.cls-135{fill:url(#Degradado_sin_nombre_79-44);}.cls-136{fill:url(#Degradado_sin_nombre_79-45);}.cls-137{fill:url(#Degradado_sin_nombre_79-46);}.cls-138{fill:url(#Degradado_sin_nombre_79-47);}.cls-139{fill:url(#Degradado_sin_nombre_79-48);}.cls-140{fill:url(#Degradado_sin_nombre_79-49);}.cls-141{fill:url(#Degradado_sin_nombre_79-50);}.cls-142{fill:url(#Degradado_sin_nombre_79-51);}.cls-143{fill:url(#Degradado_sin_nombre_79-52);}.cls-144{fill:url(#Degradado_sin_nombre_87);}.cls-145{fill:url(#Degradado_sin_nombre_87-2);}.cls-146{fill:url(#Degradado_sin_nombre_87-3);}.cls-147{fill:url(#Degradado_sin_nombre_87-4);}.cls-148{fill:url(#Degradado_sin_nombre_87-5);}.cls-149{fill:url(#Degradado_sin_nombre_87-6);}.cls-150{fill:url(#Degradado_sin_nombre_87-7);}.cls-151{fill:url(#Degradado_sin_nombre_87-8);}.cls-152{fill:url(#Degradado_sin_nombre_87-9);}.cls-153{fill:url(#Degradado_sin_nombre_87-10);}.cls-154{fill:url(#Degradado_sin_nombre_87-11);}.cls-155{fill:url(#Degradado_sin_nombre_87-12);}.cls-156{fill:url(#Degradado_sin_nombre_87-13);}.cls-157{fill:url(#Degradado_sin_nombre_87-14);}.cls-158{fill:url(#Degradado_sin_nombre_87-15);}.cls-159{fill:url(#Degradado_sin_nombre_87-16);}.cls-160{fill:url(#Degradado_sin_nombre_87-17);}.cls-161{fill:url(#Degradado_sin_nombre_87-18);}.cls-162{fill:url(#Degradado_sin_nombre_87-19);}.cls-163{fill:url(#Degradado_sin_nombre_87-20);}.cls-164{fill:url(#Degradado_sin_nombre_87-21);}.cls-165{fill:url(#Degradado_sin_nombre_87-22);}.cls-166{fill:url(#Degradado_sin_nombre_87-23);}.cls-167{fill:url(#Degradado_sin_nombre_87-24);}.cls-168{fill:url(#Degradado_sin_nombre_87-25);}.cls-169{fill:url(#Degradado_sin_nombre_87-26);}.cls-170{fill:url(#Degradado_sin_nombre_87-27);}.cls-171{fill:url(#Degradado_sin_nombre_87-28);}.cls-172{fill:url(#Degradado_sin_nombre_87-29);}.cls-173{fill:url(#Degradado_sin_nombre_87-30);}.cls-174{fill:url(#Degradado_sin_nombre_87-31);}.cls-175{fill:url(#Degradado_sin_nombre_87-32);}.cls-176{fill:url(#Degradado_sin_nombre_87-33);}.cls-177{fill:url(#Degradado_sin_nombre_87-34);}</style><radialGradient id="radial-gradient" cx="203.81" cy="443.13" r="145.71" gradientTransform="matrix(0, 1.04, -0.21, 0, 304.4, 228.07)" gradientUnits="userSpaceOnUse"><stop offset="0" stop-color="#080a1d"/><stop offset="0.28" stop-color="#090b1f" stop-opacity="0.94"/><stop offset="1" stop-color="#1f123d" stop-opacity="0"/></radialGradient><radialGradient id="radial-gradient-2" cx="16.62" cy="-440.55" r="308.99" gradientTransform="matrix(0, 0.6, -0.81, 0, -167.41, 236.8)" gradientUnits="userSpaceOnUse"><stop offset="0" stop-color="#6acaff"/><stop offset="0.2" stop-color="#5ca8dc" stop-opacity="0.82"/><stop offset="0.66" stop-color="#3a5583" stop-opacity="0.36"/><stop offset="1" stop-color="#1f123d" stop-opacity="0"/></radialGradient><linearGradient id="linear-gradient" x1="135.45" y1="-97.41" x2="137.87" y2="218.91" gradientTransform="matrix(0.99, 0.16, -0.16, 0.99, 76.46, 121.12)" gradientUnits="userSpaceOnUse"><stop offset="0" stop-color="#18143c"/><stop offset="0.29" stop-color="#1a1540"/><stop offset="0.6" stop-color="#1e1a4d"/><stop offset="0.92" stop-color="#262162"/><stop offset="1" stop-color="#292369"/></linearGradient><linearGradient id="linear-gradient-2" x1="-1597.51" y1="1136.84" x2="-1597.51" y2="1174.44" gradientTransform="matrix(-0.99, -0.16, 0.16, -0.99, -1534.15, 952.37)" gradientUnits="userSpaceOnUse"><stop offset="0" stop-color="#0b1477" stop-opacity="0"/><stop offset="1" stop-color="#3b32a7"/></linearGradient><linearGradient id="linear-gradient-3" x1="136.98" y1="263.89" x2="136.98" y2="301.12" gradientTransform="matrix(0.99, 0.16, -0.16, 0.99, 76.46, 121.12)" gradientUnits="userSpaceOnUse"><stop offset="0" stop-color="#031429" stop-opacity="0"/><stop offset="1" stop-color="#331386"/></linearGradient><linearGradient id="linear-gradient-4" x1="136.74" y1="-82" x2="137.24" y2="295.62" gradientTransform="matrix(0.99, 0.16, -0.16, 0.99, 76.46, 121.12)" gradientUnits="userSpaceOnUse"><stop offset="0" stop-color="#000018"/><stop offset="0.39" stop-color="#00001c"/><stop offset="0.8" stop-color="#000029"/><stop offset="1" stop-color="#000032"/></linearGradient><linearGradient id="linear-gradient-5" x1="286.19" y1="51.02" x2="239.7" y2="150.14" gradientUnits="userSpaceOnUse"><stop offset="0" stop-color="#4fbfff"/><stop offset="0.84" stop-color="#0f3041" stop-opacity="0.16"/><stop offset="1" stop-color="#03141c" stop-opacity="0"/></linearGradient><clipPath id="clip-path"><path class="cls-1" d="M287.07,69.1,279,67.81a7.81,7.81,0,0,0-8,3.66,13.84,13.84,0,0,1-14.2,6.83l-67.9-10.78a13.83,13.83,0,0,1-11.4-10.93A7.71,7.71,0,0,0,171,50.68l-8.14-1.29A23.51,23.51,0,0,0,136,68.92L84.69,392.18a23.5,23.5,0,0,0,19.53,26.89l124.2,19.7a23.51,23.51,0,0,0,26.9-19.53L306.6,96A23.5,23.5,0,0,0,287.07,69.1Z"/></clipPath><linearGradient id="linear-gradient-6" x1="-1412.91" y1="1092.08" x2="-1417.25" y2="1092.08" gradientTransform="matrix(7.34, 1.17, 2.16, -13.54, 8221.71, 16528.38)" gradientUnits="userSpaceOnUse"><stop offset="0" stop-color="#f99207"/><stop offset="0.16" stop-color="#f78809"/><stop offset="0.44" stop-color="#f36e0e"/><stop offset="0.79" stop-color="#ec4418"/><stop offset="1" stop-color="#e8271f"/></linearGradient><linearGradient id="linear-gradient-7" x1="175.32" y1="96.07" x2="143.02" y2="96.07" gradientTransform="matrix(0.99, 0.16, -0.16, 0.99, 43.63, -34.71)" xlink:href="#linear-gradient-6"/><linearGradient id="linear-gradient-8" x1="-1470.78" y1="1091.16" x2="-1473.45" y2="1091.16" gradientTransform="matrix(11.92, 1.9, 2.29, -14.41, 15230.14, 18598.92)" xlink:href="#linear-gradient-6"/><linearGradient id="linear-gradient-9" x1="174.86" y1="96.06" x2="142.55" y2="96.06" gradientTransform="matrix(0.99, 0.16, -0.16, 0.99, 43.63, -34.71)" xlink:href="#linear-gradient-6"/><linearGradient id="linear-gradient-10" x1="-1472.49" y1="1095.63" x2="-1475.17" y2="1095.63" gradientTransform="matrix(11.89, 1.89, 1.75, -10.99, 15786.89, 14912.21)" xlink:href="#linear-gradient-6"/><linearGradient id="linear-gradient-11" x1="-1473.58" y1="1095.63" x2="-1476.26" y2="1095.63" gradientTransform="matrix(11.89, 1.89, 1.75, -10.99, 15801.06, 14914.5)" xlink:href="#linear-gradient-6"/><linearGradient id="linear-gradient-12" x1="-1468" y1="1095.36" x2="-1466.3" y2="1095.37" gradientTransform="matrix(11.02, 1.75, 1.77, -11.15, 14437.65, 14874.41)" gradientUnits="userSpaceOnUse"><stop offset="0" stop-color="#0082c8"/><stop offset="1" stop-color="#002f7c"/></linearGradient><linearGradient id="linear-gradient-13" x1="174.49" y1="96.02" x2="193.44" y2="96.13" gradientTransform="matrix(0.99, 0.16, -0.16, 0.99, 43.63, -34.71)" xlink:href="#linear-gradient-12"/><linearGradient id="linear-gradient-14" x1="174.55" y1="94.92" x2="193.4" y2="94.96" gradientTransform="matrix(0.99, 0.16, -0.16, 0.99, 43.63, -34.71)" xlink:href="#linear-gradient-12"/><linearGradient id="linear-gradient-15" x1="-1477.03" y1="1095.62" x2="-1475.45" y2="1095.63" gradientTransform="matrix(11.89, 1.89, 1.75, -10.99, 15839.22, 14920.51)" xlink:href="#linear-gradient-12"/><linearGradient id="linear-gradient-16" x1="-1499.95" y1="1096.62" x2="-1500.26" y2="1095.76" gradientTransform="matrix(17.94, 2.86, 1.73, -10.88, 25184.04, 16287.29)" xlink:href="#linear-gradient-12"/><linearGradient id="linear-gradient-17" x1="-1473.53" y1="1092.79" x2="-1473.98" y2="1092.07" gradientTransform="matrix(12.32, 1.96, 2.05, -12.89, 16081.5, 17056.08)" xlink:href="#linear-gradient-12"/><linearGradient id="linear-gradient-18" x1="-1507.38" y1="1087.28" x2="-1507.65" y2="1087.53" gradientTransform="matrix(20.52, 3.27, 3.12, -19.58, 27714.75, 26298.87)" xlink:href="#linear-gradient-6"/><linearGradient id="Degradado_sin_nombre_57" x1="35.94" y1="19.57" x2="35.64" y2="44.65" gradientTransform="matrix(0.99, 0.16, -0.16, 0.99, 76.46, 121.12)" gradientUnits="userSpaceOnUse"><stop offset="0" stop-color="#03141c"/><stop offset="1" stop-color="#0d3240"/></linearGradient><linearGradient id="Degradado_sin_nombre_57-2" x1="35.77" y1="-16.3" x2="35.77" y2="10.44" xlink:href="#Degradado_sin_nombre_57"/><linearGradient id="Degradado_sin_nombre_57-3" x1="238.55" y1="-3.18" x2="237.75" y2="35.4" xlink:href="#Degradado_sin_nombre_57"/><linearGradient id="Degradado_sin_nombre_57-4" x1="35.85" y1="-43.34" x2="35.7" y2="-29.52" xlink:href="#Degradado_sin_nombre_57"/><linearGradient id="Degradado_sin_nombre_57-5" x1="219.85" y1="65.21" x2="220.46" y2="61.41" gradientTransform="translate(-7.13 35.26) rotate(-9.01)" xlink:href="#Degradado_sin_nombre_57"/><radialGradient id="Degradado_sin_nombre_59" cx="242.39" cy="66.4" r="3.83" gradientUnits="userSpaceOnUse"><stop offset="0" stop-color="#0d3240"/><stop offset="1" stop-color="#03141c"/></radialGradient><linearGradient id="Degradado_sin_nombre_50" x1="242.25" y1="67.47" x2="242.65" y2="64.51" gradientUnits="userSpaceOnUse"><stop offset="0" stop-color="#0d3240" stop-opacity="0"/><stop offset="0.16" stop-color="#0b535f" stop-opacity="0.16"/><stop offset="1" stop-color="aqua"/></linearGradient><linearGradient id="Degradado_sin_nombre_75" x1="138.71" y1="137.26" x2="138.71" y2="88.94" gradientTransform="translate(73.81 120.74) rotate(8.96)" gradientUnits="userSpaceOnUse"><stop offset="0" stop-color="aqua"/><stop offset="1" stop-color="#784bff" stop-opacity="0"/></linearGradient><linearGradient id="Degradado_sin_nombre_75-2" x1="138.71" y1="52.4" x2="138.71" y2="136.31" xlink:href="#Degradado_sin_nombre_75"/><linearGradient id="Degradado_sin_nombre_75-3" x1="138.71" y1="134.13" x2="138.71" y2="96.72" xlink:href="#Degradado_sin_nombre_75"/><linearGradient id="Degradado_sin_nombre_79" x1="181.81" y1="125.48" x2="191.58" y2="125.48" gradientTransform="translate(51.97 148.55)" gradientUnits="userSpaceOnUse"><stop offset="0" stop-color="#b500ff"/><stop offset="1" stop-color="#784bff" stop-opacity="0"/></linearGradient><linearGradient id="Degradado_sin_nombre_79-2" x1="181.81" y1="120.2" x2="191.58" y2="120.2" gradientTransform="translate(52.8 148.61)" xlink:href="#Degradado_sin_nombre_79"/><linearGradient id="Degradado_sin_nombre_79-3" x1="181.81" y1="114.93" x2="191.58" y2="114.93" gradientTransform="translate(53.62 148.68)" xlink:href="#Degradado_sin_nombre_79"/><linearGradient id="Degradado_sin_nombre_79-4" x1="181.81" y1="109.65" x2="191.58" y2="109.65" gradientTransform="translate(54.44 148.75)" xlink:href="#Degradado_sin_nombre_79"/><linearGradient id="Degradado_sin_nombre_79-5" x1="181.81" y1="104.37" x2="191.58" y2="104.37" gradientTransform="translate(55.26 148.81)" xlink:href="#Degradado_sin_nombre_79"/><linearGradient id="Degradado_sin_nombre_79-6" x1="181.81" y1="99.1" x2="191.58" y2="99.1" gradientTransform="translate(56.08 148.87)" xlink:href="#Degradado_sin_nombre_79"/><linearGradient id="Degradado_sin_nombre_79-7" x1="181.81" y1="93.82" x2="191.58" y2="93.82" gradientTransform="translate(56.9 148.94)" xlink:href="#Degradado_sin_nombre_79"/><linearGradient id="Degradado_sin_nombre_79-8" x1="181.81" y1="88.55" x2="191.58" y2="88.55" gradientTransform="translate(57.73 149)" xlink:href="#Degradado_sin_nombre_79"/><linearGradient id="Degradado_sin_nombre_79-9" x1="181.81" y1="83.27" x2="191.58" y2="83.27" gradientTransform="translate(58.55 149.06)" xlink:href="#Degradado_sin_nombre_79"/><linearGradient id="Degradado_sin_nombre_79-10" x1="181.81" y1="77.99" x2="191.58" y2="77.99" gradientTransform="translate(59.37 149.13)" xlink:href="#Degradado_sin_nombre_79"/><linearGradient id="Degradado_sin_nombre_79-11" x1="181.81" y1="72.72" x2="191.58" y2="72.72" gradientTransform="translate(60.19 149.2)" xlink:href="#Degradado_sin_nombre_79"/><linearGradient id="Degradado_sin_nombre_79-12" x1="181.81" y1="67.44" x2="191.58" y2="67.44" gradientTransform="translate(61.01 149.26)" xlink:href="#Degradado_sin_nombre_79"/><linearGradient id="Degradado_sin_nombre_79-13" x1="181.81" y1="62.17" x2="191.58" y2="62.17" gradientTransform="translate(61.83 149.32)" xlink:href="#Degradado_sin_nombre_79"/><linearGradient id="Degradado_sin_nombre_79-14" x1="-1329.56" y1="281.4" x2="-1319.79" y2="281.4" gradientTransform="translate(1480.14 -2.19)" xlink:href="#Degradado_sin_nombre_79"/><linearGradient id="Degradado_sin_nombre_79-15" x1="-1329.56" y1="276.12" x2="-1319.79" y2="276.12" gradientTransform="translate(1485.34 3.89)" xlink:href="#Degradado_sin_nombre_79"/><linearGradient id="Degradado_sin_nombre_79-16" x1="-1329.56" y1="270.85" x2="-1319.79" y2="270.85" gradientTransform="translate(1490.56 9.99)" xlink:href="#Degradado_sin_nombre_79"/><linearGradient id="Degradado_sin_nombre_79-17" x1="-1329.56" y1="265.57" x2="-1319.79" y2="265.57" gradientTransform="translate(1495.77 16.1)" xlink:href="#Degradado_sin_nombre_79"/><linearGradient id="Degradado_sin_nombre_79-18" x1="-1329.56" y1="260.3" x2="-1319.79" y2="260.3" gradientTransform="translate(1500.98 22.18)" xlink:href="#Degradado_sin_nombre_79"/><linearGradient id="Degradado_sin_nombre_79-19" x1="-1329.56" y1="255.02" x2="-1319.79" y2="255.02" gradientTransform="translate(1506.19 28.28)" xlink:href="#Degradado_sin_nombre_79"/><linearGradient id="Degradado_sin_nombre_79-20" x1="-1329.56" y1="249.74" x2="-1319.79" y2="249.74" gradientTransform="translate(1511.4 34.4)" xlink:href="#Degradado_sin_nombre_79"/><linearGradient id="Degradado_sin_nombre_79-21" x1="-1329.56" y1="244.47" x2="-1319.79" y2="244.47" gradientTransform="translate(1516.62 40.49)" xlink:href="#Degradado_sin_nombre_79"/><linearGradient id="Degradado_sin_nombre_79-22" x1="-1329.56" y1="239.19" x2="-1319.79" y2="239.19" gradientTransform="translate(1521.82 46.57)" xlink:href="#Degradado_sin_nombre_79"/><linearGradient id="Degradado_sin_nombre_79-23" x1="-1329.56" y1="233.92" x2="-1319.79" y2="233.92" gradientTransform="translate(1527.04 52.69)" xlink:href="#Degradado_sin_nombre_79"/><linearGradient id="Degradado_sin_nombre_79-24" x1="-1329.56" y1="228.64" x2="-1319.79" y2="228.64" gradientTransform="translate(1532.25 58.79)" xlink:href="#Degradado_sin_nombre_79"/><linearGradient id="Degradado_sin_nombre_79-25" x1="-1329.56" y1="223.37" x2="-1319.79" y2="223.37" gradientTransform="translate(1537.46 64.86)" xlink:href="#Degradado_sin_nombre_79"/><linearGradient id="Degradado_sin_nombre_79-26" x1="-1329.56" y1="218.09" x2="-1319.79" y2="218.09" gradientTransform="translate(1542.67 70.96)" xlink:href="#Degradado_sin_nombre_79"/><linearGradient id="Degradado_sin_nombre_79-27" x1="1.54" y1="1735.01" x2="11.31" y2="1735.01" gradientTransform="translate(227.05 -1544.19)" xlink:href="#Degradado_sin_nombre_79"/><linearGradient id="Degradado_sin_nombre_79-28" x1="1.54" y1="1729.74" x2="11.31" y2="1729.74" gradientTransform="translate(221.86 -1539.74)" xlink:href="#Degradado_sin_nombre_79"/><linearGradient id="Degradado_sin_nombre_79-29" x1="1.54" y1="1724.46" x2="11.31" y2="1724.46" gradientTransform="translate(216.65 -1535.28)" xlink:href="#Degradado_sin_nombre_79"/><linearGradient id="Degradado_sin_nombre_79-30" x1="1.54" y1="1719.19" x2="11.31" y2="1719.19" gradientTransform="translate(211.42 -1530.83)" xlink:href="#Degradado_sin_nombre_79"/><linearGradient id="Degradado_sin_nombre_79-31" x1="1.54" y1="1713.91" x2="11.31" y2="1713.91" gradientTransform="translate(206.2 -1526.37)" xlink:href="#Degradado_sin_nombre_79"/><linearGradient id="Degradado_sin_nombre_79-32" x1="1.54" y1="1708.64" x2="11.31" y2="1708.64" gradientTransform="translate(201.02 -1521.92)" xlink:href="#Degradado_sin_nombre_79"/><linearGradient id="Degradado_sin_nombre_79-33" x1="1.54" y1="1703.36" x2="11.31" y2="1703.36" gradientTransform="translate(195.78 -1517.46)" xlink:href="#Degradado_sin_nombre_79"/><linearGradient id="Degradado_sin_nombre_79-34" x1="1.54" y1="1698.08" x2="11.31" y2="1698.08" gradientTransform="translate(190.57 -1513.01)" xlink:href="#Degradado_sin_nombre_79"/><linearGradient id="Degradado_sin_nombre_79-35" x1="1.54" y1="1692.81" x2="11.31" y2="1692.81" gradientTransform="translate(185.38 -1508.56)" xlink:href="#Degradado_sin_nombre_79"/><linearGradient id="Degradado_sin_nombre_79-36" x1="1.54" y1="1687.53" x2="11.31" y2="1687.53" gradientTransform="translate(180.17 -1504.1)" xlink:href="#Degradado_sin_nombre_79"/><linearGradient id="Degradado_sin_nombre_79-37" x1="1.54" y1="1682.26" x2="11.31" y2="1682.26" gradientTransform="translate(174.93 -1499.65)" xlink:href="#Degradado_sin_nombre_79"/><linearGradient id="Degradado_sin_nombre_79-38" x1="1.54" y1="1676.98" x2="11.31" y2="1676.98" gradientTransform="translate(169.74 -1495.19)" xlink:href="#Degradado_sin_nombre_79"/><linearGradient id="Degradado_sin_nombre_79-39" x1="1.54" y1="1671.7" x2="11.31" y2="1671.7" gradientTransform="translate(164.53 -1490.74)" xlink:href="#Degradado_sin_nombre_79"/><linearGradient id="Degradado_sin_nombre_79-40" x1="-1435.79" y1="1601.56" x2="-1426.02" y2="1601.56" gradientTransform="translate(1581.19 -1405.54)" xlink:href="#Degradado_sin_nombre_79"/><linearGradient id="Degradado_sin_nombre_79-41" x1="-1435.79" y1="1596.28" x2="-1426.02" y2="1596.28" gradientTransform="translate(1580.34 -1395.08)" xlink:href="#Degradado_sin_nombre_79"/><linearGradient id="Degradado_sin_nombre_79-42" x1="-1435.79" y1="1591.01" x2="-1426.02" y2="1591.01" gradientTransform="translate(1579.52 -1384.59)" xlink:href="#Degradado_sin_nombre_79"/><linearGradient id="Degradado_sin_nombre_79-43" x1="-1435.79" y1="1585.73" x2="-1426.02" y2="1585.73" gradientTransform="translate(1578.72 -1374.08)" xlink:href="#Degradado_sin_nombre_79"/><linearGradient id="Degradado_sin_nombre_79-44" x1="-1435.79" y1="1580.46" x2="-1426.02" y2="1580.46" gradientTransform="translate(1577.88 -1363.61)" xlink:href="#Degradado_sin_nombre_79"/><linearGradient id="Degradado_sin_nombre_79-45" x1="-1435.79" y1="1575.18" x2="-1426.02" y2="1575.18" gradientTransform="translate(1577.06 -1353.13)" xlink:href="#Degradado_sin_nombre_79"/><linearGradient id="Degradado_sin_nombre_79-46" x1="-1435.79" y1="1569.9" x2="-1426.02" y2="1569.9" gradientTransform="translate(1576.26 -1342.62)" xlink:href="#Degradado_sin_nombre_79"/><linearGradient id="Degradado_sin_nombre_79-47" x1="-1435.79" y1="1564.63" x2="-1426.02" y2="1564.63" gradientTransform="translate(1575.44 -1332.13)" xlink:href="#Degradado_sin_nombre_79"/><linearGradient id="Degradado_sin_nombre_79-48" x1="-1435.79" y1="1559.35" x2="-1426.02" y2="1559.35" gradientTransform="translate(1574.59 -1321.66)" xlink:href="#Degradado_sin_nombre_79"/><linearGradient id="Degradado_sin_nombre_79-49" x1="-1435.79" y1="1554.08" x2="-1426.02" y2="1554.08" gradientTransform="translate(1573.8 -1311.16)" xlink:href="#Degradado_sin_nombre_79"/><linearGradient id="Degradado_sin_nombre_79-50" x1="-1435.79" y1="1548.8" x2="-1426.02" y2="1548.8" gradientTransform="translate(1572.97 -1300.67)" xlink:href="#Degradado_sin_nombre_79"/><linearGradient id="Degradado_sin_nombre_79-51" x1="-1435.79" y1="1543.52" x2="-1426.02" y2="1543.52" gradientTransform="translate(1572.13 -1290.2)" xlink:href="#Degradado_sin_nombre_79"/><linearGradient id="Degradado_sin_nombre_79-52" x1="-1435.79" y1="1538.25" x2="-1426.02" y2="1538.25" gradientTransform="translate(1571.31 -1279.72)" xlink:href="#Degradado_sin_nombre_79"/><linearGradient id="Degradado_sin_nombre_87" x1="106.38" y1="105.79" x2="293.99" y2="367.52" gradientUnits="userSpaceOnUse"><stop offset="0" stop-color="aqua"/><stop offset="0.22" stop-color="#784bff" stop-opacity="0"/><stop offset="0.47" stop-color="#00d9ff" stop-opacity="0.95"/><stop offset="0.75" stop-color="#5966ff" stop-opacity="0"/><stop offset="1" stop-color="#00caff" stop-opacity="0.47"/></linearGradient><linearGradient id="Degradado_sin_nombre_87-2" x1="37.64" y1="155.06" x2="225.25" y2="416.79" xlink:href="#Degradado_sin_nombre_87"/><linearGradient id="Degradado_sin_nombre_87-3" x1="88.98" y1="118.26" x2="276.59" y2="379.99" xlink:href="#Degradado_sin_nombre_87"/><linearGradient id="Degradado_sin_nombre_87-4" x1="130.97" y1="88.16" x2="318.58" y2="349.89" xlink:href="#Degradado_sin_nombre_87"/><linearGradient id="Degradado_sin_nombre_87-5" x1="169.46" y1="60.57" x2="357.07" y2="322.3" xlink:href="#Degradado_sin_nombre_87"/><linearGradient id="Degradado_sin_nombre_87-6" x1="50.63" y1="145.75" x2="238.24" y2="407.48" xlink:href="#Degradado_sin_nombre_87"/><linearGradient id="Degradado_sin_nombre_87-7" x1="75.94" y1="127.61" x2="263.55" y2="389.34" xlink:href="#Degradado_sin_nombre_87"/><linearGradient id="Degradado_sin_nombre_87-8" x1="140.49" y1="81.33" x2="328.1" y2="343.07" xlink:href="#Degradado_sin_nombre_87"/><linearGradient id="Degradado_sin_nombre_87-9" x1="87.69" y1="119.18" x2="275.31" y2="380.91" xlink:href="#Degradado_sin_nombre_87"/><linearGradient id="Degradado_sin_nombre_87-10" x1="56" y1="141.9" x2="243.62" y2="403.63" xlink:href="#Degradado_sin_nombre_87"/><linearGradient id="Degradado_sin_nombre_87-11" x1="28.37" y1="161.7" x2="215.99" y2="423.43" xlink:href="#Degradado_sin_nombre_87"/><linearGradient id="Degradado_sin_nombre_87-12" x1="20.63" y1="167.25" x2="208.25" y2="428.98" xlink:href="#Degradado_sin_nombre_87"/><linearGradient id="Degradado_sin_nombre_87-13" x1="-0.54" y1="182.43" x2="187.07" y2="444.16" xlink:href="#Degradado_sin_nombre_87"/><linearGradient id="Degradado_sin_nombre_87-14" x1="53.13" y1="143.95" x2="240.75" y2="405.69" xlink:href="#Degradado_sin_nombre_87"/><linearGradient id="Degradado_sin_nombre_87-15" x1="37.86" y1="154.9" x2="225.48" y2="416.63" xlink:href="#Degradado_sin_nombre_87"/><linearGradient id="Degradado_sin_nombre_87-16" x1="5.41" y1="178.16" x2="193.02" y2="439.89" xlink:href="#Degradado_sin_nombre_87"/><linearGradient id="Degradado_sin_nombre_87-17" x1="99.55" y1="110.68" x2="287.16" y2="372.42" xlink:href="#Degradado_sin_nombre_87"/><linearGradient id="Degradado_sin_nombre_87-18" x1="66.3" y1="134.51" x2="253.92" y2="396.24" xlink:href="#Degradado_sin_nombre_87"/><linearGradient id="Degradado_sin_nombre_87-19" x1="107.97" y1="104.65" x2="295.58" y2="366.38" xlink:href="#Degradado_sin_nombre_87"/><linearGradient id="Degradado_sin_nombre_87-20" x1="44.22" y1="150.34" x2="231.84" y2="412.07" xlink:href="#Degradado_sin_nombre_87"/><linearGradient id="Degradado_sin_nombre_87-21" x1="110" y1="103.19" x2="297.61" y2="364.92" xlink:href="#Degradado_sin_nombre_87"/><linearGradient id="Degradado_sin_nombre_87-22" x1="159.85" y1="67.46" x2="347.46" y2="329.19" xlink:href="#Degradado_sin_nombre_87"/><linearGradient id="Degradado_sin_nombre_87-23" x1="166.53" y1="62.67" x2="354.15" y2="324.4" xlink:href="#Degradado_sin_nombre_87"/><linearGradient id="Degradado_sin_nombre_87-24" x1="188.96" y1="46.59" x2="376.57" y2="308.32" xlink:href="#Degradado_sin_nombre_87"/><linearGradient id="Degradado_sin_nombre_87-25" x1="209.61" y1="31.79" x2="397.22" y2="293.52" xlink:href="#Degradado_sin_nombre_87"/><linearGradient id="Degradado_sin_nombre_87-26" x1="200.69" y1="38.18" x2="388.3" y2="299.92" xlink:href="#Degradado_sin_nombre_87"/><linearGradient id="Degradado_sin_nombre_87-27" x1="195.5" y1="41.9" x2="383.12" y2="303.63" xlink:href="#Degradado_sin_nombre_87"/><linearGradient id="Degradado_sin_nombre_87-28" x1="135.65" y1="84.8" x2="323.27" y2="346.53" xlink:href="#Degradado_sin_nombre_87"/><linearGradient id="Degradado_sin_nombre_87-29" x1="139.37" y1="82.21" x2="326.99" y2="343.95" xlink:href="#Degradado_sin_nombre_87"/><linearGradient id="Degradado_sin_nombre_87-30" x1="108.42" y1="104.32" x2="296.03" y2="366.05" xlink:href="#Degradado_sin_nombre_87"/><linearGradient id="Degradado_sin_nombre_87-31" x1="162.23" y1="65.75" x2="349.84" y2="327.48" xlink:href="#Degradado_sin_nombre_87"/><linearGradient id="Degradado_sin_nombre_87-32" x1="163.96" y1="64.51" x2="351.57" y2="326.25" xlink:href="#Degradado_sin_nombre_87"/><linearGradient id="Degradado_sin_nombre_87-33" x1="101.72" y1="109.13" x2="289.33" y2="370.86" xlink:href="#Degradado_sin_nombre_87"/><linearGradient id="Degradado_sin_nombre_87-34" x1="109.58" y1="103.49" x2="297.19" y2="365.23" xlink:href="#Degradado_sin_nombre_87"/></defs><title>Tokenncoin Landing page Illustration_2_2</title><g class="cls-2"><g id="Layer_2" data-name="Layer 2"><g id="Layer_1-2" data-name="Layer 1"><ellipse class="cls-3" cx="211.46" cy="441.58" rx="34.13" ry="162.36" transform="translate(-254.08 593.18) rotate(-82.45)"/><ellipse class="cls-4" cx="189.04" cy="246.73" rx="250" ry="184.58" transform="translate(-95.93 370.85) rotate(-76.08)"/><path class="cls-5" d="M232.89,453.2,95.51,431.41A30.72,30.72,0,0,1,70,396.25L123.24,60.5A30.72,30.72,0,0,1,158.4,35L295.78,56.76a30.72,30.72,0,0,1,25.53,35.16L268.05,427.67A30.72,30.72,0,0,1,232.89,453.2Z"/><path class="cls-6" d="M158.4,35,295.78,56.76a30.72,30.72,0,0,1,25.53,35.16L268.05,427.67a30.72,30.72,0,0,1-35.16,25.53L95.51,431.41A30.72,30.72,0,0,1,70,396.25L123.24,60.5A30.72,30.72,0,0,1,158.4,35Z"/><path class="cls-7" d="M158.4,35,295.78,56.76a30.72,30.72,0,0,1,25.53,35.16L268.05,427.67a30.72,30.72,0,0,1-35.16,25.53L95.51,431.41A30.72,30.72,0,0,1,70,396.25L123.24,60.5A30.72,30.72,0,0,1,158.4,35Z"/><path class="cls-8" d="M231.81,447.68,98.25,426.49a27.43,27.43,0,0,1-22.8-31.39L128.09,63.28a27.44,27.44,0,0,1,31.39-22.8L293,61.67a27.44,27.44,0,0,1,22.8,31.39L263.2,424.89A27.44,27.44,0,0,1,231.81,447.68Z"/><path class="cls-9" d="M155.15,40.14v.94h0a26.67,26.67,0,0,1,4.18.33L292.9,62.6a26.5,26.5,0,0,1,22,30.32L262.27,424.74a26.35,26.35,0,0,1-26.13,22.35,26.89,26.89,0,0,1-4.19-.33L98.39,425.57a26.5,26.5,0,0,1-22-30.32L129,63.43a26.37,26.37,0,0,1,26.14-22.35v-.94m0,0a27.43,27.43,0,0,0-27.06,23.14L75.45,395.1a27.43,27.43,0,0,0,22.8,31.39l133.56,21.19a27.42,27.42,0,0,0,31.39-22.79L315.84,93.06A27.44,27.44,0,0,0,293,61.67L159.48,40.48a27.75,27.75,0,0,0-4.33-.34Z"/><g class="cls-10"><rect id="Rectangle_47" data-name="Rectangle 47" class="cls-11" x="8.51" y="157.38" width="374.28" height="173.09" transform="translate(-76.01 398.8) rotate(-80.95)"/><rect id="Rectangle_767" data-name="Rectangle 767" class="cls-12" x="212.19" y="20.52" width="10.59" height="173.2" transform="matrix(0.16, -0.99, 0.99, 0.16, 77.51, 305.06)"/><rect id="Rectangle_772" data-name="Rectangle 772" class="cls-13" x="202.41" y="61.88" width="16.58" height="172.74" transform="translate(31.17 333.02) rotate(-80.95)"/><rect id="Rectangle_771" data-name="Rectangle 771" class="cls-12" x="159.65" y="310.26" width="23.03" height="172.74" transform="translate(-247.44 503.3) rotate(-80.95)"/><rect id="Rectangle_761-2" data-name="Rectangle 761-2" class="cls-13" x="214.47" y="-18.38" width="18.43" height="173.2" transform="translate(121.14 278.39) rotate(-80.95)"/><g id="Group_884" data-name="Group 884"><g id="Group_356" data-name="Group 356"><path id="Path_1633" data-name="Path 1633" class="cls-14" d="M213.23,70.05l-.49-.08.49-3.11a2.49,2.49,0,0,1-.51.27,3.62,3.62,0,0,1-.56.17l.08-.47a3,3,0,0,0,.79-.36,1.89,1.89,0,0,0,.52-.46l.31,0Z"/><path id="Path_1634" data-name="Path 1634" class="cls-14" d="M214.78,68.29a3.56,3.56,0,0,1,.33-1.11,1.38,1.38,0,0,1,.53-.59,1.12,1.12,0,0,1,.76-.12,1.16,1.16,0,0,1,.54.21,1.12,1.12,0,0,1,.34.44,1.94,1.94,0,0,1,.15.63,3.77,3.77,0,0,1-.06,1,3.24,3.24,0,0,1-.32,1.1,1.4,1.4,0,0,1-.53.6,1.22,1.22,0,0,1-1.6-.44A2.72,2.72,0,0,1,214.78,68.29Zm.5.08a2.5,2.5,0,0,0,0,1.33.66.66,0,0,0,.85.38.6.6,0,0,0,.27-.2,2.48,2.48,0,0,0,.44-1.26,2.65,2.65,0,0,0,0-1.34.71.71,0,0,0-.52-.41.63.63,0,0,0-.58.2A2.63,2.63,0,0,0,215.28,68.37Z"/><path id="Path_1635" data-name="Path 1635" class="cls-14" d="M218.2,68.46l.08-.56.56.09-.09.56Zm-.37,2.32.08-.56.56.09-.09.56Z"/><path id="Path_1636" data-name="Path 1636" class="cls-14" d="M219.27,69.93l.49,0a1.12,1.12,0,0,0,.19.64.76.76,0,0,0,.47.26.75.75,0,0,0,.61-.15.79.79,0,0,0,.34-.55.73.73,0,0,0-.14-.59.77.77,0,0,0-.52-.31,2,2,0,0,0-.35,0l.12-.41h.08a1,1,0,0,0,.58-.07.55.55,0,0,0,.33-.46.53.53,0,0,0-.11-.47.62.62,0,0,0-.44-.25.64.64,0,0,0-.5.1.91.91,0,0,0-.33.5l-.47-.17a1.25,1.25,0,0,1,.53-.69,1.2,1.2,0,0,1,.83-.15,1.25,1.25,0,0,1,.57.24,1,1,0,0,1,.36.44,1,1,0,0,1,.06.54.85.85,0,0,1-.21.45,1,1,0,0,1-.46.27.92.92,0,0,1,.49.42,1,1,0,0,1,.09.67,1.17,1.17,0,0,1-.51.82,1.37,1.37,0,0,1-1,.21,1.27,1.27,0,0,1-.82-.45A1.18,1.18,0,0,1,219.27,69.93Z"/><path id="Path_1637" data-name="Path 1637" class="cls-14" d="M222.49,69.51a3.86,3.86,0,0,1,.32-1.1,1.43,1.43,0,0,1,.54-.6,1.1,1.1,0,0,1,.75-.12,1.17,1.17,0,0,1,.54.22,1,1,0,0,1,.34.44,2,2,0,0,1,.16.62,5.16,5.16,0,0,1-.06,1,3.58,3.58,0,0,1-.33,1.1,1.4,1.4,0,0,1-.53.6,1.21,1.21,0,0,1-1.59-.44A2.62,2.62,0,0,1,222.49,69.51Zm.5.08a2.44,2.44,0,0,0,0,1.34.66.66,0,0,0,.85.38.69.69,0,0,0,.28-.2,2.57,2.57,0,0,0,.43-1.26,2.44,2.44,0,0,0,0-1.34.68.68,0,0,0-.52-.41.62.62,0,0,0-.58.2A2.52,2.52,0,0,0,223,69.59Z"/><path id="Path_1638" data-name="Path 1638" class="cls-14" d="M226.56,72.17l2.16-3.73.56.09,1,4.23-.6-.1-.27-1.27-1.66-.27-.63,1.14ZM228,70.72l1.34.22-.24-1.17q-.1-.52-.15-.87a4.8,4.8,0,0,1-.33.73Z"/><path id="Path_1639" data-name="Path 1639" class="cls-14" d="M230.68,72.83l.63-4,.79.12.49,3c0,.28.08.48.1.62L233,72l1.39-2.6.71.11-.63,4-.51-.08.53-3.33-1.68,3.14-.48-.07-.61-3.56-.53,3.38Z"/></g><g id="Group_358" data-name="Group 358"><path id="_" data-name=" " class="cls-15" d="M147.79,57.78l.67.11a.34.34,0,0,1,.29.38h0l-.22,1.34a.34.34,0,0,1-.39.28h0l-.67-.1a.35.35,0,0,1-.28-.39h0l.21-1.35a.34.34,0,0,1,.39-.28Zm2.12-.35.68.11a.34.34,0,0,1,.28.39l-.32,2a.34.34,0,0,1-.39.28h0l-.67-.1a.35.35,0,0,1-.29-.39l.32-2a.35.35,0,0,1,.39-.28Zm2.16-.57.67.1a.35.35,0,0,1,.29.39l-.47,2.91a.35.35,0,0,1-.39.29l-.67-.11a.34.34,0,0,1-.28-.39h0l.46-2.91a.34.34,0,0,1,.39-.28Zm2.16-.58.67.11a.33.33,0,0,1,.28.39l-.6,3.8a.35.35,0,0,1-.39.29h0l-.67-.11a.35.35,0,0,1-.29-.39h0l.61-3.81a.34.34,0,0,1,.39-.28Z"/><g id="Group_357" data-name="Group 357"><path id="Path_1640" data-name="Path 1640" class="cls-14" d="M158.79,60.45a.21.21,0,0,0-.1.27l0,0,.61.85a.22.22,0,0,0,.13.08.19.19,0,0,0,.15,0l.85-.61a.28.28,0,0,0,.08-.15.23.23,0,0,0-.06-.16A1.55,1.55,0,0,0,158.79,60.45Z"/><path id="Path_1641" data-name="Path 1641" class="cls-14" d="M159.91,58.76a3.1,3.1,0,0,0-2.08.41.18.18,0,0,0-.09.13.23.23,0,0,0,0,.16l.33.45a.2.2,0,0,0,.27.06,2.11,2.11,0,0,1,1.39-.26,2.18,2.18,0,0,1,1.25.68.19.19,0,0,0,.12.07.21.21,0,0,0,.15,0l.45-.33a.16.16,0,0,0,.08-.14.2.2,0,0,0,0-.15A3.17,3.17,0,0,0,159.91,58.76Z"/><path id="Path_1642" data-name="Path 1642" class="cls-14" d="M163,58.9a4.62,4.62,0,0,0-6.09-1,.2.2,0,0,0-.09.13.22.22,0,0,0,0,.16l.34.46a.22.22,0,0,0,.13.08.32.32,0,0,0,.14,0,3.64,3.64,0,0,1,4.77.76.19.19,0,0,0,.27,0l.47-.33a.22.22,0,0,0,.08-.14A.21.21,0,0,0,163,58.9Z"/></g></g><g id="Group_883" data-name="Group 883"><g id="Group_355" data-name="Group 355"><path id="Path_1629" data-name="Path 1629" class="cls-14" d="M272.36,79.46l-.48-.08.49-3.1a2.45,2.45,0,0,1-.51.26,3.62,3.62,0,0,1-.56.17l.08-.47a3.28,3.28,0,0,0,.79-.35,1.87,1.87,0,0,0,.51-.46l.32,0Z"/><path id="Path_1630" data-name="Path 1630" class="cls-14" d="M273.92,77.7a3.64,3.64,0,0,1,.33-1.11,1.44,1.44,0,0,1,.53-.59,1.12,1.12,0,0,1,.76-.12,1.21,1.21,0,0,1,.54.22,1.1,1.1,0,0,1,.34.43,2.32,2.32,0,0,1,.15.63,3.77,3.77,0,0,1-.06,1,3.83,3.83,0,0,1-.32,1.11,1.4,1.4,0,0,1-.54.59,1.21,1.21,0,0,1-1.59-.43A2.62,2.62,0,0,1,273.92,77.7Zm.5.08a2.65,2.65,0,0,0,0,1.34.67.67,0,0,0,.86.38.66.66,0,0,0,.27-.2A2.52,2.52,0,0,0,276,78a2.64,2.64,0,0,0,0-1.34.7.7,0,0,0-.52-.42.65.65,0,0,0-.58.2,2.7,2.7,0,0,0-.47,1.3Z"/><path id="Path_1631" data-name="Path 1631" class="cls-14" d="M277,78.19a3.36,3.36,0,0,1,.32-1.11,1.4,1.4,0,0,1,.54-.59,1.09,1.09,0,0,1,.75-.12,1.17,1.17,0,0,1,.54.22,1,1,0,0,1,.34.43,2,2,0,0,1,.15.63,3.88,3.88,0,0,1-.06,1,3.31,3.31,0,0,1-.32,1.1,1.53,1.53,0,0,1-.53.6,1.25,1.25,0,0,1-1.6-.44A2.69,2.69,0,0,1,277,78.19Zm.5.08a2.44,2.44,0,0,0,0,1.34.66.66,0,0,0,.85.38.6.6,0,0,0,.27-.2,3.83,3.83,0,0,0,.42-2.6.68.68,0,0,0-.52-.41A.63.63,0,0,0,278,77a2.59,2.59,0,0,0-.46,1.3Z"/><path id="Path_1632" data-name="Path 1632" class="cls-14" d="M280.35,77.64a1.21,1.21,0,0,1,.33-.69.73.73,0,0,1,.66-.2.85.85,0,0,1,.58.37,1.39,1.39,0,0,1-.25,1.56.82.82,0,0,1-.66.17.75.75,0,0,1-.55-.36A1.19,1.19,0,0,1,280.35,77.64Zm.95-.55a.35.35,0,0,0-.32.11,1.05,1.05,0,0,0-.22.56,1,1,0,0,0,0,.56.38.38,0,0,0,.5.17l.11-.08a1.09,1.09,0,0,0,.21-.55,1,1,0,0,0,0-.56.38.38,0,0,0-.28-.21Zm-.61,3.85,2.84-3.84.39.07L281.1,81Zm1.89-.81a1.21,1.21,0,0,1,.33-.69.74.74,0,0,1,.67-.19.79.79,0,0,1,.57.36,1.1,1.1,0,0,1,.12.83,1.06,1.06,0,0,1-.37.73.81.81,0,0,1-1.21-.19,1.19,1.19,0,0,1-.11-.85Zm1-.55a.4.4,0,0,0-.33.11,1,1,0,0,0-.21.56.9.9,0,0,0,0,.56.41.41,0,0,0,.28.2.38.38,0,0,0,.33-.11.94.94,0,0,0,.21-.55.89.89,0,0,0,0-.56.4.4,0,0,0-.28-.21Z"/></g><g id="Group_359" data-name="Group 359"><rect id="Rectangle_359" data-name="Rectangle 359" class="cls-14" x="289.96" y="76.02" width="3.81" height="9.07" rx="0.13" transform="matrix(0.16, -0.99, 0.99, 0.16, 166.42, 356.12)"/><path id="Path_1643" data-name="Path 1643" class="cls-16" d="M296.07,84.15l-9.32-1.48a.93.93,0,0,1-.77-1l.62-3.9a.94.94,0,0,1,1.06-.77L297,78.44a.93.93,0,0,1,.77,1l-.62,3.9A.93.93,0,0,1,296.07,84.15Zm-8.47-6.8a.52.52,0,0,0-.6.43l-.62,3.9a.52.52,0,0,0,.43.6h0l9.32,1.48a.53.53,0,0,0,.6-.43l.62-3.9a.53.53,0,0,0-.44-.6Z"/><path id="Path_1644" data-name="Path 1644" class="cls-17" d="M298.31,80.26l-.41,2.58a1.31,1.31,0,0,0,1.49-1.09,1.29,1.29,0,0,0-1.08-1.49Z"/></g></g></g><g id="Cryptocurrencies:_2980_Markets:_20890_Market_Cap:_227_003_574_80" data-name="Cryptocurrencies: 2980 Markets: 20890 Market Cap: 227 003 574 80" class="cls-2"><text class="cls-18" transform="matrix(0.99, 0.16, -0.16, 0.99, 134.44, 95.53)">C<tspan class="cls-19" x="3.43" y="0">r</tspan><tspan x="5.59" y="0">yptocur</tspan><tspan class="cls-20" x="23.17" y="0">r</tspan><tspan x="24.89" y="0">encies</tspan></text><text class="cls-21" transform="matrix(0.99, 0.16, -0.16, 0.99, 173.11, 101.69)">: 2980 | </text><text class="cls-18" transform="matrix(0.99, 0.16, -0.16, 0.99, 191.29, 104.58)">Markets:</text><text class="cls-21" transform="matrix(0.99, 0.16, -0.16, 0.99, 210.47, 107.63)"><tspan xml:space="preserve"> 20890 | </tspan></text><text class="cls-18" transform="matrix(0.99, 0.16, -0.16, 0.99, 230.25, 110.78)">Market Cap:</text><text class="cls-21" transform="matrix(0.99, 0.16, -0.16, 0.99, 257.95, 115.19)"><tspan xml:space="preserve"> $227,003,574,80</tspan></text></g><rect id="Rectangle_774-2" data-name="Rectangle 774-2" class="cls-12" x="205.02" y="45.5" width="16.58" height="172.74" transform="translate(49.54 321.8) rotate(-80.95)"/><rect id="Rectangle_768" data-name="Rectangle 768" class="cls-22" x="162.1" y="81.35" width="17.5" height="86.6" transform="translate(20.89 273.77) rotate(-80.95)"/><rect id="Rectangle_769" data-name="Rectangle 769" class="cls-13" x="247.39" y="95.16" width="17.5" height="86.14" transform="translate(79.37 369.45) rotate(-80.95)"/><g id="Group_885" data-name="Group 885"><rect id="Rectangle_763" data-name="Rectangle 763" class="cls-23" x="147.94" y="74.01" width="0.92" height="8.29" transform="translate(47.88 212.43) rotate(-80.95)"/><rect id="Rectangle_765" data-name="Rectangle 765" class="cls-23" x="148.37" y="71.29" width="0.92" height="8.29" transform="translate(50.94 210.55) rotate(-80.95)"/><rect id="Rectangle_764" data-name="Rectangle 764" class="cls-23" x="147.5" y="76.74" width="0.92" height="8.29" transform="translate(44.82 214.3) rotate(-80.95)"/></g><g id="Group_861" data-name="Group 861"><g id="Group_857" data-name="Group 857"><g id="Group_856" data-name="Group 856"><g id="Group_855" data-name="Group 855"><g id="Group_854" data-name="Group 854"><g id="Group_853" data-name="Group 853"><g id="Group_852" data-name="Group 852"><g id="Group_851" data-name="Group 851"><g id="Group_850" data-name="Group 850"><g id="Group_849" data-name="Group 849"><path id="Path_4400" data-name="Path 4400" class="cls-24" d="M172.79,84.34l-.38,1.29-.69-.11a1.8,1.8,0,0,1-1.24-.64,1.66,1.66,0,0,1-.07-1.49l.53-1.8-.67-.11.37-1.26.68.11.35-1.21,1.54.25-.36,1.2,1,.16L173.48,82l-1-.16-.54,1.83a.39.39,0,0,0,.38.6Z"/><path id="Path_4401" data-name="Path 4401" class="cls-25" d="M178.1,81.66a1.88,1.88,0,0,1,.66,1,2.53,2.53,0,0,1-.06,1.39,2.94,2.94,0,0,1-.73,1.28,2.8,2.8,0,0,1-1.18.73,3.11,3.11,0,0,1-1.42.09,2.57,2.57,0,0,1-1.25-.52,1.82,1.82,0,0,1-.67-1,2.53,2.53,0,0,1,.06-1.39,3.15,3.15,0,0,1,.73-1.28,2.83,2.83,0,0,1,1.19-.73,3.14,3.14,0,0,1,1.43-.09A2.58,2.58,0,0,1,178.1,81.66Zm-2.46,1a1.51,1.51,0,0,0-.57.85,1.14,1.14,0,0,0,0,.94.87.87,0,0,0,.65.43,1.09,1.09,0,0,0,.82-.19,1.56,1.56,0,0,0,.57-.85,1.21,1.21,0,0,0,0-.95.92.92,0,0,0-.65-.43,1.17,1.17,0,0,0-.83.2Z"/><path id="Path_4402" data-name="Path 4402" class="cls-26" d="M181.58,87.09l-.88-2.32-.62,2.08-1.53-.24,1.93-6.5,1.53.24-1,3.57L183,82.19l1.8.29-2.75,2.12,1.34,2.78Z"/><path id="Path_4403" data-name="Path 4403" class="cls-27" d="M189.12,86l-3.48-.55a1.07,1.07,0,0,0,.06.84.82.82,0,0,0,.59.34,1,1,0,0,0,.61-.07,1,1,0,0,0,.43-.39l1.62.26a2.55,2.55,0,0,1-.7.86,2.88,2.88,0,0,1-2.25.56,2.56,2.56,0,0,1-1.21-.51,1.83,1.83,0,0,1-.63-1,2.59,2.59,0,0,1,.07-1.38,3.16,3.16,0,0,1,.72-1.29,2.64,2.64,0,0,1,1.15-.73,3,3,0,0,1,1.4-.09,2.48,2.48,0,0,1,1.22.5,1.84,1.84,0,0,1,.63,1,2.57,2.57,0,0,1-.06,1.29A2.83,2.83,0,0,1,189.12,86Zm-1.37-1.64a.93.93,0,0,0-.61-.35,1.1,1.1,0,0,0-.77.14,1.22,1.22,0,0,0-.53.67l2,.31a.84.84,0,0,0-.05-.77Z"/><path id="Path_4404" data-name="Path 4404" class="cls-28" d="M194.94,84.62a2.12,2.12,0,0,1,0,1.62l-.84,2.85-1.54-.24.8-2.67a1,1,0,0,0,0-.81.77.77,0,0,0-.62-.39,1.06,1.06,0,0,0-.83.17,1.39,1.39,0,0,0-.52.78l-.77,2.6-1.53-.24,1.45-4.9,1.54.24-.27.9a2.13,2.13,0,0,1,.85-.6,2.16,2.16,0,0,1,1.07-.09A1.54,1.54,0,0,1,194.94,84.62Z"/><path id="Path_4405" data-name="Path 4405" class="cls-29" d="M200.77,85.55a2.12,2.12,0,0,1,0,1.62L200,90l-1.53-.25.79-2.66a1.06,1.06,0,0,0,0-.82.82.82,0,0,0-.63-.38,1,1,0,0,0-.82.17,1.39,1.39,0,0,0-.52.78l-.77,2.6-1.53-.25,1.45-4.89,1.53.24-.26.9a2,2,0,0,1,.84-.6,2.21,2.21,0,0,1,1.08-.09A1.54,1.54,0,0,1,200.77,85.55Z"/><path id="Path_4406" data-name="Path 4406" class="cls-30" d="M206,86.32a2.06,2.06,0,0,1,.39,1.57l-1.62-.26a.72.72,0,0,0-.15-.53.78.78,0,0,0-.51-.27,1,1,0,0,0-.76.21,1.65,1.65,0,0,0-.53.86,1.35,1.35,0,0,0,0,.95.72.72,0,0,0,.57.42,1,1,0,0,0,.62-.08,1.06,1.06,0,0,0,.44-.45L206,89a2.77,2.77,0,0,1-3,1.57,2.46,2.46,0,0,1-1.21-.51,1.83,1.83,0,0,1-.63-1,2.59,2.59,0,0,1,.07-1.38,3.05,3.05,0,0,1,.72-1.29,2.64,2.64,0,0,1,1.15-.73,3,3,0,0,1,1.4-.09A2.28,2.28,0,0,1,206,86.32Z"/><path id="Path_4407" data-name="Path 4407" class="cls-31" d="M211.1,86.91a2,2,0,0,1,.67,1,2.62,2.62,0,0,1-.06,1.39,3,3,0,0,1-.74,1.29,2.81,2.81,0,0,1-1.18.72,3.11,3.11,0,0,1-1.42.09,2.64,2.64,0,0,1-1.25-.51,2,2,0,0,1-.67-1,2.53,2.53,0,0,1,.06-1.39,3.16,3.16,0,0,1,.74-1.29,2.81,2.81,0,0,1,1.18-.72,3.15,3.15,0,0,1,1.43-.09A2.67,2.67,0,0,1,211.1,86.91Zm-2.46,1a1.56,1.56,0,0,0-.57.85,1.21,1.21,0,0,0,0,1,.88.88,0,0,0,.65.42,1.11,1.11,0,0,0,.83-.19,1.49,1.49,0,0,0,.56-.85,1.18,1.18,0,0,0,0-.94.83.83,0,0,0-.64-.43,1.13,1.13,0,0,0-.84.19Z"/><path id="Path_4408" data-name="Path 4408" class="cls-32" d="M214.54,87.21l-1.45,4.9-1.54-.25L213,87ZM213.69,85a1.09,1.09,0,0,1,.73-.11.85.85,0,0,1,.6.33.67.67,0,0,1,.08.6.85.85,0,0,1-.41.52,1.1,1.1,0,0,1-.73.12.83.83,0,0,1-.6-.33.68.68,0,0,1-.09-.6,1,1,0,0,1,.42-.53Z"/><path id="Path_4409" data-name="Path 4409" class="cls-33" d="M219.77,88.57a2.14,2.14,0,0,1,0,1.63L219,93l-1.53-.24.79-2.67a1,1,0,0,0,0-.81.79.79,0,0,0-.62-.39,1.15,1.15,0,0,0-.83.17,1.39,1.39,0,0,0-.52.78l-.77,2.6-1.53-.24,1.45-4.9,1.54.24-.27.9a2,2,0,0,1,.85-.59,2.05,2.05,0,0,1,1.07-.1A1.56,1.56,0,0,1,219.77,88.57Z"/></g></g></g></g></g></g></g></g></g><g id="Group_858" data-name="Group 858"><path id="Path_4410" data-name="Path 4410" class="cls-34" d="M166.27,82V82a4.32,4.32,0,0,0-.15-1v0a5.82,5.82,0,0,1-4.38,3.47l-.31,0h-.25a2.9,2.9,0,0,1-2.85-4v0c0-.11,0-.22-.08-.33h0c0,.12-.08.23-.11.35-.75,2.67.8,4.83,3.46,4.83a5.85,5.85,0,0,0,1.5-.22l.39-.13A7.09,7.09,0,0,0,166,83.35h0a1.08,1.08,0,0,0,.08-.19A3,3,0,0,0,166.27,82Z"/><path id="Path_4411" data-name="Path 4411" class="cls-35" d="M164.32,75.62a5.74,5.74,0,0,0-1.59.25V76a5.52,5.52,0,0,1,1.19.54,2.75,2.75,0,0,1,2.52,2.7,5.34,5.34,0,0,1,.63,2.45c0,.14,0,.29,0,.44a6.21,6.21,0,0,0,.74-1.64C168.54,77.78,167,75.62,164.32,75.62Z"/><path id="Path_4412" data-name="Path 4412" class="cls-36" d="M166,84.5l.08-.06.06,0,.07-.06.06-.06.06-.06.06-.06.06-.07.06-.07,0-.07.06-.08.06-.08.08-.13a.21.21,0,0,1,0-.06.41.41,0,0,1,0-.09l0-.07a.93.93,0,0,1,.05-.1l0-.07a.69.69,0,0,0,0-.1l0-.08a.51.51,0,0,0,0-.1s0,0,0-.08l0-.1a.31.31,0,0,0,0-.08l0-.11a.29.29,0,0,1,0-.09l0-.11v-.08a.57.57,0,0,0,0-.13.19.19,0,0,0,0-.08.61.61,0,0,0,0-.14.15.15,0,0,0,0-.07V81.7a6.2,6.2,0,0,0-1.9-4.24,1.88,1.88,0,0,0-.25-.24,6.09,6.09,0,0,0-2.44-1.4,3.75,3.75,0,0,0-3.24.43,3.06,3.06,0,0,0-.56.52,4.07,4.07,0,0,0-.33.48,3.57,3.57,0,0,0-.39,1.18,3.82,3.82,0,0,0-.06.68h0c0,.08,0,.15,0,.23v0a6.51,6.51,0,0,0,2.2,4.27h0a5.94,5.94,0,0,0,1.08.78l.31,0a5,5,0,0,1-1-.68h0a5.55,5.55,0,0,1-1.7-2.7v0s0-.06,0-.09a.13.13,0,0,1,0-.06.19.19,0,0,1,0-.08s0,0,0-.08a.11.11,0,0,0,0-.06.59.59,0,0,0,0-.14v0a.38.38,0,0,1,0-.1V80a3.52,3.52,0,0,1,0-.56c0-.13.05-.25.08-.37a2.61,2.61,0,0,1,.63-1.11,2.58,2.58,0,0,1,1.55-.79l.35,0a.54.54,0,0,1,.18,0,3.53,3.53,0,0,1,.56,0l.38.09a5.48,5.48,0,0,1,3.41,3.11,4.79,4.79,0,0,1,.21.57c0,.06,0,.13.05.19s.06.26.08.39a3.9,3.9,0,0,1,0,.59v.22a.41.41,0,0,0,0,.11s0,0,0,.07a.28.28,0,0,1,0,.09.17.17,0,0,1,0,.07v.08a.64.64,0,0,1,0,.07s0,0,0,.08a.19.19,0,0,0,0,.07l0,.07a.24.24,0,0,0,0,.08.14.14,0,0,0,0,.06l0,.08a.14.14,0,0,0,0,.06l0,.08,0,0,0,.08,0,0a.59.59,0,0,1,0,.08l0,0a.59.59,0,0,1,0,.08l0,0-.05.08,0,0-.07.09v0l-.07.09h0a2.71,2.71,0,0,1-2.09.86h-.23a2.91,2.91,0,0,1-.39.12c.2,0,.39.07.59.09h.8l.12,0h.06l.12,0,0,0,.13,0h0a3.52,3.52,0,0,0,.42-.15h0l.1-.05.06,0,.09-.05.06,0,.09,0,.06,0,.08-.06Z"/></g><g id="Group_860" data-name="Group 860"><g id="Group_859" data-name="Group 859"><path id="Path_4413" data-name="Path 4413" class="cls-37" d="M162.37,81.85a.56.56,0,0,0,.34,0,1.59,1.59,0,0,0,.35-.22l.65.91a2.22,2.22,0,0,1-1.88.51,1.87,1.87,0,0,1-.65-.23,1.15,1.15,0,0,1-.4-.42,1,1,0,0,1-.15-.57,2.09,2.09,0,0,1,.15-.71l.34-.94,1.39.22-.35,1a.5.5,0,0,0,0,.36A.28.28,0,0,0,162.37,81.85Zm.53-2.57-1.38-.22.37-1,1.38.22Z"/><path id="Path_4414" data-name="Path 4414" class="cls-37" d="M163.89,80.57l.39-1.07-1.38-.22-.4,1.07Z"/></g></g></g><rect id="Rectangle_770" data-name="Rectangle 770" class="cls-12" x="157.13" y="331.6" width="20.73" height="173.2" transform="translate(-271.84 517.86) rotate(-80.95)"/><g id="Cryptocurrencies" class="cls-2"><text class="cls-38" transform="matrix(0.99, 0.16, -0.16, 0.99, 139.1, 121.92)">C<tspan class="cls-39" x="4.28" y="0">R</tspan><tspan x="8.28" y="0">YP</tspan><tspan class="cls-40" x="15.97" y="0">T</tspan><tspan x="19.27" y="0">OCURRENCIES</tspan></text></g><g id="Top_Gainers" data-name="Top Gainers" class="cls-2"><text class="cls-41" transform="matrix(0.99, 0.16, -0.16, 0.99, 131.49, 137.97)"><tspan class="cls-42">T</tspan><tspan x="2.12" y="0">op Gaine</tspan><tspan class="cls-43" x="24.89" y="0">r</tspan><tspan x="26.92" y="0">s</tspan></text></g><g id="By_Rank" data-name="By Rank" class="cls-2"><text class="cls-44" transform="matrix(0.99, 0.16, -0.16, 0.99, 221.6, 152.32)">By Rank</text></g><g id="Top_Losers" data-name="Top Losers" class="cls-2"><text class="cls-41" transform="matrix(0.99, 0.16, -0.16, 0.99, 175.75, 145.02)"><tspan class="cls-42">T</tspan><tspan x="2.12" y="0">op Lose</tspan><tspan class="cls-43" x="21.92" y="0">r</tspan><tspan x="23.96" y="0">s</tspan></text></g><g id="Alphabet" class="cls-2"><text class="cls-41" transform="matrix(0.99, 0.16, -0.16, 0.99, 263.21, 158.94)">Alphabet</text></g><g id="EXCHANGE" class="cls-2"><text class="cls-38" transform="matrix(0.99, 0.16, -0.16, 0.99, 239.18, 137.86)">E<tspan class="cls-45" x="3.5" y="0">X</tspan><tspan x="7.49" y="0">CHANGE</tspan></text></g><g id="Group_887" data-name="Group 887"><rect id="Rectangle_763-2" data-name="Rectangle 763-2" class="cls-46" x="116.27" y="410.13" width="6.91" height="0.92" transform="translate(-304.58 464.28) rotate(-80.95)"/><rect id="Rectangle_765-2" data-name="Rectangle 765-2" class="cls-46" x="119" y="410.57" width="6.91" height="0.92" transform="matrix(0.16, -0.99, 0.99, 0.16, -302.71, 467.34)"/><rect id="Rectangle_764-2" data-name="Rectangle 764-2" class="cls-46" x="113.55" y="409.7" width="6.91" height="0.92" transform="matrix(0.16, -0.99, 0.99, 0.16, -306.45, 461.22)"/></g><g id="Rectangle_773" data-name="Rectangle 773"><rect class="cls-1" x="164.27" y="414.78" width="6.91" height="6.91" rx="2.3" transform="matrix(0.16, -0.99, 0.99, 0.16, -271.68, 518.11)"/><rect class="cls-47" x="164.61" y="415.12" width="6.22" height="6.22" rx="1.96" transform="translate(-271.68 518.11) rotate(-80.95)"/></g><path id="Path_4430" data-name="Path 4430" class="cls-47" d="M219.14,423.32l-3.62,2.58,2.66,3.53"/><rect id="Rectangle_777-2" data-name="Rectangle 777-2" class="cls-48" x="209.21" y="69.84" width="0.46" height="172.74" transform="translate(22.24 338.48) rotate(-80.95)"/><rect id="Rectangle_781" data-name="Rectangle 781" class="cls-49" x="230.81" y="138" width="0.46" height="43.3" transform="translate(37.05 362.72) rotate(-80.95)"/><rect id="Rectangle_782" data-name="Rectangle 782" class="cls-48" x="205.21" y="95.66" width="0.23" height="172.74" transform="translate(-6.72 356.18) rotate(-80.95)"/><rect id="Rectangle_789" data-name="Rectangle 789" class="cls-48" x="189.57" y="193.92" width="0.23" height="172.74" transform="translate(-116.94 423.54) rotate(-80.95)"/><rect id="Rectangle_785" data-name="Rectangle 785" class="cls-48" x="197.39" y="144.79" width="0.23" height="172.74" transform="translate(-61.83 389.86) rotate(-80.95)"/><rect id="Rectangle_787" data-name="Rectangle 787" class="cls-48" x="181.75" y="243.05" width="0.23" height="172.74" transform="translate(-172.05 457.22) rotate(-80.95)"/><rect id="Rectangle_783" data-name="Rectangle 783" class="cls-48" x="201.3" y="120.22" width="0.23" height="172.74" transform="translate(-34.27 373.02) rotate(-80.95)"/><rect id="Rectangle_788" data-name="Rectangle 788" class="cls-48" x="185.66" y="218.48" width="0.23" height="172.74" transform="translate(-144.49 440.38) rotate(-80.95)"/><rect id="Rectangle_784" data-name="Rectangle 784" class="cls-48" x="193.48" y="169.35" width="0.23" height="172.74" transform="translate(-89.38 406.7) rotate(-80.95)"/><rect id="Rectangle_786" data-name="Rectangle 786" class="cls-48" x="177.84" y="267.61" width="0.23" height="172.74" transform="translate(-199.6 474.06) rotate(-80.95)"/><rect id="Rectangle_790" data-name="Rectangle 790" class="cls-48" x="173.93" y="292.18" width="0.23" height="172.74" transform="translate(-227.16 490.9) rotate(-80.95)"/><g id="_1" data-name=" 1" class="cls-2"><text class="cls-38" transform="matrix(0.99, 0.16, -0.16, 0.99, 128.85, 159.94)">1</text></g><g id="Bitcoin" class="cls-2"><text class="cls-50" transform="matrix(0.99, 0.16, -0.16, 0.99, 162.04, 162.42)">Bitcoin</text></g><g id="_30_653.85" data-name=" 30 653.85" class="cls-2"><text class="cls-51" transform="matrix(0.99, 0.16, -0.16, 0.99, 252.91, 176.89)">30,653.85</text></g><g id="BTC" class="cls-2"><text class="cls-52" transform="matrix(0.99, 0.16, -0.16, 0.99, 161.41, 169.32)">B<tspan class="cls-53" x="2.32" y="0">T</tspan><tspan class="cls-54" x="4.44" y="0">C</tspan></text></g><g id="_-0.05" data-name=" -0.05" class="cls-2"><text class="cls-55" transform="matrix(0.99, 0.16, -0.16, 0.99, 175.05, 171.49)">-0.05</text></g><g id="MCap_551.6B" data-name="MCap 551.6B" class="cls-2"><text class="cls-56" transform="matrix(0.99, 0.16, -0.16, 0.99, 262.18, 185.36)">MCap </text><text class="cls-56" transform="matrix(0.99, 0.16, -0.16, 0.99, 273.05, 187.09)">551.6B</text></g><path id="Polygon_1" data-name="Polygon 1" class="cls-57" d="M171.87,171l-1.39-3,3.64.58Z"/><g id="Group_890" data-name="Group 890"><path id="Path_4431" data-name="Path 4431" class="cls-58" d="M156.16,162.88a4.63,4.63,0,1,1-2.45-6.08,4.62,4.62,0,0,1,2.45,6.08Z"/><path id="Path_4432" data-name="Path 4432" class="cls-14" d="M154,160.73c.19-.59-.22-1-.82-1.31l.34-.8-.48-.2-.33.77-.39-.16.33-.77-.48-.21-.34.79-.31-.12h0l-.67-.28-.22.52.35.14a.27.27,0,0,1,.19.33l-.39.91.05,0-.05,0-.54,1.26a.18.18,0,0,1-.24.09h0l-.34-.15-.35.53.63.27.35.15-.34.8.48.2.33-.79.39.17-.34.79.48.2.34-.8c.83.3,1.49.34,1.88-.39a.9.9,0,0,0-.2-1.25l-.07,0a.82.82,0,0,0,.76-.64Zm-1.4,1.43c-.26.6-1.25.09-1.58,0l.45-1.06c.33.14,1.39.48,1.13,1.11Zm.41-1.59c-.23.54-1.06.11-1.33,0l.41-1c.27.11,1.16.39.92,1Z"/></g><g id="_6" data-name=" 6" class="cls-2"><text class="cls-38" transform="matrix(0.99, 0.16, -0.16, 0.99, 109.29, 282.76)">6</text></g><g id="Litecoin" class="cls-2"><text class="cls-50" transform="matrix(0.99, 0.16, -0.16, 0.99, 142.48, 285.25)">Litecoin</text></g><g id="_207.85" data-name=" 207.85" class="cls-2"><text class="cls-51" transform="matrix(0.99, 0.16, -0.16, 0.99, 243.58, 301.34)">207.85</text></g><g id="BTC-2" class="cls-2"><text class="cls-52" transform="matrix(0.99, 0.16, -0.16, 0.99, 141.85, 292.14)">B<tspan class="cls-53" x="2.32" y="0">T</tspan><tspan class="cls-54" x="4.44" y="0">C</tspan></text></g><g id="_-0.92" data-name=" -0.92" class="cls-2"><text class="cls-55" transform="matrix(0.99, 0.16, -0.16, 0.99, 155.5, 294.32)">-0.92</text></g><g id="MCap_13.2B" data-name="MCap 13.2B" class="cls-2"><text class="cls-56" transform="matrix(0.99, 0.16, -0.16, 0.99, 244.66, 308.51)">MCap </text><text class="cls-56" transform="matrix(0.99, 0.16, -0.16, 0.99, 255.53, 310.24)">13.2B</text></g><path id="Polygon_1-2" data-name="Polygon 1-2" class="cls-57" d="M152.31,293.81l-1.38-3,3.64.58Z"/><g id="Group_890-2" data-name="Group 890-2"><path id="Path_4431-2" data-name="Path 4431-2" class="cls-58" d="M136.61,285.7a4.64,4.64,0,1,1-2.45-6.08,4.63,4.63,0,0,1,2.45,6.08Z"/><path id="Path_4432-2" data-name="Path 4432-2" class="cls-14" d="M134.47,283.56c.19-.6-.22-1-.82-1.32l.33-.79-.48-.21-.33.77-.38-.15.33-.78-.48-.21-.34.8-.31-.13h0l-.66-.29-.22.52a3.68,3.68,0,0,1,.35.15.26.26,0,0,1,.18.33l-.38.9.05,0-.05,0-.54,1.27a.19.19,0,0,1-.25.08h0l-.35-.15-.34.54.63.26.34.15-.34.8.48.21.34-.79.38.16-.33.79.48.21.34-.8c.83.3,1.48.33,1.88-.4a.88.88,0,0,0-.2-1.24l-.07-.05a.82.82,0,0,0,.76-.64ZM133.06,285c-.25.6-1.25.1-1.57,0l.45-1.06c.32.14,1.39.48,1.12,1.1Zm.42-1.59c-.23.54-1.06.12-1.33,0l.41-1c.27.11,1.16.39.92,1Z"/></g><g id="_2" data-name=" 2" class="cls-2"><text class="cls-38" transform="matrix(0.99, 0.16, -0.16, 0.99, 124.94, 184.5)">2</text></g><g id="Ethereum" class="cls-2"><text class="cls-50" transform="matrix(0.99, 0.16, -0.16, 0.99, 158.13, 186.99)">Ethereum</text></g><g id="_680.60" data-name=" 680.60" class="cls-2"><text class="cls-59" transform="matrix(0.99, 0.16, -0.16, 0.99, 259.04, 203.05)">680.60</text></g><g id="ETH" class="cls-2"><text class="cls-60" transform="matrix(0.99, 0.16, -0.16, 0.99, 157.49, 193.88)">ETH</text></g><g id="_0.71" data-name=" 0.71" class="cls-2"><text class="cls-55" transform="matrix(0.99, 0.16, -0.16, 0.99, 171.6, 196.13)">0.71</text></g><g id="MCap_73.6B" data-name="MCap 73.6B" class="cls-2"><text class="cls-56" transform="matrix(0.99, 0.16, -0.16, 0.99, 260.3, 210.25)">MCap </text><text class="cls-56" transform="matrix(0.99, 0.16, -0.16, 0.99, 271.18, 211.98)">73.6B</text></g><path id="Polygon_1-3" data-name="Polygon 1-3" class="cls-61" d="M164.48,217.39l1.39,3-3.64-.57Z"/><g id="Group_890-3" data-name="Group 890-3"><path id="Path_4431-3" data-name="Path 4431-3" class="cls-58" d="M152.25,187.44a4.63,4.63,0,1,1-2.45-6.08,4.63,4.63,0,0,1,2.45,6.08Z"/><path id="Path_4432-3" data-name="Path 4432-3" class="cls-14" d="M150.11,185.3c.19-.6-.22-1-.82-1.32l.34-.79-.48-.21-.33.78-.39-.16.33-.78-.48-.2-.34.79-.31-.13h0L147,183l-.22.51.35.15a.28.28,0,0,1,.19.33l-.39.9,0,0,0,0-.54,1.27a.17.17,0,0,1-.24.08h0l-.35-.15-.34.54.63.26c.12.05.23.11.35.15l-.35.8.48.21.34-.79.39.16-.34.79.48.21.34-.8c.83.3,1.49.33,1.88-.4a.88.88,0,0,0-.2-1.24.18.18,0,0,0-.07,0,.81.81,0,0,0,.76-.63Zm-1.4,1.42c-.26.6-1.25.1-1.58,0l.45-1.06c.33.14,1.39.48,1.13,1.1Zm.41-1.59c-.23.55-1.06.12-1.33,0l.41-1c.27.11,1.16.39.92,1Z"/></g><g id="_7" data-name=" 7" class="cls-2"><text class="cls-38" transform="matrix(0.99, 0.16, -0.16, 0.99, 105.38, 307.33)">7</text></g><g id="EOS" class="cls-2"><text class="cls-50" transform="matrix(0.99, 0.16, -0.16, 0.99, 138.57, 309.81)">EOS</text></g><g id="_11.51" data-name=" 11.51" class="cls-2"><text class="cls-62" transform="matrix(0.99, 0.16, -0.16, 0.99, 246.98, 327.07)">11.51</text></g><g id="BTC-3" class="cls-2"><text class="cls-52" transform="matrix(0.99, 0.16, -0.16, 0.99, 137.94, 316.71)">B<tspan class="cls-53" x="2.32" y="0">T</tspan><tspan class="cls-54" x="4.44" y="0">C</tspan></text></g><g id="_-0.79" data-name=" -0.79" class="cls-2"><text class="cls-55" transform="matrix(0.99, 0.16, -0.16, 0.99, 151.59, 318.88)">-0.79</text></g><g id="MCap_10.8B" data-name="MCap 10.8B" class="cls-2"><text class="cls-56" transform="matrix(0.99, 0.16, -0.16, 0.99, 240.75, 333.08)">MCap </text><text class="cls-56" transform="matrix(0.99, 0.16, -0.16, 0.99, 251.62, 334.81)">10.8B</text></g><path id="Polygon_1-4" data-name="Polygon 1-4" class="cls-57" d="M148.4,318.37l-1.38-3,3.64.58Z"/><g id="Group_890-4" data-name="Group 890-4"><path id="Path_4431-4" data-name="Path 4431-4" class="cls-58" d="M132.7,310.27a4.64,4.64,0,1,1-2.45-6.08,4.63,4.63,0,0,1,2.45,6.08Z"/><path id="Path_4432-4" data-name="Path 4432-4" class="cls-14" d="M130.56,308.12c.19-.59-.23-1-.83-1.31l.34-.8-.48-.2-.33.77-.38-.16.33-.78-.48-.2-.34.79-.31-.13h0l-.67-.28-.21.51.35.15a.27.27,0,0,1,.18.33l-.38.9.05,0-.05,0-.54,1.26a.2.2,0,0,1-.25.09h0l-.35-.15-.34.53.63.27.34.15-.34.8.48.2.34-.79.38.17-.33.79.48.2.34-.8c.83.3,1.48.34,1.88-.39a.9.9,0,0,0-.2-1.25l-.07-.05a.8.8,0,0,0,.76-.63Zm-1.41,1.43c-.25.6-1.25.09-1.57-.05l.45-1.06c.32.14,1.39.48,1.12,1.11Zm.42-1.6c-.23.55-1.06.12-1.34,0l.41-1c.28.12,1.17.4.93,1Z"/></g><g id="_4" data-name=" 4" class="cls-2"><text class="cls-38" transform="matrix(0.99, 0.16, -0.16, 0.99, 117.12, 233.63)">4</text></g><g id="Tether" class="cls-2"><text class="cls-50" transform="matrix(0.99, 0.16, -0.16, 0.99, 150.3, 236.12)"><tspan class="cls-63">T</tspan><tspan x="3.14" y="0">ether</tspan></text></g><g id="_3.69" data-name=" 3.69" class="cls-2"><text class="cls-51" transform="matrix(0.99, 0.16, -0.16, 0.99, 259.44, 253.49)">3.69</text></g><g id="BTC-4" class="cls-2"><text class="cls-52" transform="matrix(0.99, 0.16, -0.16, 0.99, 149.67, 243.01)">B<tspan class="cls-53" x="2.32" y="0">T</tspan><tspan class="cls-54" x="4.44" y="0">C</tspan></text></g><g id="_-0.01" data-name=" -0.01" class="cls-2"><text class="cls-55" transform="matrix(0.99, 0.16, -0.16, 0.99, 163.32, 245.19)">-0.01</text></g><g id="MCap_15.2B" data-name="MCap 15.2B" class="cls-2"><text class="cls-56" transform="matrix(0.99, 0.16, -0.16, 0.99, 252.48, 259.38)">MCap </text><text class="cls-56" transform="matrix(0.99, 0.16, -0.16, 0.99, 263.35, 261.11)">15.2B</text></g><path id="Polygon_1-5" data-name="Polygon 1-5" class="cls-57" d="M160.14,244.68l-1.39-3,3.64.58Z"/><g id="Group_890-5" data-name="Group 890-5"><path id="Path_4431-5" data-name="Path 4431-5" class="cls-58" d="M144.43,236.57a4.63,4.63,0,1,1-2.45-6.08,4.63,4.63,0,0,1,2.45,6.08Z"/><path id="Path_4432-5" data-name="Path 4432-5" class="cls-14" d="M142.29,234.43c.19-.6-.22-1-.82-1.32l.33-.79-.48-.21-.32.78-.39-.16.33-.78-.48-.2-.34.79-.31-.13h0l-.66-.29-.22.52a3.68,3.68,0,0,1,.35.15.27.27,0,0,1,.18.33l-.38.9,0,0,0,0-.54,1.27a.18.18,0,0,1-.25.08h0l-.35-.15-.34.54.63.26.34.15-.34.8.48.21.34-.79.38.16-.33.79.48.21.34-.8c.83.3,1.48.33,1.88-.4a.88.88,0,0,0-.2-1.24l-.07-.05a.81.81,0,0,0,.76-.64Zm-1.4,1.42c-.26.6-1.25.1-1.58,0l.45-1.06c.33.14,1.39.48,1.13,1.1Zm.41-1.59c-.23.54-1.06.12-1.33,0l.41-1c.27.11,1.16.39.92,1Z"/></g><g id="_9" data-name=" 9" class="cls-2"><text class="cls-38" transform="matrix(0.99, 0.16, -0.16, 0.99, 97.56, 356.46)">9</text></g><g id="Bitcoin_SV" data-name="Bitcoin SV" class="cls-2"><text class="cls-50" transform="matrix(0.99, 0.16, -0.16, 0.99, 130.75, 358.94)">Bitcoin SV</text></g><g id="Home" class="cls-2"><text class="cls-64" transform="matrix(0.99, 0.16, -0.16, 0.99, 93.78, 391.77)">Home</text></g><g id="Portfolio" class="cls-2"><text class="cls-65" transform="matrix(0.99, 0.16, -0.16, 0.99, 127.25, 397.1)">P<tspan class="cls-66" x="2.02" y="0">o</tspan><tspan class="cls-67" x="4.35" y="0">r</tspan><tspan class="cls-68" x="5.9" y="0">tfolio</tspan></text></g><g id="ICO" class="cls-2"><text class="cls-69" transform="matrix(0.99, 0.16, -0.16, 0.99, 166.93, 403.41)">I<tspan class="cls-70" x="0.95" y="0">C</tspan><tspan class="cls-66" x="3.44" y="0">O</tspan></text></g><g id="News" class="cls-2"><text class="cls-69" transform="matrix(0.99, 0.16, -0.16, 0.99, 200.91, 408.82)">News</text></g><g id="Tools" class="cls-2"><text class="cls-69" transform="matrix(0.99, 0.16, -0.16, 0.99, 235.8, 414.38)"><tspan class="cls-71">T</tspan><tspan x="1.47" y="0">ools</tspan></text></g><g id="_317.63" data-name=" 317.63" class="cls-2"><text class="cls-51" transform="matrix(0.99, 0.16, -0.16, 0.99, 232.94, 375.21)">317.63</text></g><g id="BTC-5" class="cls-2"><text class="cls-52" transform="matrix(0.99, 0.16, -0.16, 0.99, 130.12, 365.84)">B<tspan class="cls-53" x="2.32" y="0">T</tspan><tspan class="cls-54" x="4.44" y="0">C</tspan></text></g><g id="_-1.30" data-name=" -1.30" class="cls-2"><text class="cls-55" transform="matrix(0.99, 0.16, -0.16, 0.99, 143.77, 368.01)">-1.30</text></g><g id="MCap_5.7B" data-name="MCap 5.7B" class="cls-2"><text class="cls-56" transform="matrix(0.99, 0.16, -0.16, 0.99, 234.96, 382.53)">MCap </text><text class="cls-56" transform="matrix(0.99, 0.16, -0.16, 0.99, 245.83, 384.26)">5.7B</text></g><path id="Polygon_1-6" data-name="Polygon 1-6" class="cls-57" d="M140.58,367.5l-1.38-3,3.64.58Z"/><g id="Group_890-6" data-name="Group 890-6"><path id="Path_4431-6" data-name="Path 4431-6" class="cls-58" d="M124.88,359.4a4.64,4.64,0,1,1-2.45-6.09,4.63,4.63,0,0,1,2.45,6.09Z"/><path id="Path_4432-6" data-name="Path 4432-6" class="cls-14" d="M122.74,357.25c.18-.59-.23-1-.83-1.32l.34-.79-.48-.2-.33.77-.39-.16.33-.78-.48-.2-.33.79-.31-.13h0l-.67-.28-.22.51.35.15a.27.27,0,0,1,.19.33l-.38.9,0,0,0,0-.54,1.26a.2.2,0,0,1-.25.09h0l-.35-.14-.34.53.63.27.34.15-.34.8.48.2.34-.79.38.17-.34.79.48.2.34-.8c.84.3,1.49.34,1.88-.39a.9.9,0,0,0-.19-1.25l-.07-.05a.81.81,0,0,0,.76-.63Zm-1.41,1.43c-.25.6-1.25.09-1.58-.05l.46-1.06c.32.14,1.39.48,1.12,1.11Zm.42-1.6c-.24.55-1.06.12-1.34,0l.41-1c.28.12,1.17.39.93,1Z"/></g><g id="_3" data-name=" 3" class="cls-2"><text class="cls-38" transform="matrix(0.99, 0.16, -0.16, 0.99, 121.03, 209.07)">3</text></g><g id="EXP" class="cls-2"><text class="cls-50" transform="matrix(0.99, 0.16, -0.16, 0.99, 154.21, 211.55)">EXP</text></g><g id="_1.07" data-name=" 1.07" class="cls-2"><text class="cls-72" transform="matrix(0.99, 0.16, -0.16, 0.99, 264.65, 229.14)">1.07</text></g><g id="BTC-6" class="cls-2"><text class="cls-52" transform="matrix(0.99, 0.16, -0.16, 0.99, 153.58, 218.45)">B<tspan class="cls-53" x="2.32" y="0">T</tspan><tspan class="cls-54" x="4.44" y="0">C</tspan></text></g><g id="_0.91" data-name=" 0.91" class="cls-2"><text class="cls-55" transform="matrix(0.99, 0.16, -0.16, 0.99, 167.69, 220.69)">0.91</text></g><g id="MCap_46.4B" data-name="MCap 46.4B" class="cls-2"><text class="cls-56" transform="matrix(0.99, 0.16, -0.16, 0.99, 256.39, 234.82)">MCap </text><text class="cls-56" transform="matrix(0.99, 0.16, -0.16, 0.99, 267.27, 236.55)">46.4B</text></g><path id="Polygon_1-7" data-name="Polygon 1-7" class="cls-61" d="M168.39,192.82l1.39,3-3.64-.58Z"/><g id="Group_890-7" data-name="Group 890-7"><path id="Path_4431-7" data-name="Path 4431-7" class="cls-58" d="M148.34,212a4.63,4.63,0,1,1-2.45-6.08,4.63,4.63,0,0,1,2.45,6.08Z"/><path id="Path_4432-7" data-name="Path 4432-7" class="cls-14" d="M146.2,209.86c.19-.59-.22-1-.82-1.31l.34-.8-.49-.2-.32.77-.39-.16.33-.77-.48-.21L144,208l-.31-.12h0l-.66-.28-.22.51.35.15a.28.28,0,0,1,.19.33l-.39.91,0,0,0,0-.54,1.26a.18.18,0,0,1-.24.09h0l-.35-.15-.34.53.63.27.34.15-.34.8.48.2.34-.79.38.17-.33.79.48.2.34-.8c.83.3,1.49.34,1.88-.39a.9.9,0,0,0-.2-1.25l-.07,0a.82.82,0,0,0,.76-.64Zm-1.4,1.43c-.26.6-1.25.09-1.58,0l.45-1.06c.33.14,1.39.48,1.13,1.11Zm.41-1.59c-.23.54-1.06.11-1.33,0l.41-1c.27.11,1.16.39.92.95Z"/></g><g id="_8" data-name=" 8" class="cls-2"><text class="cls-38" transform="matrix(0.99, 0.16, -0.16, 0.99, 101.47, 331.89)">8</text></g><g id="Binance_Coin" data-name="Binance Coin" class="cls-2"><text class="cls-50" transform="matrix(0.99, 0.16, -0.16, 0.99, 134.66, 334.38)">Binance Coin</text></g><g id="_67.34" data-name=" 67.34" class="cls-2"><text class="cls-59" transform="matrix(0.99, 0.16, -0.16, 0.99, 239.69, 351.1)">67.34</text></g><g id="BTC-7" class="cls-2"><text class="cls-52" transform="matrix(0.99, 0.16, -0.16, 0.99, 134.03, 341.27)">B<tspan class="cls-53" x="2.32" y="0">T</tspan><tspan class="cls-54" x="4.44" y="0">C</tspan></text></g><g id="_0.93" data-name=" 0.93" class="cls-2"><text class="cls-55" transform="matrix(0.99, 0.16, -0.16, 0.99, 148.13, 343.52)">0.93</text></g><g id="MCap_10.5B" data-name="MCap 10.5B" class="cls-2"><text class="cls-56" transform="matrix(0.99, 0.16, -0.16, 0.99, 236.84, 357.64)">MCap </text><text class="cls-56" transform="matrix(0.99, 0.16, -0.16, 0.99, 247.71, 359.37)">10.5B</text></g><path id="Polygon_1-8" data-name="Polygon 1-8" class="cls-61" d="M144.93,340.21l1.38,3-3.64-.58Z"/><g id="Group_890-8" data-name="Group 890-8"><path id="Path_4431-8" data-name="Path 4431-8" class="cls-58" d="M128.79,334.83a4.64,4.64,0,1,1-2.45-6.08,4.63,4.63,0,0,1,2.45,6.08Z"/><path id="Path_4432-8" data-name="Path 4432-8" class="cls-14" d="M126.65,332.69c.18-.6-.23-1-.83-1.32l.34-.79-.48-.21-.33.77L125,331l.33-.78-.49-.21-.33.8-.31-.13h0l-.67-.29-.22.52a3.68,3.68,0,0,1,.35.15.26.26,0,0,1,.19.33l-.38.9,0,0,0,0-.54,1.27a.19.19,0,0,1-.25.08h0l-.35-.15L122,334l.63.26.34.15-.34.8.48.21.34-.8.38.17-.34.79.48.21.35-.8c.83.29,1.48.33,1.87-.4a.89.89,0,0,0-.19-1.25l-.07,0a.82.82,0,0,0,.76-.64Zm-1.41,1.42c-.25.6-1.25.1-1.58,0l.46-1.06c.32.14,1.39.48,1.12,1.1Zm.42-1.59c-.24.54-1.06.12-1.34,0l.41-1c.28.11,1.17.39.93,1Z"/></g><g id="_5" data-name=" 5" class="cls-2"><text class="cls-38" transform="matrix(0.99, 0.16, -0.16, 0.99, 113.21, 258.2)">5</text></g><g id="Bitcoin_Cash" data-name="Bitcoin Cash" class="cls-2"><text class="cls-50" transform="matrix(0.99, 0.16, -0.16, 0.99, 146.39, 260.68)">Bitcoin Cash</text></g><g id="_829.68" data-name=" 829.68" class="cls-2"><text class="cls-51" transform="matrix(0.99, 0.16, -0.16, 0.99, 247.31, 276.75)">829.68</text></g><g id="BTC-8" class="cls-2"><text class="cls-52" transform="matrix(0.99, 0.16, -0.16, 0.99, 145.76, 267.58)">B<tspan class="cls-53" x="2.32" y="0">T</tspan><tspan class="cls-54" x="4.44" y="0">C</tspan></text></g><g id="_-0.40" data-name=" -0.40" class="cls-2"><text class="cls-55" transform="matrix(0.99, 0.16, -0.16, 0.99, 159.41, 269.75)">-0.40</text></g><g id="MCap_15B" data-name="MCap 15B" class="cls-2"><text class="cls-56" transform="matrix(0.99, 0.16, -0.16, 0.99, 251.47, 284.41)">MCap </text><text class="cls-56" transform="matrix(0.99, 0.16, -0.16, 0.99, 262.34, 286.14)">15B</text></g><path id="Polygon_1-9" data-name="Polygon 1-9" class="cls-57" d="M156.23,269.24l-1.39-3,3.64.57Z"/><g id="Group_890-9" data-name="Group 890-9"><path id="Path_4431-9" data-name="Path 4431-9" class="cls-58" d="M140.52,261.14a4.64,4.64,0,1,1-2.45-6.08,4.63,4.63,0,0,1,2.45,6.08Z"/><path id="Path_4432-9" data-name="Path 4432-9" class="cls-14" d="M138.38,259c.19-.59-.22-1-.82-1.31l.33-.8-.48-.2-.32.77-.39-.16.33-.78-.48-.2-.34.79-.31-.12h0l-.66-.28-.22.51.35.15a.27.27,0,0,1,.18.33l-.38.91.05,0-.05,0-.54,1.26a.19.19,0,0,1-.25.09h0l-.35-.15-.34.53.63.27.34.15-.34.8.48.2.34-.79.38.17-.33.79.48.2.34-.8c.83.3,1.48.34,1.88-.39a.9.9,0,0,0-.2-1.25l-.07-.05a.8.8,0,0,0,.76-.63Zm-1.4,1.43c-.26.6-1.26.09-1.58-.05l.45-1.06c.33.14,1.39.48,1.12,1.11Zm.41-1.6c-.23.55-1.06.12-1.33,0l.41-1c.27.11,1.16.39.92.95Z"/></g><path id="Path_4440" data-name="Path 4440" class="cls-48" d="M176.34,395l-1.64-4.3a.29.29,0,0,0-.21-.16l-4.54-.72a.27.27,0,0,0-.25.09l-2.89,3.57a.25.25,0,0,0,0,.26l1.64,4.29a.25.25,0,0,0,.21.17l4.54.72a.25.25,0,0,0,.24-.09l2.9-3.57A.27.27,0,0,0,176.34,395Zm-2.08-4,1.43,3.73-3.95-.63-.93-2.42-.5-1.3Zm-4.43-.44,1.42,3.73-2.51,3.1-1.43-3.73Zm3.26,7.79-3.94-.63.88-1.08,1.63-2,3.94.63Z"/><g id="asic"><path id="Path_4441" data-name="Path 4441" class="cls-73" d="M140.21,387.28l-.41-.07.06-.32a.43.43,0,0,0-.35-.48l-5-.79.15-.94a.14.14,0,0,1,.16-.11l3.72.59a.14.14,0,0,1,.12.16l-.07.39a.14.14,0,1,0,.28,0l.06-.39a.43.43,0,0,0-.35-.48l-3.72-.59a.42.42,0,0,0-.47.35l-.15.94-.73-.12a.42.42,0,0,0-.48.34l-.05.33-.41-.07a.55.55,0,0,0-.63.46h0l-.68,4.27a.55.55,0,0,0,.46.63h0l.41.06,0,.33a.4.4,0,0,0,.34.47h0l6,1a.41.41,0,0,0,.47-.35h0l0-.32.41.07a.55.55,0,0,0,.63-.46h0l.68-4.27a.55.55,0,0,0-.46-.63Zm-8.45,3.87a.29.29,0,0,1-.23-.32h0l.68-4.27a.27.27,0,0,1,.32-.22h0l.41.06-.77,4.81Zm6.87,1.7a.15.15,0,0,1-.16.12l-6-1a.14.14,0,0,1-.11-.16l1-6a.13.13,0,0,1,.15-.12l6,1a.14.14,0,0,1,.11.16Zm1.09-.72a.27.27,0,0,1-.32.23h0l-.41-.06.77-4.81.41.06a.29.29,0,0,1,.23.32h0Z"/><g id="Rectangle_791" data-name="Rectangle 791"><rect class="cls-1" x="135.53" y="385.03" width="1.38" height="5.07" transform="translate(-267.94 461.16) rotate(-80.95)"/><rect class="cls-74" x="135.76" y="385.26" width="0.92" height="4.61" transform="translate(-267.94 461.16) rotate(-80.95)"/></g><g id="Rectangle_792" data-name="Rectangle 792"><rect class="cls-1" x="135.24" y="386.85" width="1.38" height="5.07" transform="translate(-269.98 462.41) rotate(-80.95)"/><rect class="cls-74" x="135.47" y="387.08" width="0.92" height="4.61" transform="translate(-269.98 462.41) rotate(-80.95)"/></g><g id="Rectangle_793" data-name="Rectangle 793"><rect class="cls-1" x="134.95" y="388.67" width="1.38" height="5.07" transform="translate(-272.02 463.65) rotate(-80.95)"/><rect class="cls-74" x="135.18" y="388.9" width="0.92" height="4.61" transform="translate(-272.02 463.65) rotate(-80.95)"/></g></g><g id="instantsend"><path id="Path_4442" data-name="Path 4442" class="cls-75" d="M105.1,383.59l-3.46-4.78a.14.14,0,0,0-.19,0h0L99.9,379.9a.14.14,0,0,0,0,.19h0l.47.64a.13.13,0,0,0,.19,0,.13.13,0,0,0,0-.18l-.39-.54,1.33-1,3.3,4.56-4.56,3.3-1-1.32,3.13-2.27a.13.13,0,0,0,0-.19h0L100.9,381a.14.14,0,0,0-.19,0,.14.14,0,0,0,0,.19l1.46,2L99,385.48a.14.14,0,0,0,0,.19h0l1.12,1.54a.13.13,0,0,0,.19,0h0l4.78-3.46a.13.13,0,0,0,0-.19Z"/><path id="Path_4443" data-name="Path 4443" class="cls-75" d="M102.17,384.45l-.59.42a.14.14,0,1,0,.16.22h0l.59-.43a.13.13,0,0,0,0-.18.13.13,0,0,0-.19,0Z"/><path id="Path_4444" data-name="Path 4444" class="cls-75" d="M100.76,385.46l-.2.15a.13.13,0,0,0,0,.19.13.13,0,0,0,.18,0l.2-.15a.13.13,0,0,0,0-.19A.13.13,0,0,0,100.76,385.46Z"/><path id="Path_4445" data-name="Path 4445" class="cls-75" d="M102.05,381.43a.13.13,0,0,0,.15-.11.12.12,0,0,0,0-.1l0,0a.14.14,0,0,0-.22.16A.15.15,0,0,0,102.05,381.43Z"/><path id="Path_4446" data-name="Path 4446" class="cls-75" d="M101.51,380.74a.12.12,0,0,0,.18,0,.12.12,0,0,0,0-.19h0l-.26-.36a.13.13,0,0,0-.18,0,.13.13,0,0,0,0,.19Z"/><path id="Path_4447" data-name="Path 4447" class="cls-75" d="M99.85,382.87a.08.08,0,0,0,0-.12.08.08,0,0,0-.12,0h0a.08.08,0,0,0,0,.12s0,0,.06,0A.11.11,0,0,0,99.85,382.87Z"/><path id="Path_4448" data-name="Path 4448" class="cls-75" d="M101.19,382.8l-.49-.67a.13.13,0,0,0-.19,0h0l-.44.32c-.06,0,0,.25.16.22l.33-.24.33.45-2.36,1.71L97.4,383l.45-.33.73,1a.13.13,0,0,0,.19,0h0l.7-.5a.14.14,0,0,0,0-.19.13.13,0,0,0-.19,0h0l-.59.42-.73-1a.14.14,0,0,0-.19,0h0l-.67.49a.14.14,0,0,0,0,.19h0l1.29,1.78a.14.14,0,0,0,.19,0h0l2.58-1.87A.14.14,0,0,0,101.19,382.8Z"/></g><g id="newspaper-folded"><path id="Path_4449" data-name="Path 4449" class="cls-76" d="M205.84,402.09l-2.13-.34a.22.22,0,0,0-.25.18.21.21,0,0,0,.18.24l2.14.34a.21.21,0,0,0,.06-.42Z"/><path id="Path_4450" data-name="Path 4450" class="cls-76" d="M209,402.6l-2.14-.34a.2.2,0,0,0-.24.18.21.21,0,0,0,.17.24L209,403a.21.21,0,0,0,.07-.42Z"/><path id="Path_4451" data-name="Path 4451" class="cls-76" d="M209.82,397.68l-5.33-.85a.21.21,0,1,0-.07.42l5.33.85a.22.22,0,0,0,.25-.18A.22.22,0,0,0,209.82,397.68Z"/><path id="Path_4452" data-name="Path 4452" class="cls-76" d="M209.61,399l-2.14-.34a.2.2,0,0,0-.24.17.22.22,0,0,0,.17.25h0l2.14.34a.22.22,0,0,0,.25-.18.22.22,0,0,0-.18-.24Z"/><path id="Path_4454" data-name="Path 4454" class="cls-76" d="M209.34,400.67l-2.13-.34a.21.21,0,1,0-.07.42h0l2.14.34a.21.21,0,0,0,.06-.42Z"/><path id="Path_4457" data-name="Path 4457" class="cls-76" d="M206.41,398.5l-2.13-.34a.22.22,0,0,0-.25.18l-.34,2.13a.22.22,0,0,0,.18.25l2.14.34a.21.21,0,0,0,.24-.18l.34-2.14A.21.21,0,0,0,206.41,398.5Zm-.55,2.1-1.71-.27.27-1.71,1.71.27Z"/><path id="Path_4458" data-name="Path 4458" class="cls-76" d="M212,397.62l-.64-.1.1-.63a.42.42,0,0,0-.35-.49l-7.45-1.19a.43.43,0,0,0-.49.36l-1.07,6.76a1.07,1.07,0,0,0,.89,1.23l7.23,1.15a1.07,1.07,0,0,0,1.22-.89l.91-5.71A.43.43,0,0,0,212,397.62Zm-1,6.13a.66.66,0,0,1-.74.54l-7.23-1.15a.64.64,0,0,1-.53-.74l1.08-6.77,7.44,1.19-1,6.45a.55.55,0,0,0,.45.61.21.21,0,0,0,.06-.42.11.11,0,0,1-.08-.12l.85-5.4.64.1Z"/></g><g id="settings"><g id="Group_892" data-name="Group 892"><g id="Group_891" data-name="Group 891"><path id="Path_4459" data-name="Path 4459" class="cls-77" d="M245.71,405.32l-.46-.14s0,0,0,0a3.2,3.2,0,0,0-.2-.81s0,0,0-.05l.34-.33a.45.45,0,0,0,.05-.57l-.44-.6a.45.45,0,0,0-.55-.13l-.42.23s0,0-.05,0a4,4,0,0,0-.71-.43.05.05,0,0,1,0,0c0-.17,0-.33,0-.48a.44.44,0,0,0-.36-.44l-.73-.11a.43.43,0,0,0-.48.29c0,.15-.1.31-.14.46l0,0a3.19,3.19,0,0,0-.81.19,0,0,0,0,1-.05,0l-.33-.35a.44.44,0,0,0-.57,0l-.6.43a.44.44,0,0,0-.13.55l.23.43s0,0,0,.05a3.14,3.14,0,0,0-.43.7.05.05,0,0,1,0,0h-.48a.45.45,0,0,0-.43.37l-.11.73a.43.43,0,0,0,.29.48l.46.14,0,0a3.19,3.19,0,0,0,.19.81s0,0,0,.05l-.35.33a.44.44,0,0,0-.05.56l.44.6a.43.43,0,0,0,.55.13l.42-.22h.05a3.49,3.49,0,0,0,.71.44s0,0,0,0,0,.32,0,.48a.42.42,0,0,0,.37.43l.73.12a.44.44,0,0,0,.48-.3c.05-.15.09-.3.14-.46a0,0,0,0,1,0,0,3.72,3.72,0,0,0,.8-.19.07.07,0,0,1,.06,0l.33.34a.42.42,0,0,0,.56.05l.6-.43a.44.44,0,0,0,.13-.55l-.22-.43a0,0,0,0,1,0-.05,3.67,3.67,0,0,0,.44-.71s0,0,0,0h.48a.44.44,0,0,0,.43-.37l.12-.73A.44.44,0,0,0,245.71,405.32Zm-.2,1.15a0,0,0,0,1,0,0H245a.44.44,0,0,0-.41.25,2.85,2.85,0,0,1-.38.63.42.42,0,0,0,0,.48l.22.41a.06.06,0,0,1,0,.06l-.6.44a.06.06,0,0,1-.07,0l-.32-.34a.46.46,0,0,0-.47-.11,2.54,2.54,0,0,1-.71.17.44.44,0,0,0-.37.31c-.05.15-.09.31-.14.45a.05.05,0,0,1-.05,0l-.73-.12s0,0,0-.05,0-.31,0-.47a.46.46,0,0,0-.26-.41,3,3,0,0,1-.62-.38.42.42,0,0,0-.48,0l-.42.22a.07.07,0,0,1-.06,0l-.43-.6s0-.05,0-.06L239,407a.44.44,0,0,0,.11-.47,2.94,2.94,0,0,1-.17-.71.43.43,0,0,0-.31-.37l-.45-.14s0,0,0,0l.11-.73a.07.07,0,0,1,0,0h.47a.44.44,0,0,0,.41-.26,3,3,0,0,1,.38-.62.44.44,0,0,0,0-.48l-.23-.42s0,0,0-.06l.6-.43s0,0,.06,0l.33.34a.42.42,0,0,0,.46.11,3.44,3.44,0,0,1,.72-.17.44.44,0,0,0,.37-.31c0-.15.09-.3.13-.45a.06.06,0,0,1,.06,0l.73.12a0,0,0,0,1,0,0c0,.16,0,.32,0,.47a.42.42,0,0,0,.25.41,3,3,0,0,1,.63.39.42.42,0,0,0,.47,0l.42-.22s0,0,.06,0l.44.6a0,0,0,0,1,0,.06l-.34.33a.43.43,0,0,0-.11.47,2.54,2.54,0,0,1,.17.71.44.44,0,0,0,.31.37l.45.14a0,0,0,0,1,0,.05l-.11.73Z"/></g></g><g id="Group_894" data-name="Group 894"><g id="Group_893" data-name="Group 893"><path id="Path_4460" data-name="Path 4460" class="cls-77" d="M242.14,403.74a1.8,1.8,0,0,0-.56,3.55,1.8,1.8,0,0,0,2.06-1.49h0A1.81,1.81,0,0,0,242.14,403.74Zm-.5,3.17a1.42,1.42,0,0,1-1.17-1.62,1.41,1.41,0,1,1,1.17,1.62Z"/></g></g></g><g id="search"><path id="Path_4462" data-name="Path 4462" class="cls-78" d="M291.56,98.59a.2.2,0,0,0-.28,0,.19.19,0,0,0,0,.28,2,2,0,0,1,.31.34.2.2,0,1,0,.33-.23h0A2.46,2.46,0,0,0,291.56,98.59Z"/><path id="Path_4463" data-name="Path 4463" class="cls-78" d="M288.76,98.84a.19.19,0,0,0,.15,0,1.94,1.94,0,0,1,1.73-.27.22.22,0,0,0,.26-.13.21.21,0,0,0-.13-.25,2.33,2.33,0,0,0-2.09.33.21.21,0,0,0-.05.28.25.25,0,0,0,.14.08Z"/><path id="Path_4464" data-name="Path 4464" class="cls-78" d="M288.78,101.83a2.35,2.35,0,0,1-.3-.33.18.18,0,0,0-.27,0,.2.2,0,0,0,0,.28h0a2.19,2.19,0,0,0,.36.39.2.2,0,0,0,.28,0,.19.19,0,0,0,0-.27Z"/><path id="Path_4465" data-name="Path 4465" class="cls-78" d="M291.18,101.93a1.93,1.93,0,0,1-1.66.3.2.2,0,0,0-.24.14.19.19,0,0,0,.13.24,1.27,1.27,0,0,0,.28.06,2.32,2.32,0,0,0,1.73-.41.2.2,0,0,0-.23-.33Z"/><path id="Path_4466" data-name="Path 4466" class="cls-78" d="M295.25,106.13l-2-2.76a.2.2,0,0,0-.28,0h0l-.11.08-.2-.27a3.78,3.78,0,1,0-.79.58l.2.27-.11.08a.19.19,0,0,0,0,.27h0l2,2.76a.83.83,0,1,0,1.35-1Zm-8-3.76a3.41,3.41,0,1,1,4.76.76,3.4,3.4,0,0,1-4.76-.76Zm4.92,1.14.07-.06.08,0,.18.24-.15.11Zm2.62,3.45a.43.43,0,0,1-.6-.09l-1.88-2.6.69-.5,1.89,2.59a.44.44,0,0,1-.1.6Z"/></g></g><path class="cls-79" d="M109.65,146.21h0L105.55,172h0a1.87,1.87,0,0,1-1.55-2.14l3.51-22.13A1.86,1.86,0,0,1,109.65,146.21Z"/><path class="cls-80" d="M115.2,111.17h0L111.11,137h0a1.86,1.86,0,0,1-1.55-2.14l3.51-22.14A1.87,1.87,0,0,1,115.2,111.17Z"/><path class="cls-81" d="M311.81,151.78h0a1.87,1.87,0,0,1,1.55,2.14l-6.21,39.14a1.87,1.87,0,0,1-2.13,1.55h0Z"/><path class="cls-82" d="M119.52,83.94h0l-2.19,13.79h0a1.87,1.87,0,0,1-1.55-2.13l1.61-10.11A1.87,1.87,0,0,1,119.52,83.94Z"/><rect class="cls-83" x="208.18" y="60.57" width="24.09" height="4.62" rx="1.02" transform="matrix(0.99, 0.16, -0.16, 0.99, 12.57, -33.71)"/><path class="cls-84" d="M246.18,67a3.83,3.83,0,1,0-4.39,3.19A3.82,3.82,0,0,0,246.18,67Z"/><path class="cls-85" d="M243.55,66.58a1.17,1.17,0,1,0-1.34,1A1.16,1.16,0,0,0,243.55,66.58Z"/><path class="cls-86" d="M293,61.67,159.48,40.48a27.44,27.44,0,0,0-31.39,22.8l-10.5,66.18L268.1,394,315.84,93.06A27.44,27.44,0,0,0,293,61.67Z"/><g class="cls-87"><path class="cls-88" d="M235.13,197.93l8.35,11.47-10.17,64.52-11.47,8.34-64.52-10.17L149,260.62l10.17-64.51,11.46-8.35,64.52,10.17m.43-.7L170.42,187l-12,8.72-10.26,65.14,8.71,12L222,283.06l12-8.72,10.27-65.13-8.72-12Z"/><polygon class="cls-89" points="235.56 197.23 170.42 186.96 158.44 195.68 148.18 260.81 156.89 272.79 222.03 283.06 234.01 274.34 244.28 209.21 235.56 197.23"/><polygon class="cls-90" points="232.48 200.19 172.44 190.73 161.41 198.76 151.94 258.79 159.97 269.83 220.01 279.29 231.05 271.26 240.51 211.23 232.48 200.19"/><g class="cls-91"><rect class="cls-92" x="234.14" y="272.72" width="12.57" height="2.62" transform="translate(45.6 -34.09) rotate(8.96)"/><rect class="cls-93" x="234.96" y="267.5" width="12.57" height="2.62" transform="translate(44.8 -34.28) rotate(8.96)"/><rect class="cls-94" x="235.78" y="262.29" width="12.57" height="2.62" transform="translate(43.99 -34.47) rotate(8.96)"/><rect class="cls-95" x="236.6" y="257.08" width="12.57" height="2.62" transform="translate(43.2 -34.67) rotate(8.96)"/><rect class="cls-96" x="237.42" y="251.87" width="12.57" height="2.62" transform="translate(42.39 -34.86) rotate(8.96)"/><rect class="cls-97" x="238.24" y="246.66" width="12.57" height="2.62" transform="translate(41.59 -35.05) rotate(8.96)"/><rect class="cls-98" x="239.06" y="241.45" width="12.57" height="2.62" transform="translate(40.79 -35.24) rotate(8.96)"/><rect class="cls-99" x="239.89" y="236.24" width="12.57" height="2.62" transform="translate(39.99 -35.43) rotate(8.96)"/><rect class="cls-100" x="240.71" y="231.02" width="12.57" height="2.62" transform="translate(39.19 -35.62) rotate(8.96)"/><rect class="cls-101" x="241.53" y="225.81" width="12.57" height="2.62" transform="translate(38.39 -35.82) rotate(8.96)"/><rect class="cls-102" x="242.35" y="220.6" width="12.57" height="2.62" transform="translate(37.59 -36.01) rotate(8.96)"/><rect class="cls-103" x="243.17" y="215.39" width="12.57" height="2.62" transform="matrix(0.99, 0.16, -0.16, 0.99, 36.78, -36.2)"/><rect class="cls-104" x="243.99" y="210.18" width="12.57" height="2.62" transform="matrix(0.99, 0.16, -0.16, 0.99, 35.98, -36.39)"/></g><g class="cls-91"><rect class="cls-105" x="150.93" y="277.89" width="12.57" height="2.62" transform="translate(457.49 167.38) rotate(98.96)"/><rect class="cls-106" x="156.14" y="278.71" width="12.57" height="2.62" transform="translate(464.33 163.18) rotate(98.96)"/><rect class="cls-107" x="161.35" y="279.54" width="12.57" height="2.62" transform="translate(471.16 158.99) rotate(98.96)"/><rect class="cls-108" x="166.57" y="280.36" width="12.57" height="2.62" transform="matrix(-0.16, 0.99, -0.99, -0.16, 477.99, 154.78)"/><rect class="cls-109" x="171.78" y="281.18" width="12.57" height="2.62" transform="translate(484.83 150.59) rotate(98.96)"/><rect class="cls-110" x="176.99" y="282" width="12.57" height="2.62" transform="translate(491.66 146.39) rotate(98.96)"/><rect class="cls-111" x="182.2" y="282.82" width="12.57" height="2.62" transform="translate(498.5 142.19) rotate(98.96)"/><rect class="cls-112" x="187.41" y="283.64" width="12.57" height="2.62" transform="translate(505.33 137.99) rotate(98.96)"/><rect class="cls-113" x="192.62" y="284.46" width="12.57" height="2.62" transform="matrix(-0.16, 0.99, -0.99, -0.16, 512.17, 133.79)"/><rect class="cls-114" x="197.83" y="285.29" width="12.57" height="2.62" transform="translate(519 129.59) rotate(98.96)"/><rect class="cls-115" x="203.05" y="286.11" width="12.57" height="2.62" transform="translate(525.83 125.39) rotate(98.96)"/><rect class="cls-116" x="208.26" y="286.93" width="12.57" height="2.62" transform="translate(532.67 121.2) rotate(98.96)"/><rect class="cls-117" x="213.47" y="287.75" width="12.57" height="2.62" transform="translate(539.5 117) rotate(98.96)"/></g><g class="cls-91"><rect class="cls-118" x="228.95" y="189.51" width="12.57" height="2.62" transform="translate(10.12 393.47) rotate(-81.04)"/><rect class="cls-119" x="223.74" y="188.68" width="12.57" height="2.62" transform="translate(6.53 387.63) rotate(-81.04)"/><rect class="cls-120" x="218.53" y="187.86" width="12.57" height="2.62" transform="translate(2.94 381.79) rotate(-81.04)"/><rect class="cls-121" x="213.32" y="187.04" width="12.57" height="2.62" transform="translate(-0.65 375.95) rotate(-81.04)"/><rect class="cls-122" x="208.11" y="186.22" width="12.57" height="2.62" transform="matrix(0.16, -0.99, 0.99, 0.16, -4.24, 370.11)"/><rect class="cls-123" x="202.9" y="185.4" width="12.57" height="2.62" transform="translate(-7.82 364.27) rotate(-81.04)"/><rect class="cls-124" x="197.69" y="184.58" width="12.57" height="2.62" transform="translate(-11.41 358.42) rotate(-81.04)"/><rect class="cls-125" x="192.47" y="183.76" width="12.57" height="2.62" transform="translate(-15 352.58) rotate(-81.04)"/><rect class="cls-126" x="187.26" y="182.93" width="12.57" height="2.62" transform="translate(-18.59 346.74) rotate(-81.04)"/><rect class="cls-127" x="182.05" y="182.11" width="12.57" height="2.62" transform="translate(-22.18 340.9) rotate(-81.04)"/><rect class="cls-128" x="176.84" y="181.29" width="12.57" height="2.62" transform="translate(-25.77 335.06) rotate(-81.04)"/><rect class="cls-129" x="171.63" y="180.47" width="12.57" height="2.62" transform="translate(-29.35 329.22) rotate(-81.04)"/><rect class="cls-130" x="166.42" y="179.65" width="12.57" height="2.62" transform="translate(-32.94 323.38) rotate(-81.04)"/></g><g class="cls-91"><rect class="cls-131" x="145.75" y="194.69" width="12.57" height="2.62" transform="matrix(-0.99, -0.16, 0.16, -0.99, 271.69, 413.29)"/><rect class="cls-132" x="144.93" y="199.9" width="12.57" height="2.62" transform="translate(269.24 423.52) rotate(-171.04)"/><rect class="cls-133" x="144.11" y="205.11" width="12.57" height="2.62" transform="translate(266.8 433.75) rotate(-171.04)"/><rect class="cls-134" x="143.28" y="210.33" width="12.57" height="2.62" transform="translate(264.36 443.98) rotate(-171.04)"/><rect class="cls-135" x="142.46" y="215.54" width="12.57" height="2.62" transform="translate(261.91 454.22) rotate(-171.04)"/><rect class="cls-136" x="141.64" y="220.75" width="12.57" height="2.62" transform="translate(259.47 464.45) rotate(-171.04)"/><rect class="cls-137" x="140.82" y="225.96" width="12.57" height="2.62" transform="translate(257.03 474.68) rotate(-171.04)"/><rect class="cls-138" x="140" y="231.17" width="12.57" height="2.62" transform="translate(254.58 484.91) rotate(-171.04)"/><rect class="cls-139" x="139.18" y="236.38" width="12.57" height="2.62" transform="translate(252.13 495.14) rotate(-171.04)"/><rect class="cls-140" x="138.36" y="241.6" width="12.57" height="2.62" transform="matrix(-0.99, -0.16, 0.16, -0.99, 249.69, 505.37)"/><rect class="cls-141" x="137.53" y="246.81" width="12.57" height="2.62" transform="translate(247.25 515.6) rotate(-171.04)"/><rect class="cls-142" x="136.71" y="252.02" width="12.57" height="2.62" transform="translate(244.8 525.84) rotate(-171.04)"/><rect class="cls-143" x="135.89" y="257.23" width="12.57" height="2.62" transform="translate(242.36 536.07) rotate(-171.04)"/></g><path class="cls-144" d="M256.51,297.4l6.58-41.72a2.8,2.8,0,1,0-3.29-3.18,2.82,2.82,0,0,0,1.44,2.89l-6.46,40.95L236.57,309.6,200.83,304a2.81,2.81,0,1,0-.3,1.85l36.52,5.75Zm6.28-45.84a1.4,1.4,0,1,1-1.6,1.16A1.4,1.4,0,0,1,262.79,251.56Zm-64.92,54.3a1.4,1.4,0,1,1,1.6-1.17A1.4,1.4,0,0,1,197.87,305.86Z"/><path class="cls-145" d="M108.13,334.32a2.8,2.8,0,1,0,.29-1.85l-12-1.9L74.58,300.63,98.42,149.42a2.81,2.81,0,1,0-1.85-.29l-24,152,22.7,31.2Zm3-1.9a1.4,1.4,0,1,1-1.6,1.17A1.4,1.4,0,0,1,111.09,332.42Zm-14.57-186a1.4,1.4,0,1,1,1.16,1.6A1.41,1.41,0,0,1,96.52,146.46Z"/><path class="cls-146" d="M98.3,213.44a2.8,2.8,0,1,0,4.1-2l10.08-64,26.2-19.07L151,130.33a2.8,2.8,0,1,0,3.18-3.28,2.78,2.78,0,0,0-2.88,1.43l-13.07-2-27.45,20-10.2,64.73A2.81,2.81,0,0,0,98.3,213.44Zm55.63-85a1.4,1.4,0,1,1-1.59,1.16A1.39,1.39,0,0,1,153.93,128.44Zm-51.48,85.65a1.4,1.4,0,1,1-1.17-1.6A1.4,1.4,0,0,1,102.45,214.09Z"/><path class="cls-147" d="M293.66,247.69a2.8,2.8,0,1,0-1.84-.29L280,322.57,261.8,335.79a3,3,0,0,0-.95-.34,2.8,2.8,0,1,0,2.33,3.2,2.75,2.75,0,0,0-.16-1.43l18.68-13.6Zm-1.89-2.95a1.4,1.4,0,1,1,2.76.43,1.37,1.37,0,0,1-1.16,1.14l-.84-.13A1.36,1.36,0,0,1,291.77,244.74ZM260.2,339.6a1.4,1.4,0,1,1,1.6-1.16A1.41,1.41,0,0,1,260.2,339.6Z"/><path class="cls-148" d="M213,154.12a2.81,2.81,0,1,0-.3,1.85l56.88,9,15.66,21.51a2.78,2.78,0,0,0-.48,1.16,2.8,2.8,0,1,0,3.2-2.33,2.84,2.84,0,0,0-1.2.08l-16.12-22.14ZM210,156a1.39,1.39,0,0,1-1.17-1.59A1.4,1.4,0,1,1,210,156Zm77.7,30.65a1.4,1.4,0,1,1-1.59,1.16A1.39,1.39,0,0,1,287.71,186.66Z"/><path class="cls-149" d="M180.77,302.69a2.8,2.8,0,1,0,.29-1.85l-46.17-7.27-13.25-18.21,1.21-7.68a2.8,2.8,0,1,0-1.85-.29l-1.33,8.44,14.17,19.46Zm3-1.89a1.4,1.4,0,1,1-1.6,1.16A1.4,1.4,0,0,1,183.73,300.8ZM121,264.72a1.4,1.4,0,1,1,1.17,1.6A1.41,1.41,0,0,1,121,264.72Z"/><path class="cls-150" d="M143.59,169.37a2.83,2.83,0,1,0-1.06-1.54l-6.59,4.79-12.12,76.91a2.8,2.8,0,1,0,1.85.29l12-76.14Zm1.86-3.64a1.4,1.4,0,1,1-1.6,1.16A1.4,1.4,0,0,1,145.45,165.73Zm-19.74,86.76a1.4,1.4,0,1,1-1.16-1.6A1.4,1.4,0,0,1,125.71,252.49Z"/><path class="cls-151" d="M221.72,179.65a2.78,2.78,0,0,0-2.3-2.26,2.8,2.8,0,1,0,2,4.1L248,185.67,259.08,201l-11.37,72.16a2.8,2.8,0,1,0,1.85.29l11.49-72.92L249,184Zm-3,1.89a1.4,1.4,0,1,1,1.6-1.16A1.4,1.4,0,0,1,218.76,181.54Zm30.85,94.54a1.4,1.4,0,1,1-1.17-1.6A1.4,1.4,0,0,1,249.61,276.08Z"/><path class="cls-152" d="M165.44,291.43a2.78,2.78,0,0,0,2.88-1.43l62.43,9.84,16.54-12,.56-3.58a2.8,2.8,0,1,0-3.28-3.18,2.79,2.79,0,0,0,1.44,2.89l-.45,2.81-15.29,11.13-61.65-9.72a2.8,2.8,0,1,0-3.18,3.28ZM246,281.26a1.4,1.4,0,1,1,1.16,1.6A1.4,1.4,0,0,1,246,281.26Zm-79.87,6a1.4,1.4,0,1,1-1.6,1.17A1.4,1.4,0,0,1,166.09,287.28Z"/><path class="cls-153" d="M143.44,286.07l10.23,1.62a2.81,2.81,0,1,0,.29-1.85l-9.47-1.49-11.12-15.29,4.5-28.57a2.8,2.8,0,1,0-1.85-.29l-4.62,29.33Zm13.19-.28A1.4,1.4,0,1,1,155,287,1.41,1.41,0,0,1,156.63,285.79ZM136,237.53a1.4,1.4,0,1,1,1.16,1.6A1.4,1.4,0,0,1,136,237.53Z"/><path class="cls-154" d="M88.37,276.45a2.8,2.8,0,1,0,4.1-2l6.32-40.1a2.8,2.8,0,1,0-1.85-.29l-6.32,40.1A2.8,2.8,0,0,0,88.37,276.45Zm8.52-45.08a1.4,1.4,0,1,1,1.17,1.6A1.41,1.41,0,0,1,96.89,231.37ZM92.51,277.1a1.4,1.4,0,0,1-2.76-.44,1.4,1.4,0,1,1,2.76.44Z"/><path class="cls-155" d="M85.12,290.92a2.81,2.81,0,0,0,2.33,3.21,2.86,2.86,0,0,0,1,0l19.19,26.38,46.74,7.37a2.8,2.8,0,1,0,.29-1.85l-46-7.24L90,293.14a2.69,2.69,0,0,0,.63-1.35,2.8,2.8,0,0,0-5.54-.87Zm72.19,35a1.4,1.4,0,1,1-1.6,1.17A1.41,1.41,0,0,1,157.31,326Zm-68-34.37a1.4,1.4,0,1,1-1.16-1.6A1.4,1.4,0,0,1,89.27,291.58Z"/><path class="cls-156" d="M71.39,230a2.8,2.8,0,1,0-4.1,2L54.9,310.62l5.5,7.55a2.67,2.67,0,0,0-.55,1.25,2.8,2.8,0,1,0,3.2-2.33,2.66,2.66,0,0,0-1.09.05l-5.09-7,12.26-77.8A2.82,2.82,0,0,0,71.39,230Zm-8.56,88.44a1.4,1.4,0,1,1-1.6,1.17A1.41,1.41,0,0,1,62.83,318.47ZM68,230.82a1.38,1.38,0,0,1-.75-1.44,1.4,1.4,0,1,1,1.6,1.58Z"/><path class="cls-157" d="M135.23,310.81a2.78,2.78,0,0,0,2.88-1.43L212.05,321a2.8,2.8,0,1,0,.29-1.84l-73.93-11.66a2.8,2.8,0,1,0-3.18,3.28Zm78.33,9.09a1.38,1.38,0,0,1,1.45-.76,1.4,1.4,0,1,1-.44,2.76,1.37,1.37,0,0,1-1.14-1.16Zm-77.68-13.23a1.4,1.4,0,0,1,.94.61h0l-.29,1.84h0a1.39,1.39,0,1,1-.65-2.46Z"/><path class="cls-158" d="M129.4,339.56a2.8,2.8,0,0,0,2.89-1.43L213.7,351a2.8,2.8,0,1,0,.29-1.85l-81.41-12.83a2.8,2.8,0,1,0-3.18,3.28Zm86,10a1.39,1.39,0,1,1,.82,2.28,1.37,1.37,0,0,1-1-.85Zm-85.34-14.14a1.41,1.41,0,0,1,1.13,1l-.18,1.11a1.42,1.42,0,0,1-1.39.63,1.4,1.4,0,0,1,.44-2.77Z"/><path class="cls-159" d="M180.82,358.21a2.8,2.8,0,0,0-2.89,1.43L81.87,344.5l-6.77-9.3a2.73,2.73,0,0,0,.52-1.22,2.8,2.8,0,1,0-3.2,2.33,2.91,2.91,0,0,0,1.14-.06l7.25,10,96.83,15.26a2.8,2.8,0,1,0,3.18-3.28ZM72.64,334.92a1.4,1.4,0,1,1,1.6-1.16A1.41,1.41,0,0,1,72.64,334.92Zm107.53,27.44a1.38,1.38,0,0,1-1-.7l.26-1.7a1.38,1.38,0,0,1,1.15-.37,1.4,1.4,0,1,1-.43,2.77Z"/><path class="cls-160" d="M230.56,355.51a2.8,2.8,0,0,0,2.89-1.44l28.87,4.55,31.19-22.7,1.46-9.26a2.78,2.78,0,0,0,2.26-2.3,2.8,2.8,0,1,0-4.1,2l-1.34,8.5-30,21.79-28.1-4.43a2.8,2.8,0,1,0-3.18,3.28Zm62.52-31.81a1.4,1.4,0,1,1,2.76.44,1.37,1.37,0,0,1-1.13,1.14l-.91-.14A1.4,1.4,0,0,1,293.08,323.7Zm-61.86,27.66a1.41,1.41,0,0,1,1.14,1.07l-.17,1a1.39,1.39,0,1,1-1-2.1Z"/><path class="cls-161" d="M245.49,344.1a2.8,2.8,0,1,0-2-4.1l-65.54-10.33a2.81,2.81,0,1,0-.29,1.85l65.54,10.33A2.77,2.77,0,0,0,245.49,344.1Zm.66-4.14a1.4,1.4,0,1,1-1.6,1.16A1.4,1.4,0,0,1,246.15,340ZM175,331.57a1.4,1.4,0,1,1,1.6-1.16A1.4,1.4,0,0,1,175,331.57Z"/><path class="cls-162" d="M318.93,271.56a2.79,2.79,0,0,0-1.77,5.21l-11.44,72.6-34.36,25-63-9.93a2.81,2.81,0,1,0-.29,1.85l63.72,10,35.61-25.91L319,277.06a2.79,2.79,0,0,0-.08-5.5Zm-112.34,92.6L206.3,366l.23,0a1.39,1.39,0,0,1-1.08.3,1.4,1.4,0,1,1,1.37-2.15Zm112.12-88.47-.84-.14a1.36,1.36,0,0,1-.76-1.44,1.4,1.4,0,1,1,1.6,1.58Z"/><path class="cls-163" d="M117.28,302.37a2.8,2.8,0,1,0,.87-5.53,2.69,2.69,0,0,0-1.2.08l-10-13.69,11.63-73.81a2.8,2.8,0,1,0-1.84-.29L105,283.7,115.43,298a2.67,2.67,0,0,0-.48,1.16A2.8,2.8,0,0,0,117.28,302.37Zm-.81-3.35,1.07-.78a1.28,1.28,0,0,1,.39,0,1.4,1.4,0,1,1-.43,2.77,1.42,1.42,0,0,1-1.17-1.6A1.78,1.78,0,0,1,116.47,299Zm.26-92.56a1.4,1.4,0,1,1,1.16,1.6A1.4,1.4,0,0,1,116.73,206.46Z"/><path class="cls-164" d="M230.14,325.77a2.78,2.78,0,0,0,2.88-1.43l11.9,1.87L268,309.39l4.57-29a2.79,2.79,0,0,0-.08-5.51,2.79,2.79,0,0,0-1.77,5.22l-4.45,28.2-21.86,15.91-11.13-1.76a2.78,2.78,0,0,0-2.3-2.25,2.8,2.8,0,1,0-.87,5.53Zm40.56-48.3a1.4,1.4,0,1,1,1.16,1.6A1.4,1.4,0,0,1,270.7,277.47Zm-39.91,44.16a1.4,1.4,0,1,1-1.6,1.16A1.39,1.39,0,0,1,230.79,321.63Z"/><path class="cls-165" d="M271.58,262.91a2.8,2.8,0,1,0,4.1-2l8.52-54.1a2.8,2.8,0,1,0-1.84-.29l-8.53,54.1A2.77,2.77,0,0,0,271.58,262.91Zm10.73-59.07a1.4,1.4,0,1,1,1.16,1.6A1.4,1.4,0,0,1,282.31,203.84Zm-6.59,59.73a1.4,1.4,0,1,1-1.16-1.6A1.4,1.4,0,0,1,275.72,263.57Z"/><path class="cls-166" d="M316,205.33a2.8,2.8,0,1,0-4.1,2l-15.31,97.14a2.8,2.8,0,1,0,1.85.29l15.31-97.14A2.78,2.78,0,0,0,316,205.33ZM298.47,307.44a1.4,1.4,0,1,1-1.16-1.6A1.4,1.4,0,0,1,298.47,307.44Zm13.37-102.77a1.4,1.4,0,1,1,1.16,1.6A1.4,1.4,0,0,1,311.84,204.67Z"/><path class="cls-167" d="M283.65,146.17a2.8,2.8,0,0,0-.87,5.53,2.76,2.76,0,0,0,1.25-.09l18.81,25.85-7.12,45.2a2.8,2.8,0,1,0,1.85.29l7.24-46L285.53,150.5a2.61,2.61,0,0,0,.45-1.13A2.79,2.79,0,0,0,283.65,146.17Zm-.65,4.15a1.4,1.4,0,1,1,1.6-1.17A1.4,1.4,0,0,1,283,150.32Zm14.61,75.3A1.4,1.4,0,1,1,296,224l.85.13A1.39,1.39,0,0,1,297.61,225.62Z"/><path class="cls-168" d="M325.14,238.13l12.41-78.72L320,135.22a2.73,2.73,0,0,0,.68-1.43,2.8,2.8,0,1,0-3.2,2.33,3,3,0,0,0,.85,0l17.3,23.77-12.29,78a2.8,2.8,0,1,0,1.85.29Zm-7.49-103.4a1.4,1.4,0,1,1,1.6-1.16A1.4,1.4,0,0,1,317.65,134.73Zm7.54,106.07a1.4,1.4,0,1,1-2.76-.43,1.37,1.37,0,0,1,.94-1.1l1.26.2A1.41,1.41,0,0,1,325.19,240.8Z"/><path class="cls-169" d="M297.14,137.72l-49.58-7.81a2.8,2.8,0,1,0-.29,1.84l48.81,7.7,21.79,29.94-2.79,17.74a2.8,2.8,0,1,0,1.84.29l2.92-18.5ZM246,131.2a1.38,1.38,0,0,1-1.36.6,1.4,1.4,0,1,1,1.55-1.77Zm71,58.89a1.4,1.4,0,1,1-1.16-1.6A1.4,1.4,0,0,1,317,190.09Z"/><path class="cls-170" d="M199.91,110a2.8,2.8,0,0,0,2.89-1.44l89.41,14.1a2.8,2.8,0,1,0,.29-1.85l-89.41-14.09a2.79,2.79,0,0,0-5.51.07A2.81,2.81,0,0,0,199.91,110Zm93.79,11.6a1.37,1.37,0,0,1,1.47-.84,1.4,1.4,0,1,1-.43,2.76,1.38,1.38,0,0,1-1.15-1.25Zm-93.13-15.75a1.37,1.37,0,0,1,1.14,1.17l-.13.83a1.38,1.38,0,0,1-1.45.76,1.4,1.4,0,0,1,.44-2.76Z"/><path class="cls-171" d="M224.69,124.41a2.8,2.8,0,0,0-2.89,1.44L130.13,111.4l-19.91,14.49a2.73,2.73,0,0,0-1.38-.65,2.8,2.8,0,1,0,2.33,3.2,2.84,2.84,0,0,0,0-.92l19.46-14.16,90.9,14.33a2.8,2.8,0,1,0,3.18-3.28Zm-116.5,5a1.4,1.4,0,1,1,1.59-1.17A1.4,1.4,0,0,1,108.19,129.39ZM224,128.56a1.4,1.4,0,1,1,1.6-1.16A1.4,1.4,0,0,1,224,128.56Z"/><path class="cls-172" d="M244.78,170.66a2.8,2.8,0,0,0-2.89,1.43l-84.07-13.25a2.81,2.81,0,1,0-.3,1.85l84.08,13.25a2.8,2.8,0,1,0,3.18-3.28Zm-88.84-10.22a1.38,1.38,0,0,1-1.08.29,1.4,1.4,0,1,1,.43-2.76,1.35,1.35,0,0,1,.94.62l-.44-.07-.29,1.85Zm88.19,14.36a1.34,1.34,0,0,1-1-.84l.22-1.44a1.39,1.39,0,1,1,.83,2.28Z"/><path class="cls-173" d="M191.66,148.87a2.78,2.78,0,0,0-2.89,1.44l-41.23-6.5-23.12,16.82L120.26,187a2.8,2.8,0,1,0,1.85.29l4-25.62L148,145.77l40.47,6.38a2.79,2.79,0,1,0,3.18-3.28ZM122.16,190a1.4,1.4,0,0,1-2.76-.44,1.36,1.36,0,0,1,1-1.12l1.14.18A1.4,1.4,0,0,1,122.16,190ZM191,153a1.4,1.4,0,1,1,1.6-1.16A1.4,1.4,0,0,1,191,153Z"/><path class="cls-174" d="M257.7,171.54a2.8,2.8,0,0,0-.87,5.53A2.73,2.73,0,0,0,258,177l12.84,17.65-5.76,36.53a2.8,2.8,0,1,0,1.85.29l5.88-37.29L259.51,176a2.73,2.73,0,0,0,.52-1.22A2.8,2.8,0,0,0,257.7,171.54Zm-.66,4.14a1.39,1.39,0,0,1-1.16-1.59,1.4,1.4,0,1,1,1.16,1.59ZM267,234.15a1.4,1.4,0,1,1-1.16-1.6A1.41,1.41,0,0,1,267,234.15Z"/><path class="cls-175" d="M267.3,144.88a2.8,2.8,0,0,0-2.89,1.44L172,131.75a2.79,2.79,0,0,0-5.51.07,2.79,2.79,0,0,0,5.22,1.77l92.46,14.58a2.78,2.78,0,0,0,2.3,2.25,2.8,2.8,0,0,0,.88-5.54ZM169,133.64a1.4,1.4,0,1,1,1.6-1.16A1.4,1.4,0,0,1,169,133.64ZM266.64,149a1.4,1.4,0,1,1,1.6-1.16A1.4,1.4,0,0,1,266.64,149Z"/><path class="cls-176" d="M75.37,186.76a2.8,2.8,0,0,0,1.77-5.22l9.6-60.89,34.35-25,53.47,8.43a2.8,2.8,0,1,0,.29-1.85l-54.23-8.54L85,119.6l-9.72,61.65a2.79,2.79,0,0,0,.08,5.51Zm102.15-84.57a1.4,1.4,0,1,1-1.6,1.16A1.4,1.4,0,0,1,177.52,102.19ZM75.59,182.63l.84.13a1.37,1.37,0,0,1,.76,1.45,1.4,1.4,0,1,1-2.76-.44A1.37,1.37,0,0,1,75.59,182.63Z"/><path class="cls-177" d="M203.25,178.63a2.81,2.81,0,1,0,.29-1.85l-41.84-6.6-16.54,12-3.72,23.59a2.81,2.81,0,1,0,1.85.29l3.6-22.82,15.29-11.13Zm3-1.9a1.4,1.4,0,1,1-1.6,1.16A1.4,1.4,0,0,1,206.21,176.73Zm-62.87,32a1.4,1.4,0,1,1-1.16-1.6A1.4,1.4,0,0,1,143.34,208.77Z"/></g></g></g></g></svg>