<svg xmlns="http://www.w3.org/2000/svg" xmlns:xlink="http://www.w3.org/1999/xlink" viewBox="0 0 300 66"><defs><style>.cls-1{fill:#f05a28;}.cls-2{fill:url(#linear-gradient);}.cls-3{fill:url(#linear-gradient-2);}.cls-4{fill:url(#linear-gradient-3);}.cls-5{fill:#1b75bb;}.cls-6{fill:url(#linear-gradient-4);}.cls-7{fill:url(#linear-gradient-5);}.cls-8{fill:url(#linear-gradient-6);}</style><linearGradient id="linear-gradient" x1="-3.7" y1="14.82" x2="33.58" y2="16.66" gradientUnits="userSpaceOnUse"><stop offset="0" stop-color="#f6a41c"/><stop offset="1" stop-color="#ea3726"/></linearGradient><linearGradient id="linear-gradient-2" x1="42.4" y1="71.01" x2="0.88" y2="29.07" xlink:href="#linear-gradient"/><linearGradient id="linear-gradient-3" x1="5.1" y1="29.75" x2="38.43" y2="29.75" gradientUnits="userSpaceOnUse"><stop offset="0" stop-color="#3259a4"/><stop offset="0.46" stop-color="#4091c9"/><stop offset="0.81" stop-color="#4ab5e1"/><stop offset="1" stop-color="#4dc3ea"/></linearGradient><linearGradient id="linear-gradient-4" x1="-58.07" y1="27.75" x2="-156.19" y2="29.71" gradientTransform="matrix(1, 0, 0.15, 1, 205.74, 0)" xlink:href="#linear-gradient"/><linearGradient id="linear-gradient-5" x1="-57.98" y1="32.29" x2="-156.1" y2="34.25" gradientTransform="matrix(1, 0, 0.15, 1, 205.74, 0)" xlink:href="#linear-gradient"/><linearGradient id="linear-gradient-6" x1="-57.96" y1="33.01" x2="-156.09" y2="34.97" gradientTransform="matrix(1, 0, 0.15, 1, 205.74, 0)" xlink:href="#linear-gradient"/></defs><title>Artboard 30</title><g id="Layer_2" data-name="Layer 2"><path class="cls-1" d="M151.09,56.52h3.3a3.12,3.12,0,0,1,2,.54,2.09,2.09,0,0,1,.66,1.72A2.58,2.58,0,0,1,156.8,60a2,2,0,0,1-.78.74,1.93,1.93,0,0,1,1.24,2c0,1.65-.92,2.47-2.77,2.47h-3.4Zm3.23,1.22H152.5v2.49h1.87A1.11,1.11,0,0,0,155.61,59C155.61,58.14,155.18,57.74,154.32,57.74Zm.07,3.68H152.5V64h1.92a1.66,1.66,0,0,0,1.05-.29,1.27,1.27,0,0,0,.34-1,1.12,1.12,0,0,0-.4-1A1.73,1.73,0,0,0,154.39,61.42Z"/><path class="cls-1" d="M163.73,65.22h-4.87v-8.7h1.41V64h3.46Z"/><path class="cls-1" d="M170.64,64.29a4.05,4.05,0,0,1-5.5,0,5.76,5.76,0,0,1-.78-3.37,5.9,5.9,0,0,1,.79-3.41,3.94,3.94,0,0,1,5.49,0,6,6,0,0,1,.78,3.42A5.79,5.79,0,0,1,170.64,64.29Zm-4.39-.91a2.21,2.21,0,0,0,3.29,0,5.29,5.29,0,0,0,.43-2.47,5.49,5.49,0,0,0-.44-2.52,2.09,2.09,0,0,0-3.27,0,5.29,5.29,0,0,0-.45,2.51A5.2,5.2,0,0,0,166.25,63.38Z"/><path class="cls-1" d="M176,65.36a2.84,2.84,0,0,1-2.58-1.06,6.64,6.64,0,0,1-.68-3.46,6.53,6.53,0,0,1,.68-3.44,2.9,2.9,0,0,1,2.58-1,11.18,11.18,0,0,1,2.49.32l-.05,1.14a13.62,13.62,0,0,0-2.29-.2,1.67,1.67,0,0,0-1.55.68,5.5,5.5,0,0,0-.4,2.55,5.67,5.67,0,0,0,.39,2.55,1.63,1.63,0,0,0,1.54.68,14,14,0,0,0,2.31-.19l0,1.17A12.4,12.4,0,0,1,176,65.36Z"/><path class="cls-1" d="M181.37,65.22H180v-8.7h1.4v3.92l1.3-.1,1.78-3.82h1.61l-2.15,4.37,2.24,4.33h-1.64l-1.84-3.63-1.3.09Z"/><path class="cls-1" d="M190.17,65.36a2.84,2.84,0,0,1-2.58-1.06,6.54,6.54,0,0,1-.68-3.46,6.53,6.53,0,0,1,.68-3.44,2.9,2.9,0,0,1,2.58-1,11.18,11.18,0,0,1,2.49.32l0,1.14a13.72,13.72,0,0,0-2.29-.2,1.66,1.66,0,0,0-1.55.68,5.5,5.5,0,0,0-.4,2.55,5.67,5.67,0,0,0,.39,2.55,1.63,1.63,0,0,0,1.54.68,14,14,0,0,0,2.31-.19l0,1.17A12.23,12.23,0,0,1,190.17,65.36Z"/><path class="cls-1" d="M199.32,65.22V61.46h-3.76v3.76h-1.41v-8.7h1.41v3.71h3.76V56.52h1.42v8.7Z"/><path class="cls-1" d="M202,65.22l2.14-8.7h2.8l2.16,8.7h-1.42l-.47-1.87h-3.34l-.47,1.87Zm3.23-7.52-1.08,4.41h2.78l-1.06-4.41Z"/><path class="cls-1" d="M210.34,65.22v-8.7h1.41v8.7Z"/><path class="cls-1" d="M213.75,65.22v-8.7h2.46L218.85,64H219V56.52h1.41v8.7H218l-2.7-7.47h-.18v7.47Z"/><path class="cls-1" d="M225.25,65.22v-8.7h1.41v8.7Z"/><path class="cls-1" d="M227.82,57.78V56.52h6.35v1.26h-2.45v7.44H230.3V57.78Z"/><path class="cls-1" d="M240.68,57.61c-1.07,0-1.61.38-1.61,1.13a.91.91,0,0,0,.38.83,6.86,6.86,0,0,0,1.68.61,4.43,4.43,0,0,1,1.84.87,2.09,2.09,0,0,1,.53,1.58,2.59,2.59,0,0,1-.78,2.05,3.15,3.15,0,0,1-2.13.68,12.51,12.51,0,0,1-2.38-.26l-.46-.09.14-1.13a20,20,0,0,0,2.61.23c1.05,0,1.58-.46,1.58-1.39a.92.92,0,0,0-.36-.81,5.65,5.65,0,0,0-1.6-.57,4.31,4.31,0,0,1-1.85-.86,2.18,2.18,0,0,1-.61-1.72,2.16,2.16,0,0,1,.77-1.79,3.36,3.36,0,0,1,2.12-.6,14,14,0,0,1,2.31.23l.45.07-.12,1.15A24.69,24.69,0,0,0,240.68,57.61Z"/><path class="cls-1" d="M250.93,64.29a4.05,4.05,0,0,1-5.5,0,5.67,5.67,0,0,1-.79-3.37,5.9,5.9,0,0,1,.79-3.41,3.16,3.16,0,0,1,2.75-1.12,3.13,3.13,0,0,1,2.74,1.11,5.92,5.92,0,0,1,.79,3.42A5.79,5.79,0,0,1,250.93,64.29Zm-4.4-.91a2.21,2.21,0,0,0,3.29,0,5.16,5.16,0,0,0,.43-2.47,5.49,5.49,0,0,0-.44-2.52,1.7,1.7,0,0,0-1.63-.79,1.74,1.74,0,0,0-1.64.79,5.44,5.44,0,0,0-.44,2.51A5.22,5.22,0,0,0,246.53,63.38Z"/><path class="cls-1" d="M258.22,65.22h-4.87v-8.7h1.41V64h3.46Z"/><path class="cls-1" d="M260.61,62.44q0,1.68,1.77,1.68c1.19,0,1.78-.56,1.78-1.68V56.52h1.42v5.89a2.84,2.84,0,0,1-.8,2.24,4.41,4.41,0,0,1-4.8,0,2.84,2.84,0,0,1-.8-2.24V56.52h1.43Z"/><path class="cls-1" d="M266.67,57.78V56.52H273v1.26h-2.45v7.44h-1.42V57.78Z"/><path class="cls-1" d="M274.19,65.22v-8.7h1.4v8.7Z"/><path class="cls-1" d="M283.51,64.29a4.05,4.05,0,0,1-5.5,0,5.67,5.67,0,0,1-.79-3.37A5.9,5.9,0,0,1,278,57.5a3.16,3.16,0,0,1,2.75-1.12,3.13,3.13,0,0,1,2.74,1.11,5.92,5.92,0,0,1,.79,3.42A5.79,5.79,0,0,1,283.51,64.29Zm-4.4-.91a2.21,2.21,0,0,0,3.29,0,5.16,5.16,0,0,0,.43-2.47,5.49,5.49,0,0,0-.44-2.52,1.7,1.7,0,0,0-1.63-.79,1.73,1.73,0,0,0-1.64.79,5.44,5.44,0,0,0-.44,2.51A5.22,5.22,0,0,0,279.11,63.38Z"/><path class="cls-1" d="M285.93,65.22v-8.7h2.46L291,64h.19V56.52h1.41v8.7h-2.41l-2.71-7.47h-.18v7.47Z"/><path class="cls-1" d="M297.18,57.61c-1.07,0-1.61.38-1.61,1.13a.91.91,0,0,0,.38.83,7.22,7.22,0,0,0,1.68.61,4.43,4.43,0,0,1,1.84.87,2.09,2.09,0,0,1,.53,1.58,2.59,2.59,0,0,1-.78,2.05,3.15,3.15,0,0,1-2.13.68,12.51,12.51,0,0,1-2.38-.26l-.46-.09.14-1.13a20,20,0,0,0,2.61.23c1.05,0,1.58-.46,1.58-1.39a.92.92,0,0,0-.36-.81,5.53,5.53,0,0,0-1.6-.57,4.31,4.31,0,0,1-1.85-.86,2.22,2.22,0,0,1-.61-1.72,2.16,2.16,0,0,1,.77-1.79,3.37,3.37,0,0,1,2.13-.6,14.24,14.24,0,0,1,2.31.23l.44.07-.11,1.15A25,25,0,0,0,297.18,57.61Z"/><path class="cls-2" d="M19.29,11.79,20,7.51A5.91,5.91,0,0,0,14.16.64H5.1L.51,30.1A23.46,23.46,0,0,1,19.29,11.79Z"/><path class="cls-3" d="M35.06,48.56a7.92,7.92,0,0,0-5-5.45,7.73,7.73,0,0,0-2.61-.44H23.46a7.72,7.72,0,0,1-7.62-8.91,7.79,7.79,0,0,1,1.8-3.88A19.66,19.66,0,0,0,4.07,46.94c0,.12,0,.25,0,.37,0,.3,0,.6,0,.9L4,48.1v.11a22,22,0,0,0,1.56,2,23.49,23.49,0,0,0,15.6,8.13c.76.07,1.52.11,2.29.11h10.6s.55-4.1.84-5.78A13,13,0,0,0,35.06,48.56Z"/><path class="cls-4" d="M23.53,11.42A23.53,23.53,0,0,0,4,48.09v0c0-.11,0-.22,0-.32s0-.32,0-.48v-.32a19.68,19.68,0,0,1,.27-3.27c.07-.43.16-.86.26-1.29s.22-.85.35-1.26a17.53,17.53,0,0,1,.7-1.92l.15-.33.15-.34c.06-.11.11-.22.16-.33l.17-.33c.06-.1.11-.21.17-.32l.18-.32.28-.47c.06-.11.13-.21.19-.31a19.52,19.52,0,0,1,3-3.66l.26-.25.55-.49.41-.35.58-.45.29-.21q.3-.22.6-.42l.3-.2L13.6,30l.32-.18.32-.18c.43-.23.87-.45,1.32-.65l.33-.15.17-.07.35-.14.17-.07.08,0a20.26,20.26,0,0,1,2.55-.77l.37-.08.36-.07.55-.1.56-.08.37-.05.95-.08h.07a7.88,7.88,0,0,1,1.09-.08h8.18l.44,0a8,8,0,0,0,6.92-5c.73-1.78,1.68-10.82,1.68-10.82Z"/><path class="cls-5" d="M176.19,20.24a13.24,13.24,0,0,1,5,7.64h-5.43a8.7,8.7,0,0,0-3.41-4.11,10.17,10.17,0,0,0-5.63-1.54,10.34,10.34,0,0,0-5.35,1.4,9.71,9.71,0,0,0-3.71,4,13,13,0,0,0-1.33,6.06A13.57,13.57,0,0,0,157.7,40a9.47,9.47,0,0,0,3.82,4,11.5,11.5,0,0,0,5.72,1.38,10.07,10.07,0,0,0,6.82-2.46,10.46,10.46,0,0,0,3.44-6.76H165.79v-3.8h16.05v4.93a15.32,15.32,0,0,1-2.51,6.4,14.26,14.26,0,0,1-5.2,4.58,15.44,15.44,0,0,1-7.39,1.72,16.06,16.06,0,0,1-8.23-2.08A14.16,14.16,0,0,1,153,42.1a17.88,17.88,0,0,1-1.94-8.43A17.86,17.86,0,0,1,153,25.24a14.12,14.12,0,0,1,5.49-5.74,16.09,16.09,0,0,1,8.21-2.06A15.61,15.61,0,0,1,176.19,20.24Z"/><path class="cls-5" d="M203,49.62l-8-12.74h-3.66V49.62H186.2V17.71h11.25c3.65,0,6.41.89,8.3,2.67a9.26,9.26,0,0,1,2.82,7.05,9,9,0,0,1-2.1,6.15,10,10,0,0,1-6.08,3.07l8.36,13Zm-11.62-16.4h5.7c4.16,0,6.23-1.84,6.23-5.52a5.43,5.43,0,0,0-1.51-4.09,6.56,6.56,0,0,0-4.72-1.47h-5.7Z"/><path class="cls-5" d="M237,19.39a14.8,14.8,0,0,1,5.65,5.8,17.2,17.2,0,0,1,2.06,8.43,17.14,17.14,0,0,1-2.06,8.43A14.94,14.94,0,0,1,237,47.88a16.39,16.39,0,0,1-16.09,0,15.2,15.2,0,0,1-5.67-5.83,16.94,16.94,0,0,1-2.08-8.43,17,17,0,0,1,2.08-8.43,15.05,15.05,0,0,1,5.67-5.8,16.6,16.6,0,0,1,16.09,0ZM223.46,23.5a9.56,9.56,0,0,0-3.73,4,13.27,13.27,0,0,0-1.33,6.1,13.31,13.31,0,0,0,1.33,6.11,9.62,9.62,0,0,0,3.73,4,10.68,10.68,0,0,0,5.47,1.4,10.45,10.45,0,0,0,5.4-1.4,9.57,9.57,0,0,0,3.71-4,13.31,13.31,0,0,0,1.33-6.11,13.27,13.27,0,0,0-1.33-6.1,9.52,9.52,0,0,0-3.71-4,10.35,10.35,0,0,0-5.4-1.4A10.58,10.58,0,0,0,223.46,23.5Z"/><path class="cls-5" d="M254.17,17.71V36.65q0,4.24,1.87,6.33a6.72,6.72,0,0,0,5.27,2.08A6.66,6.66,0,0,0,266.53,43q1.88-2.08,1.88-6.33V17.71h5.15V36.65q0,6.56-3.39,9.92a12.12,12.12,0,0,1-8.95,3.37,11.91,11.91,0,0,1-8.86-3.37Q249,43.21,249,36.65V17.71Z"/><path class="cls-5" d="M283.07,37.24V49.62h-5.15V17.71h10.85c3.67,0,6.44.88,8.29,2.62a9.39,9.39,0,0,1,2.78,7.19A9.14,9.14,0,0,1,297,34.64c-1.89,1.73-4.64,2.6-8.22,2.6Zm11.53-9.72a5.39,5.39,0,0,0-1.52-4.13Q291.57,22,288.23,22h-5.16V33h5.16C292.47,33,294.6,31.2,294.6,27.52Z"/><path class="cls-6" d="M75.75,41.15l0,8.58H71.23c-3.82,0-6.78-.94-8.9-2.83s-3.16-5-3.15-9.37l0-12H54.84l0-8.4h4.38l0-8h10l0,8h6.54l0,8.4H69.2l0,12.15a3.67,3.67,0,0,0,.78,2.68,3.76,3.76,0,0,0,2.66.76Z"/><path class="cls-7" d="M108.28,20.54q3.28,3.74,3.27,10.28l-.06,18.91h-10L101.56,32a7.12,7.12,0,0,0-1.71-5.11A5.94,5.94,0,0,0,95.28,25,6.27,6.27,0,0,0,90.45,27a7.8,7.8,0,0,0-1.79,5.49L88.6,49.73h-10l.1-32.57h10l0,5.95a10.85,10.85,0,0,1,4.19-4.61,12.27,12.27,0,0,1,6.52-1.69A11.24,11.24,0,0,1,108.28,20.54Z"/><path class="cls-8" d="M141.91,20.22a15.39,15.39,0,0,1,5.34,9.55H136.68a5.57,5.57,0,0,0-1.91-3.27,5.71,5.71,0,0,0-3.68-1.17,5.37,5.37,0,0,0-4.33,2.07,9.42,9.42,0,0,0-1.71,6.05,9.29,9.29,0,0,0,1.68,6A5.31,5.31,0,0,0,131,41.56a5.69,5.69,0,0,0,3.68-1.17,5.61,5.61,0,0,0,1.94-3.27h10.57a15.55,15.55,0,0,1-5.4,9.55,16.27,16.27,0,0,1-10.58,3.47,17.52,17.52,0,0,1-8.49-2A14.27,14.27,0,0,1,117,42.32a18,18,0,0,1-2.08-8.87,18.22,18.22,0,0,1,2.1-8.91,14.3,14.3,0,0,1,5.83-5.78,17.76,17.76,0,0,1,8.53-2A16.19,16.19,0,0,1,141.91,20.22Z"/></g></svg>