<svg id="Layer_1" data-name="Layer 1" xmlns="http://www.w3.org/2000/svg" viewBox="0 0 34 34"><defs><style>.cls-1{fill:#273372;}</style></defs><title>111</title><path class="cls-1" d="M26.91,19.7l-4.54-4.53L12.7,24.84,8.94,21.08,1.41,28.6V25.28l7.53-7.52,2.15,2.15,9.38-9.38a7,7,0,1,0-.78-3.2A7.19,7.19,0,0,0,20,9.46l-8.93,8.93L8.94,16.24,1.41,23.76V8.2H.34V33.66H26.67a7,7,0,0,0,.24-14Zm.51-11.5a.47.47,0,0,1,0-.93.47.47,0,1,1,0,.93Zm-.75-6.79a5.91,5.91,0,0,1,1.18,11.71V9A1.32,1.32,0,1,0,27,6.49a1.31,1.31,0,0,0-.82,1.67A1.29,1.29,0,0,0,27,9v4.23l-.33,0a5.9,5.9,0,0,1-1.79-.31V7l1.5-1.81a1.32,1.32,0,1,0-.76-1.71,1.35,1.35,0,0,0,.11,1.16l-1.6,1.93a.39.39,0,0,0-.1.27v5.76A5.9,5.9,0,0,1,26.67,1.41ZM26.39,4a.46.46,0,0,1,.46-.47.47.47,0,0,1,.47.47.47.47,0,0,1-.93,0ZM3.56,32.59H1.41V30.12L3.56,28Zm3.23,0H4.64V26.9l2.15-2.15Zm3.22,0H7.86V23.67L8.94,22.6,10,23.67Zm3.23,0H11.09V24.75l1.61,1.61.54-.54Zm3.22,0H14.31V24.75l2.15-2.15Zm1.08,0V21.52l4.83-4.83,3.12,3.11A7,7,0,0,0,23,32.59Zm9.88-4.88a.47.47,0,0,1,0-.93.47.47,0,1,1,0,.93Zm.43,4.76v-4A1.32,1.32,0,1,0,27,26a1.32,1.32,0,0,0,0,2.49v4.06c-.11,0-.22,0-.33,0a5.9,5.9,0,0,1-1.79-.31V26.5l1.5-1.81A1.32,1.32,0,1,0,25.62,23a1.35,1.35,0,0,0,.11,1.16l-1.6,1.93a.39.39,0,0,0-.1.27v5.59a5.87,5.87,0,1,1,3.82.54Zm-1.46-9a.46.46,0,0,1,.46-.47.47.47,0,1,1-.46.47Z"/></svg>