<svg id="Layer_1" data-name="Layer 1" xmlns="http://www.w3.org/2000/svg" viewBox="0 0 34 29.25"><defs><style>.cls-1{fill:#273372;}</style></defs><title>131</title><path class="cls-1" d="M13,15.67a22.9,22.9,0,0,1-2.45,3.19c-2.19,2.31-5.06,2.92-8.15,2.77-2.77-.15-2.75,4.16,0,4.3,5.81.29,9.91-2.22,13.18-6.48-.54-.71-1-1.41-1.49-2.09S13.36,16.23,13,15.67Z"/><path class="cls-1" d="M18.61,12.25c.3.47.59.93.89,1.38a19.16,19.16,0,0,1,1.78-2.15,8.54,8.54,0,0,1,5.59-2.6l-.39.47a2.2,2.2,0,0,0,0,3,2.15,2.15,0,0,0,3,0C30.69,11,31.8,9.59,33,8.2a2.12,2.12,0,0,0,.11-3L29.2,1c-1.88-2-4.92,1-3,3l.5.54a12.41,12.41,0,0,0-6,1.91A15.93,15.93,0,0,0,17,9.83c.21.29.42.6.63.91C18,11.24,18.3,11.75,18.61,12.25Z"/><path class="cls-1" d="M29.52,16.86a1.86,1.86,0,0,0-1.45-.63,2.29,2.29,0,0,0-1.59.63,2.2,2.2,0,0,0,0,3l.39.47a8.45,8.45,0,0,1-5.59-2.6,21.87,21.87,0,0,1-2.47-3.14c-.72-1.08-1.4-2.18-2.11-3.27l-.42-.6C13.07,6.15,9.06,3.3,3.33,3.3c-.3,0-.61,0-.91,0-2.72.13-2.78,4.3-.14,4.3h.14c.29,0,.59,0,.88,0a9.51,9.51,0,0,1,7.26,2.79,26.46,26.46,0,0,1,3.12,4.24c.45.7.89,1.41,1.35,2.1s.82,1.19,1.25,1.77a17.6,17.6,0,0,0,4.36,4.29,12.41,12.41,0,0,0,6,1.91l-.5.54A2.24,2.24,0,0,0,27.77,29a1.91,1.91,0,0,0,1.43-.68l3.87-4.19a2.12,2.12,0,0,0-.11-3C31.8,19.67,30.69,18.24,29.52,16.86Z"/></svg>