<svg id="Layer_1" data-name="Layer 1" xmlns="http://www.w3.org/2000/svg" viewBox="0 0 34 33.97"><defs><style>.cls-1{fill:#273372;}</style></defs><title>141</title><path class="cls-1" d="M22.88,20.16a.71.71,0,0,0,.71.71h5a.71.71,0,0,0,0-1.42h-5A.68.68,0,0,0,22.88,20.16Z"/><path class="cls-1" d="M33,14.7H32.1V9a2.37,2.37,0,0,0-2.34-2.41H23.28a8.83,8.83,0,0,0-16.86,0H2.51A2.4,2.4,0,0,0,.34,9V31.22a2.37,2.37,0,0,0,2.34,2.41H29.76a2.39,2.39,0,0,0,2.41-2.41V25.34H33a.67.67,0,0,0,.71-.71V15.41A.71.71,0,0,0,33,14.7Zm-18.1-13a7.53,7.53,0,0,1,7,4.9H7.79A7.53,7.53,0,0,1,14.85,1.65ZM30.76,31.22a1,1,0,0,1-1,1.07H2.68a1,1,0,0,1-1-1.07V27H8.87a.59.59,0,0,0,.4-.16l2-2a1.74,1.74,0,1,0-.79-2.33,1.72,1.72,0,0,0,0,1.53L8.64,25.91h-7v-2H5.74a1.73,1.73,0,1,0,0-1.11H1.69v-2h12a1.73,1.73,0,1,0,1-2.21,1.69,1.69,0,0,0-1.06,1.09H1.69v-2H9.27a1.73,1.73,0,1,0,1.08-2.2,1.8,1.8,0,0,0-1.08,1.08H1.69V9a1,1,0,0,1,1-1.06h27a1,1,0,0,1,1,1.06V14.7h-7a5.32,5.32,0,0,0,0,10.64h7.1Zm-19.34-7.9a.61.61,0,1,1,.61.61.61.61,0,0,1-.61-.61Zm-4.65,0a.61.61,0,1,1,.61.61.61.61,0,0,1-.61-.61Zm7.89-3.18a.61.61,0,1,1,.61.61.61.61,0,0,1-.61-.61ZM10.3,17a.61.61,0,0,1,1.22,0,.61.61,0,1,1-1.22,0Zm21.94,7H23.66a3.9,3.9,0,0,1,0-7.79h8.58Z"/></svg>