<svg id="Layer_1" data-name="Layer 1" xmlns="http://www.w3.org/2000/svg" viewBox="0 0 35.01 16.85"><defs><style>.cls-1{fill:none;stroke:#273372;stroke-linecap:round;stroke-linejoin:round;stroke-width:0.99px;}</style></defs><title>151</title><path class="cls-1" d="M6.16-4.65H21.68a0,0,0,0,1,0,0V13.74a7.76,7.76,0,0,1-7.76,7.76h0a7.76,7.76,0,0,1-7.76-7.76V-4.65a0,0,0,0,1,0,0Z" transform="translate(22.34 -5.49) rotate(90)"/><polyline class="cls-1" points="26.99 2.73 34.16 2.73 34.16 13.94 26.99 13.94"/><line class="cls-1" x1="34.16" y1="6.45" x2="29.35" y2="6.45"/><line class="cls-1" x1="34.16" y1="10.22" x2="29.35" y2="10.22"/><line class="cls-1" x1="26.99" y1="5.69" x2="13.32" y2="5.69"/><polyline class="cls-1" points="26.99 7.84 16.11 7.84 13.76 10.19"/><polyline class="cls-1" points="26.99 10.12 19.42 10.12 17.41 12.12"/><circle class="cls-1" cx="12.34" cy="5.69" r="1.1"/><circle class="cls-1" cx="13.02" cy="10.99" r="1.1"/><circle class="cls-1" cx="16.66" cy="12.84" r="1.1"/></svg>