<svg id="Layer_1" data-name="Layer 1" xmlns="http://www.w3.org/2000/svg" viewBox="0 0 35.36 27.47"><defs><style>.cls-1{fill:none;stroke:#273372;stroke-miterlimit:10;stroke-width:1.33px;}</style></defs><title>161</title><path class="cls-1" d="M31.49,17.53V25A1.52,1.52,0,0,1,30,26.52H2.54A1.52,1.52,0,0,1,1,25V2.46A1.52,1.52,0,0,1,2.54.94H30a1.52,1.52,0,0,1,1.52,1.52v7"/><line class="cls-1" x1="1.42" y1="4.18" x2="31.49" y2="4.18"/><rect class="cls-1" x="23.96" y="9.47" width="10.38" height="8.06" rx="1.36"/><line class="cls-1" x1="1.42" y1="22.89" x2="31.49" y2="22.89"/><polyline class="cls-1" points="1.02 12.6 12.14 12.6 15.09 15.54"/><line class="cls-1" x1="1.02" y1="16.06" x2="8.31" y2="16.06"/><line class="cls-1" x1="1.02" y1="9.9" x2="15.85" y2="9.9"/><circle class="cls-1" cx="17.54" cy="9.87" r="1.68"/><circle class="cls-1" cx="16.26" cy="16.83" r="1.68"/><circle class="cls-1" cx="9.98" cy="16.06" r="1.68"/></svg>