<svg id="Layer_1" data-name="Layer 1" xmlns="http://www.w3.org/2000/svg" viewBox="0 0 35.36 32.95"><defs><style>.cls-1{fill:none;stroke:#273372;stroke-miterlimit:10;stroke-width:1.33px;}</style></defs><title>171</title><path class="cls-1" d="M31.49,23v7.47A1.52,1.52,0,0,1,30,32H2.54A1.52,1.52,0,0,1,1,30.43V7.89A1.52,1.52,0,0,1,2.54,6.37h7.79"/><path class="cls-1" d="M22.13,6.37H30a1.52,1.52,0,0,1,1.52,1.52v7"/><line class="cls-1" x1="21.5" y1="9.61" x2="31.49" y2="9.61"/><line class="cls-1" x1="1.42" y1="9.61" x2="10.99" y2="9.61"/><rect class="cls-1" x="23.96" y="14.9" width="10.38" height="8.06" rx="1.36"/><path class="cls-1" d="M22.15,6.91a5.91,5.91,0,1,0-7.28,5.75V14.3l1.66,1.15-1.66,1v2.06l1.66,1.15-1.66,1v1.76l1,.71-1,.61v1l1.28,1.34,2.38-1.54V12.36A5.91,5.91,0,0,0,22.15,6.91ZM16.24,2.59a1.7,1.7,0,1,1-1.69,1.69A1.7,1.7,0,0,1,16.24,2.59Z"/><line class="cls-1" x1="1.42" y1="28.32" x2="31.49" y2="28.32"/></svg>