<svg id="Layer_1" data-name="Layer 1" xmlns="http://www.w3.org/2000/svg" viewBox="0 0 35.38 31.4"><defs><style>.cls-1{fill:none;stroke:#273372;stroke-miterlimit:10;stroke-width:1.35px;}</style></defs><title>181</title><path class="cls-1" d="M21.9,23.6a2.58,2.58,0,0,0,5.16,0"/><path class="cls-1" d="M34.35,23.6c0-6.2-4.26-12.29-9.84-13.61a4.89,4.89,0,1,0-5,.14c-4.75,1.38-8.43,6.22-9.19,11.55h5.27a6.94,6.94,0,0,1,6.84-5.38,7.08,7.08,0,0,1,7,7.09v.21Z"/><path class="cls-1" d="M27.06,23.6s0-.08,0-.11a2.59,2.59,0,0,0-5.18,0s0,.07,0,.11"/><path class="cls-1" d="M29.49,23.38a7,7,0,0,0-7-7,7,7,0,0,0-6.84,5.4H2.39A1.6,1.6,0,0,0,1,23.48a1.6,1.6,0,0,0,1.36,1.75H4.26v3.39H6.52V26H9v2.6h2.15V25.23h4.53a6.84,6.84,0,0,0,6.79,5.19,7,7,0,0,0,7-6.8Zm-5,2.69A2.58,2.58,0,0,1,21.9,23.6s0-.08,0-.11a2.59,2.59,0,0,1,5.18,0s0,.07,0,.11A2.58,2.58,0,0,1,24.48,26.07Z"/></svg>