<svg id="Layer_1" data-name="Layer 1" xmlns="http://www.w3.org/2000/svg" viewBox="0 0 34 33.87"><defs><style>.cls-1{fill:#273372;}</style></defs><title>191</title><path class="cls-1" d="M7.64.34H2.16A1.81,1.81,0,0,0,.34,2.15V7.63A1.83,1.83,0,0,0,2.16,9.47H7.64A1.85,1.85,0,0,0,9.47,7.63V2.15A1.83,1.83,0,0,0,7.64.34ZM7.82,7.6a.22.22,0,0,1-.22.22H2.13a.21.21,0,0,1-.21-.22V2.13a.21.21,0,0,1,.21-.21H7.6a.21.21,0,0,1,.22.21V7.6Z"/><rect class="cls-1" x="3.15" y="3.15" width="3.5" height="3.5"/><path class="cls-1" d="M7.64,14.61H2.16A1.81,1.81,0,0,0,.34,16.42V21.9a1.83,1.83,0,0,0,1.82,1.84H7.64A1.85,1.85,0,0,0,9.47,21.9V16.42A1.83,1.83,0,0,0,7.64,14.61Zm.18,7.29a.19.19,0,0,1-.21.19H2.15a.21.21,0,0,1-.23-.19V16.43a.25.25,0,0,1,.23-.24H7.61a.23.23,0,0,1,.21.24V21.9Z"/><rect class="cls-1" x="3.15" y="17.42" width="3.5" height="3.5"/><path class="cls-1" d="M16.35,9.47h5.48a1.85,1.85,0,0,0,1.84-1.84V2.15A1.83,1.83,0,0,0,21.83.34H16.35a1.8,1.8,0,0,0-1.81,1.81V7.63A1.82,1.82,0,0,0,16.35,9.47Zm-.23-7.34a.21.21,0,0,1,.22-.21h5.47a.21.21,0,0,1,.21.21V7.6a.21.21,0,0,1-.21.22H16.34a.22.22,0,0,1-.22-.22Z"/><rect class="cls-1" x="17.29" y="3.15" width="3.57" height="3.5"/><path class="cls-1" d="M3.62,10.49H2.41a.5.5,0,0,0-.49.49v1.2a.52.52,0,0,0,.49.51H3.56v0a.44.44,0,0,0,.45.46H6.72v.06a.51.51,0,0,0,.5.49H8.43a.5.5,0,0,0,.49-.49V12.06a.48.48,0,0,0-.49-.47H7.82V11a.48.48,0,0,0-.47-.49H6.7a.47.47,0,0,0-.46.49v.61H4.11V11A.5.5,0,0,0,3.62,10.49Z"/><path class="cls-1" d="M11.32,5.48V8.16a.45.45,0,0,0,.44.48h1.73a.5.5,0,0,0,.5-.48V7a.51.51,0,0,0-.5-.5H12.9V2.74H13a.47.47,0,0,0,.48-.47V1.63A.47.47,0,0,0,13,1.16H10.68a.45.45,0,0,0-.46.47v.64a.45.45,0,0,0,.46.47h.64V4.46h-.64a.47.47,0,0,0-.46.48V5a.44.44,0,0,0,.46.45Z"/><path class="cls-1" d="M12.62,11.05V9.87a.47.47,0,0,0-.47-.47H11a.48.48,0,0,0-.48.47v1.18a.48.48,0,0,0,.48.47h1.18A.47.47,0,0,0,12.62,11.05Z"/><path class="cls-1" d="M33,29.77l-4.49-4.49a9.81,9.81,0,1,0-3.11,3.11l4.5,4.49A2.2,2.2,0,1,0,33,29.77Zm-7.74-4.63a7.17,7.17,0,1,1,0-10.14A7.17,7.17,0,0,1,25.27,25.14Z"/></svg>