<svg id="Layer_1" data-name="Layer 1" xmlns="http://www.w3.org/2000/svg" viewBox="0 0 34 39.04"><defs><style>.cls-1{fill:#273372;}</style></defs><title>201</title><path class="cls-1" d="M32.79,14.86a15.85,15.85,0,0,0-31.58,0A1.58,1.58,0,0,0,.51,17a1.6,1.6,0,0,0,1.42.87,1.5,1.5,0,0,0,.89-.29L13.52,28a6.09,6.09,0,1,0,8.13,0l9.53-10.46a1.5,1.5,0,0,0,.89.29,1.58,1.58,0,0,0,.72-3ZM17,2a14.31,14.31,0,0,1,13.55,9.77A5.53,5.53,0,0,0,22.82,13a3,3,0,0,0-.2.29,6.36,6.36,0,0,0-11.24,0,5.53,5.53,0,0,0-7.63-1.74l-.3.19A14.31,14.31,0,0,1,17,2Zm4.09,14.88-3.31,9.62H17.6a5.83,5.83,0,0,0-1.33.15l-3.36-9.76a1.24,1.24,0,0,0,.12-.6A1.58,1.58,0,0,0,12.41,15a4.76,4.76,0,0,1,9.18,0A1.58,1.58,0,0,0,21,16.26,1.37,1.37,0,0,0,21.09,16.86ZM3.5,16.13A1.59,1.59,0,0,0,2.93,15a3.94,3.94,0,0,1,7.51,0,1.59,1.59,0,0,0,1,2.81l.21,0L15,27.05l-.36.17Zm18.87,15H19.9V29.53h-2a1.53,1.53,0,0,0-3,.55,1.53,1.53,0,0,0,3,.56h.9v1.61h3.78c0,.1,0,.21,0,.31a5.42,5.42,0,0,1-.07.81v-.25H17.35a1.71,1.71,0,1,0,0,1.1h4.91a5,5,0,1,1,.08-3.07Zm-5.48-1.07a.43.43,0,1,1-.85,0,.43.43,0,0,1,.85,0Zm-.53,3.65a.59.59,0,1,1-.59-.59A.58.58,0,0,1,16.36,33.73ZM30.5,16.13l-10,11.08a5.48,5.48,0,0,0-.93-.41l2.77-9,.21,0a1.6,1.6,0,0,0,1.59-1.59A1.64,1.64,0,0,0,23.56,15a3.94,3.94,0,0,1,7.51,0A1.59,1.59,0,0,0,30.5,16.13Z"/></svg>