<svg id="Layer_1" data-name="Layer 1" xmlns="http://www.w3.org/2000/svg" viewBox="0 0 34 36.11"><defs><style>.cls-1{fill:#273b72;}</style></defs><title>21</title><path class="cls-1" d="M16.41,27.33a5,5,0,1,1,5.05-5A5,5,0,0,1,16.41,27.33Zm0-8.25a3.21,3.21,0,1,0,3.2,3.21A3.21,3.21,0,0,0,16.41,19.08Z"/><circle class="cls-1" cx="16.45" cy="22.28" r="1.6"/><circle class="cls-1" cx="23.54" cy="5.76" r="2.54"/><circle class="cls-1" cx="30.02" cy="16.09" r="3.81"/><circle class="cls-1" cx="30.59" cy="28.31" r="1.64"/><circle class="cls-1" cx="3.53" cy="32.56" r="3.36"/><circle class="cls-1" cx="4.11" cy="2.64" r="2.46"/><circle class="cls-1" cx="6.81" cy="14.78" r="2.21"/><rect class="cls-1" x="8.48" y="1.15" width="1.47" height="19.05" transform="translate(-4.29 6.62) rotate(-32.47)"/><rect class="cls-1" x="13.8" y="11.37" width="13.87" height="1.47" transform="translate(1.29 26.18) rotate(-66.17)"/><rect class="cls-1" x="19.61" y="17.65" width="10.91" height="1.47" transform="translate(-5.41 12.27) rotate(-24.91)"/><rect class="cls-1" x="24.43" y="20.23" width="1.47" height="11.72" transform="translate(-8.5 39.53) rotate(-67.79)"/><rect class="cls-1" x="2.2" y="27.99" width="12.33" height="1.47" transform="translate(-16.05 11.42) rotate(-38.43)"/><rect class="cls-1" x="9.27" y="13.21" width="1.47" height="8.05" transform="translate(-9.75 14.64) rotate(-52.39)"/></svg>