<svg id="Layer_1" data-name="Layer 1" xmlns="http://www.w3.org/2000/svg" viewBox="0 0 35.81 46.4"><defs><style>.cls-1,.cls-2{fill:none;stroke:#273b72;}.cls-1{stroke-miterlimit:10;stroke-width:1.77px;}.cls-2{stroke-linecap:round;stroke-linejoin:round;stroke-width:1.77px;}</style></defs><title>231</title><rect class="cls-1" x="9.97" y="28.49" width="16.55" height="16.55" rx="1.5"/><path class="cls-1" d="M11.64,40.59l4.45-3.07a.76.76,0,0,1,1,.1l.74.79a.74.74,0,0,0,1,.09L24,34.4"/><polyline class="cls-1" points="20.11 34.4 23.96 34.4 23.96 38.39"/><path class="cls-1" d="M1.24,18a16.66,16.66,0,0,1,33.32,0c0-2.68-2.48-4.85-5.55-4.85S23.46,15.33,23.46,18h0c0-2.68-2.49-4.85-5.56-4.85S12.35,15.33,12.35,18c0-2.68-2.49-4.85-5.55-4.85S1.24,15.33,1.24,18Z"/><polyline class="cls-2" points="12.35 18.01 18.25 28.49 1.24 18.01"/><polyline class="cls-2" points="34.56 18.01 18.25 28.49 23.45 18.01"/></svg>