<svg id="Layer_1" data-name="Layer 1" xmlns="http://www.w3.org/2000/svg" viewBox="0 0 34 29.57"><defs><style>.cls-1{fill:#273372;}</style></defs><title>241</title><path class="cls-1" d="M17.49,16.08a2.59,2.59,0,0,0-1.12-.71c-.64-.22-1.27-.46-1.91-.69a4,4,0,0,1-.41-.18c.1-.13.16-.23.24-.32a3,3,0,0,0,.89-1.93c.05-.91,0-1.83,0-2.74a2.51,2.51,0,0,0-1.9-2.42,5.19,5.19,0,0,0-2.82,0,2.4,2.4,0,0,0-1.83,2,11.14,11.14,0,0,0-.12,1.53c0,.4,0,.8,0,1.2a3.22,3.22,0,0,0,.9,2.34,4,4,0,0,1,.25.33,2.79,2.79,0,0,1-.35.15c-.65.24-1.29.48-1.94.7A2.51,2.51,0,0,0,6.34,16a9.54,9.54,0,0,0-.84,1,.67.67,0,0,0,.11,1.05A8.7,8.7,0,0,0,14,20.46a8.54,8.54,0,0,0,4.15-2.37.65.65,0,0,0,.12-1A10.11,10.11,0,0,0,17.49,16.08ZM6.66,17.44a2.43,2.43,0,0,1,1.17-1l2.43-.87c.45-.16.53-.28.54-.75v-.17a1.37,1.37,0,0,0-.51-1.33,1.85,1.85,0,0,1-.59-1.49q0-.95,0-1.89a3.09,3.09,0,0,1,.09-.68,1.29,1.29,0,0,1,.94-1,3.92,3.92,0,0,1,2.3,0,1.32,1.32,0,0,1,1,1.14,4.22,4.22,0,0,1,.07.79c0,.68,0,1.37-.05,2.05a1.89,1.89,0,0,1-.74,1.32.73.73,0,0,0-.31.68c0,.21,0,.43,0,.65,0,.42.09.55.48.69l2.58.93a2.1,2.1,0,0,1,1.06,1A7.51,7.51,0,0,1,6.66,17.44Z"/><path class="cls-1" d="M20.63,10.74A8.24,8.24,0,0,0,18.79,6.4a8.63,8.63,0,0,0-7-3.34A8.51,8.51,0,0,0,7.44,4.25,8.78,8.78,0,0,0,3.22,13.6a12.72,12.72,0,0,0,.7,2.08.56.56,0,0,0,.77.31A.59.59,0,0,0,5,15.23c0-.09-.07-.17-.1-.25a7.37,7.37,0,0,1-.25-5.59A7.67,7.67,0,0,1,19.26,14c-.12.43-.31.84-.47,1.25a.56.56,0,0,0,.15.66.48.48,0,0,0,.6.09,1.13,1.13,0,0,0,.39-.45,8.73,8.73,0,0,0,.8-3.63C20.7,11.51,20.68,11.12,20.63,10.74Z"/><path class="cls-1" d="M33.63,25.85a3,3,0,0,0-1.16-2l-7.76-5.94L23.87,19,22,17.6A11.62,11.62,0,0,0,10.2.42a11.54,11.54,0,0,0-7.73,4.7,11.79,11.79,0,0,0,2.61,16.2A11.61,11.61,0,0,0,20,20.2l1.85,1.41L21,22.71l7.77,5.94a3,3,0,0,0,1.83.63A3,3,0,0,0,33,28.09,3,3,0,0,0,33.63,25.85Zm-1.58,1.48a1.78,1.78,0,0,1-2.5.33l-6.77-5.18.84-1.1-3.73-2.85-.38.41a10.37,10.37,0,0,1-13.7,1.37A10.52,10.52,0,0,1,3.48,5.85,10.37,10.37,0,0,1,20.67,17.42l-.3.48,3.73,2.86.84-1.1,6.78,5.18A1.83,1.83,0,0,1,32.4,26,1.75,1.75,0,0,1,32.05,27.33Z"/></svg>