<svg id="Layer_1" data-name="Layer 1" xmlns="http://www.w3.org/2000/svg" viewBox="0 0 35.41 31.42"><defs><style>.cls-1{fill:none;stroke:#273372;stroke-miterlimit:10;stroke-width:1.38px;}</style></defs><title>251</title><path class="cls-1" d="M20.69,4h9.16a1.57,1.57,0,0,1,1.57,1.57v8.65"/><path class="cls-1" d="M31.42,21.2v7.64a1.57,1.57,0,0,1-1.57,1.57H2.62A1.57,1.57,0,0,1,1,28.84V5.53A1.58,1.58,0,0,1,2.62,4H8.7"/><line class="cls-1" x1="22.04" y1="7.31" x2="31.42" y2="7.31"/><line class="cls-1" x1="1.45" y1="7.31" x2="7.35" y2="7.31"/><rect class="cls-1" x="25.52" y="14.18" width="8.84" height="7.02" rx="1.29"/><line class="cls-1" x1="1.45" y1="26.65" x2="31.42" y2="26.65"/><path class="cls-1" d="M14.63,1A7.42,7.42,0,0,1,22,8.42c0,4.74-4.56,9.09-7.41,11.91-2.85-2.82-7.42-7.17-7.42-11.91A7.42,7.42,0,0,1,14.63,1"/><circle class="cls-1" cx="14.63" cy="7.4" r="2.81"/></svg>