<svg id="Layer_1" data-name="Layer 1" xmlns="http://www.w3.org/2000/svg" viewBox="0 0 36.05 37.67"><defs><style>.cls-1{fill:none;stroke:#273372;stroke-miterlimit:10;stroke-width:2.01px;}.cls-2{fill:#273372;}</style></defs><title>261</title><rect class="cls-1" x="17.2" y="2.93" width="16.43" height="10.93" rx="5.46" transform="translate(-0.32 15.73) rotate(-34.19)"/><rect class="cls-1" x="0.89" y="14.01" width="16.43" height="10.93" rx="5.46" transform="translate(-9.37 8.48) rotate(-34.19)"/><path class="cls-2" d="M23.79,10.83l-11.4,7.89a1.17,1.17,0,0,1-1.62-.31h0a1.17,1.17,0,0,1,.31-1.62L22.49,8.9a1.16,1.16,0,0,1,1.61.31h0A1.16,1.16,0,0,1,23.79,10.83Z"/><path class="cls-1" d="M26.21,7.09A10.87,10.87,0,1,0,22,23.23l2.63,3.67-.48,1.53,4.67,6.51a3.22,3.22,0,0,0,4.5.74h0a3.21,3.21,0,0,0,.74-4.49L29.65,25l-1.85-.38L25.17,21A10.86,10.86,0,0,0,26.21,7.09Z"/></svg>