<svg id="Layer_1" data-name="Layer 1" xmlns="http://www.w3.org/2000/svg" viewBox="0 0 34 38.64"><defs><style>.cls-1{fill:#273372;}</style></defs><title>271</title><path class="cls-1" d="M33.64,10.32a1.42,1.42,0,0,0,0-.2.7.7,0,0,0-.09-.17,1.3,1.3,0,0,0-.1-.15l-.15-.14a.87.87,0,0,0-.1-.08L23.37,3.92V3.83l-.07,0-.18,0L17.47.52a1,1,0,0,0-1,0L.88,9.58l-.09.08L.64,9.8.54,10a.65.65,0,0,0-.08.17.73.73,0,0,0-.05.2s0,.08,0,.12l0,17.76a1,1,0,0,0,.5.86l15.69,9.06h0l.16.07a1,1,0,0,0,.33.07h0l.15,0,.1,0,0,0a.77.77,0,0,0,.19-.08h0l15.6-9.06a1,1,0,0,0,.49-.85l0-17.77S33.64,10.36,33.64,10.32Zm-4.05-.51L31.68,11v1.74c-1,.89-2.22.93-2.23-.74V10.86A3.3,3.3,0,0,1,29.59,9.81ZM22,5.62c0,2.89-3.59,5.11-3.61,2.22V6.69A3.93,3.93,0,0,1,19.52,4L22,5.44ZM2.36,14.51,3.19,14l0,5.32-.89.55Zm0,11,.95-.59,0,3.32-1-.57Zm7.28,6.37c.8-.41,1.55-.21,1.64.94ZM17,36.12l-1.77-1,1.44-.89V32.94l-1,.61-.06-6.69-2.46,1.51v1.37l1.12-.69,0,5.33-.16.1-1.58-.91c0-.1,0-.19,0-.28V32.14c0-2.84-2.27-2.59-4.08-.92L5.67,29.56v-.79L5,29.18,4.66,29l0-6.29-2.28,1.4V21.15l3.24-2V17.88l-1,.62-.06-6.7L2.36,13.13V11L17,2.52l1.61.94a6.43,6.43,0,0,0-1.53,4.06V8.67c0,4.3,5.18,1.53,6.14-2.55l5.42,3.13a5.73,5.73,0,0,0-.55,2.43v1.15c0,2.58,1.88,2.62,3.58,1.35v2.69a6.74,6.74,0,0,0-3.49,5.7v1.15c0,2.52,1.8,2.61,3.46,1.43v2.48ZM31.64,23.73c-1,.79-2.1.77-2.12-.84V21.75a3.8,3.8,0,0,1,2.14-3.42Z"/><path class="cls-1" d="M12.44,11.51V10.36c0-4.74-6.34-.88-6.3,3.88v1.14C6.18,20.14,12.48,16.26,12.44,11.51Zm-1.35-.32v1.15c0,2.89-3.59,5.11-3.61,2.22V13.41C7.45,10.53,11.06,8.34,11.09,11.19Z"/><polygon class="cls-1" points="14.16 12.6 13.09 13.27 13.1 14.54 16.51 12.44 16.5 11.16 15.51 11.78 15.45 5.08 12.99 6.6 13 7.97 14.12 7.28 14.16 12.6"/><path class="cls-1" d="M6.22,25.12v1.15c0,4.76,6.34.87,6.3-3.87V21.25C12.48,16.5,6.18,20.37,6.22,25.12Zm1.35.32V24.29c0-2.87,3.58-5.06,3.61-2.21v1.14C11.21,26.12,7.6,28.34,7.57,25.44Z"/><polygon class="cls-1" points="15.6 22.66 15.54 15.97 13.08 17.49 13.09 18.85 14.21 18.16 14.25 23.49 13.18 24.15 13.19 25.43 16.6 23.33 16.59 22.05 15.6 22.66"/><path class="cls-1" d="M23.46,15.68V14.53c0-4.74-6.34-.88-6.3,3.87v1.15C17.2,24.31,23.5,20.43,23.46,15.68Zm-1.35-.32v1.15c0,2.89-3.59,5.11-3.61,2.22V17.58C18.47,14.7,22.08,12.51,22.11,15.36Z"/><polygon class="cls-1" points="25.18 16.77 24.11 17.43 24.12 18.71 27.53 16.61 27.52 15.33 26.53 15.95 26.47 9.25 24.01 10.77 24.02 12.13 25.14 11.45 25.18 16.77"/><path class="cls-1" d="M17.24,29.29v1.15c0,4.76,6.34.87,6.3-3.87V25.42C23.5,20.67,17.2,24.53,17.24,29.29Zm1.36.32V28.46c0-2.87,3.58-5.06,3.61-2.22v1.15C22.23,30.28,18.62,32.5,18.6,29.61Z"/><polygon class="cls-1" points="26.62 26.83 26.56 20.14 24.1 21.65 24.11 23.02 25.23 22.33 25.27 27.66 24.2 28.32 24.21 29.59 27.62 27.5 27.61 26.22 26.62 26.83"/></svg>