<svg id="Layer_1" data-name="Layer 1" xmlns="http://www.w3.org/2000/svg" viewBox="0 0 34.97 26.77"><defs><style>.cls-1{fill:none;stroke:#273372;stroke-miterlimit:10;stroke-width:1.91px;}</style></defs><title>281</title><line class="cls-1" x1="22.69" y1="23.04" x2="18.43" y2="23.04"/><path class="cls-1" d="M13.4,23H11.54A1.38,1.38,0,0,1,10.19,22L7.53,10.78A1.26,1.26,0,0,1,8.76,9.23H32.4a1.27,1.27,0,0,1,1.23,1.55L31,22A1.39,1.39,0,0,1,29.62,23h-1.9"/><circle class="cls-1" cx="25.21" cy="23.04" r="2.52"/><circle class="cls-1" cx="15.92" cy="23.04" r="2.52"/><polyline class="cls-1" points="32.01 9.23 25.84 1.66 22.52 4.66 20.31 2.41 15.9 6.19 13.83 4.23 8.5 9.01"/><path class="cls-1" d="M10.19,22,6.37,5.4A3.56,3.56,0,0,0,2.9,2.63H.34"/></svg>