<svg id="Layer_1" data-name="Layer 1" xmlns="http://www.w3.org/2000/svg" viewBox="0 0 34 33.88"><defs><style>.cls-1{fill:#273372;}</style></defs><title>301</title><path class="cls-1" d="M31.75,19.32c-.35,0-.7,0-1.05,0s-.34.09-.36.35a14.06,14.06,0,0,1-2.83,7.82,14.28,14.28,0,0,1-10.18,5.93C11,34.11,6,31.76,2.67,26.38-.45,21.33-.4,16,2.59,10.91a14.33,14.33,0,0,1,9-6.77,21.36,21.36,0,0,1,2.77-.47c.29,0,.39-.13.38-.42,0-.66,0-1.32,0-2s.27-.94.94-.93A18.23,18.23,0,0,1,32.84,13.16a18.07,18.07,0,0,1,.82,5.22c0,.66-.27.94-.94.95h-1ZM14.68,5.14a13.5,13.5,0,1,0,8.2,24.73A13.06,13.06,0,0,0,28,23.55a12.5,12.5,0,0,0,.86-4.22H15.75c-.87,0-1.07-.2-1.07-1.05V5.14Zm1.51-3.27c0,.14,0,.26,0,.38,0,5,0,10.06,0,15.09,0,.43.14.5.53.5H32.12A16.63,16.63,0,0,0,16.19,1.87Z"/></svg>