<svg id="Layer_1" data-name="Layer 1" xmlns="http://www.w3.org/2000/svg" viewBox="0 0 35.4 23.75"><defs><style>.cls-1{fill:#273b72;}.cls-2,.cls-3{fill:none;stroke:#273b72;stroke-miterlimit:10;}.cls-2{stroke-width:1.39px;}.cls-3{stroke-width:0.87px;}</style></defs><title>31</title><rect class="cls-1" x="3.73" y="4.63" width="9.8" height="0.95"/><rect class="cls-1" x="3.73" y="8.71" width="9.8" height="0.95"/><rect class="cls-1" x="3.73" y="12.87" width="9.8" height="0.95"/><rect class="cls-1" x="3.73" y="17.03" width="9.8" height="0.95"/><rect class="cls-2" x="0.87" y="0.81" width="33.66" height="22.12" rx="1.92"/><rect class="cls-1" x="22.99" y="4.71" width="1.91" height="0.78"/><rect class="cls-1" x="25.51" y="4.71" width="6.85" height="0.78"/><rect class="cls-1" x="22.91" y="8.79" width="1.91" height="0.78"/><rect class="cls-1" x="25.42" y="8.79" width="6.85" height="0.78"/><rect class="cls-1" x="22.99" y="12.7" width="1.91" height="0.78"/><rect class="cls-1" x="25.51" y="12.7" width="6.85" height="0.78"/><rect class="cls-1" x="22.91" y="16.86" width="1.91" height="0.69"/><rect class="cls-1" x="25.42" y="16.86" width="6.85" height="0.69"/><path class="cls-1" d="M20.56,19.35a.53.53,0,0,1-.56.55H16.24a.51.51,0,0,1-.53-.55v0a.51.51,0,0,1,.53-.55H20a.53.53,0,0,1,.56.55Z"/><path class="cls-1" d="M20.48,14.54a.57.57,0,0,1-.56.59H16.16a.55.55,0,0,1-.54-.59v0a.56.56,0,0,1,.54-.6h3.76a.58.58,0,0,1,.56.6Z"/><path class="cls-1" d="M20.39,9.82a.51.51,0,0,1-.56.53H16.07a.5.5,0,0,1-.54-.53v0a.54.54,0,0,1,.54-.57h3.76a.55.55,0,0,1,.56.57Z"/><path class="cls-1" d="M20.3,5.11a.53.53,0,0,1-.55.56H16a.6.6,0,0,1-.63-.56v0A.59.59,0,0,1,16,4.54h3.76a.52.52,0,0,1,.55.54Z"/><line class="cls-3" x1="18.05" y1="0.46" x2="18.05" y2="22.93"/></svg>