<svg id="Layer_1" data-name="Layer 1" xmlns="http://www.w3.org/2000/svg" viewBox="0 0 34 31.89"><defs><style>.cls-1{fill:#273372;}</style></defs><title>311</title><path class="cls-1" d="M11.47,19.61c0-3.7,4.8-4.29,4.8-6.33a1.43,1.43,0,0,0-1.56-1.43,2.35,2.35,0,0,0-1.85,1.21l-1.39-.92a3.8,3.8,0,0,1,3.4-2.05,3.06,3.06,0,0,1,3.33,3c0,3.3-4.59,3.86-4.63,5.79h4.79v1.61h-6.8A7.77,7.77,0,0,1,11.47,19.61Zm6.44-2.88,4.42-6.47h2.21v6.07h1.33v1.55H24.54v2.64H22.7V17.88H17.91V16.73Zm4.79-.4V13.15a10.32,10.32,0,0,1,.07-1.07h0a6.63,6.63,0,0,1-.51.94L19.87,16.3v0Zm7,1.42-.3,1.08a11.9,11.9,0,0,1-14.17,8.48A11.7,11.7,0,0,1,6.51,14.2l1.79.5A.55.55,0,0,0,9,14L7,6.44a.55.55,0,0,0-.93-.26L.51,11.66a.56.56,0,0,0,.24.94l2,.54A15.65,15.65,0,0,0,14.14,31.08,15.85,15.85,0,0,0,33.22,19.84l.29-1a.57.57,0,0,0-.39-.69l-2.7-.75A.56.56,0,0,0,29.73,17.75ZM32.92,13l-2.83.37a.56.56,0,0,0-.49.62l.11.86a.57.57,0,0,0,.63.49L33.17,15a.56.56,0,0,0,.49-.63l-.12-.86A.56.56,0,0,0,32.92,13ZM30.74,7.67l-2.49,1.4a.57.57,0,0,0-.21.77l.42.75a.56.56,0,0,0,.77.21l2.48-1.4a.56.56,0,0,0,.22-.76l-.43-.75A.56.56,0,0,0,30.74,7.67Zm-4-4.14L24.94,5.76a.56.56,0,0,0,.08.79l.68.54A.57.57,0,0,0,26.49,7l1.78-2.23A.57.57,0,0,0,28.18,4l-.68-.54A.56.56,0,0,0,26.72,3.53ZM21.43,1.2l-.81,2.73a.56.56,0,0,0,.38.7l.83.25a.55.55,0,0,0,.69-.38l.82-2.73a.56.56,0,0,0-.38-.7L22.13.82A.56.56,0,0,0,21.43,1.2ZM15.66,1l.27,2.84a.57.57,0,0,0,.61.51l.86-.08a.56.56,0,0,0,.51-.61L17.64.83A.56.56,0,0,0,17,.32L16.17.4A.57.57,0,0,0,15.66,1ZM10.24,3l1.32,2.54a.56.56,0,0,0,.75.24l.77-.4a.56.56,0,0,0,.24-.76L12,2.09a.56.56,0,0,0-.76-.24l-.77.4A.56.56,0,0,0,10.24,3Z"/></svg>