<svg id="Layer_1" data-name="Layer 1" xmlns="http://www.w3.org/2000/svg" viewBox="0 0 34 30.69"><defs><style>.cls-1{fill:#273372;}.cls-2{fill:none;stroke:#273372;stroke-miterlimit:10;stroke-width:0.83px;}</style></defs><title>321</title><path class="cls-1" d="M26.39,24.47l-.49-1.91a11.35,11.35,0,0,1-10.15,4.32c-.23,0-.46-.08-.69-.12s-.47-.07-.7-.12a12.81,12.81,0,0,1-1.55-.52L12.54,26a12.5,12.5,0,0,1-1.36-.71L11,25.16a11.64,11.64,0,0,1-2.39-2.08,1.47,1.47,0,0,1-.1-.13,9.26,9.26,0,0,1-.94-1.29.56.56,0,0,1,0-.08,11.14,11.14,0,0,1-1.3-3v0a10.58,10.58,0,0,1-.31-1.68h0A11.53,11.53,0,0,1,5.93,14l1.73.48a.53.53,0,0,0,.66-.65L7.2,9.47,6.45,6.55a.54.54,0,0,0-.9-.26l-2,1.92L.16,11.57a.54.54,0,0,0,.23.9L2.27,13a15.47,15.47,0,0,0-.19,3.83h0c0,.37.08.73.13,1.09,0,0,0,.08,0,.12,0,.36.12.71.2,1.06a.19.19,0,0,1,0,.08,15.15,15.15,0,0,0,1.6,4l.14.25c.15.24.3.48.46.71s.16.24.25.35.3.42.47.62.22.27.33.4.31.36.48.54.32.32.48.47.43.41.66.61.46.39.7.57l.42.3.66.44.46.27q.34.21.72.39l.46.23.83.35.41.16c.42.15.85.29,1.3.41.23.06.46.1.7.14l.57.12c.4.06.8.11,1.2.14v0a15.1,15.1,0,0,0,12.36-4.87,1.78,1.78,0,0,1-.51-.06A1.74,1.74,0,0,1,26.39,24.47Z"/><path class="cls-1" d="M33.61,18.24l-1.88-.52A15.07,15.07,0,0,0,20.72.46c-.23-.06-.46-.1-.7-.15l-.7-.14L18.83.11,17.94,0l-.61,0h-.76q-.33,0-.66,0l-.66.07-.72.1L14,.32c-.26.06-.53.11-.79.18L13,.58a14.39,14.39,0,0,0-2.11.77h0A15.52,15.52,0,0,0,5.89,5,1.78,1.78,0,0,1,6.4,5,1.72,1.72,0,0,1,7.61,6.25l.49,1.9a11.48,11.48,0,0,1,2.74-2.51,9.46,9.46,0,0,1,1-.57h0a9.26,9.26,0,0,1,1-.47l0,0c.32-.13.66-.24,1-.35l.09,0a8.36,8.36,0,0,1,1-.23l.16,0c.3,0,.61-.09.91-.12l.23,0c.29,0,.58,0,.87,0a2.61,2.61,0,0,1,.28,0,8.54,8.54,0,0,1,.86.07l.29,0c.15,0,.3.06.45.09s.47.07.7.13A11.28,11.28,0,0,1,28.07,16.7l-1.73-.48a.53.53,0,0,0-.66.65l1.12,4.38.75,2.92a.54.54,0,0,0,.9.25l2-1.91,3.43-3.36A.55.55,0,0,0,33.61,18.24Z"/><path class="cls-2" d="M17.25,8.18a6.85,6.85,0,0,1,7,7.13,6.9,6.9,0,0,1-7,7.2"/><path class="cls-2" d="M16.08,8.06c3.49,0,6.31,3.26,6.31,7.29s-2.82,7.29-6.31,7.29"/><path class="cls-2" d="M16.08,22.64c-3.49,0-6.31-3.27-6.31-7.29s2.82-7.29,6.31-7.29"/><polyline class="cls-2" points="14.75 12.67 16.79 12.67 19.23 16 22.37 16"/><polyline class="cls-2" points="13.72 15.54 15.9 15.54 18.34 18.88 21.48 18.88"/><ellipse class="cls-2" cx="13.01" cy="15.4" rx="0.84" ry="0.92"/><ellipse class="cls-2" cx="13.92" cy="12.67" rx="0.84" ry="0.92"/></svg>