<svg id="Layer_1" data-name="Layer 1" xmlns="http://www.w3.org/2000/svg" viewBox="0 0 34 35.32"><defs><style>.cls-1{fill:#273372;}</style></defs><title>331</title><path class="cls-1" d="M25.32,7.12V29.37a1,1,0,0,1-1,1H.34V35h24a5.61,5.61,0,0,0,5.6-5.6V7.12Z"/><path class="cls-1" d="M25,9.44H22.3a1.17,1.17,0,0,1-.93-1.86L26.46.82a1.16,1.16,0,0,1,1.85,0l5.11,6.77a1.16,1.16,0,0,1-.92,1.86H25Z"/><path class="cls-1" d="M2.14,17.07a10.09,10.09,0,0,0,20.18,0,1.53,1.53,0,1,0-3.05,0,7,7,0,1,1-7-7,1.53,1.53,0,0,0,0-3A10.1,10.1,0,0,0,2.14,17.07Z"/><path class="cls-1" d="M12.6,15.1a2.31,2.31,0,0,0-.37,0,2,2,0,1,0,2,2,1.75,1.75,0,0,0,0-.4l4.63-5.47a.56.56,0,0,0,0-.74.56.56,0,0,0-.79-.05Z"/></svg>