<svg id="Layer_1" data-name="Layer 1" xmlns="http://www.w3.org/2000/svg" viewBox="0 0 34.93 33.7"><defs><style>.cls-1,.cls-2,.cls-3,.cls-4{fill:none;stroke:#273372;stroke-miterlimit:10;}.cls-1{stroke-width:0.91px;}.cls-2{stroke-width:0.71px;}.cls-3{stroke-width:0.41px;}.cls-4{stroke-width:1.01px;}.cls-5{fill:#273372;}</style></defs><title>351</title><circle class="cls-1" cx="9.59" cy="17.12" r="8.79"/><circle class="cls-2" cx="9.59" cy="17.12" r="7.29" transform="translate(-9.28 22.53) rotate(-76.72)"/><path class="cls-1" d="M19.27,7.49A6.7,6.7,0,1,1,26,14.18,6.7,6.7,0,0,1,19.27,7.49Z"/><path class="cls-3" d="M20.32,7.49A5.65,5.65,0,1,1,26,13.13,5.64,5.64,0,0,1,20.32,7.49Z"/><path class="cls-1" d="M21.89,26.79A6.12,6.12,0,1,1,28,32.91,6.11,6.11,0,0,1,21.89,26.79Z"/><path class="cls-3" d="M23,26.79a5,5,0,1,1,5,5A5,5,0,0,1,23,26.79Z"/><line class="cls-4" x1="14.1" y1="9.58" x2="19.27" y2="7.84"/><line class="cls-4" x1="26.78" y1="14.18" x2="27.59" y2="20.69"/><line class="cls-4" x1="21.92" y1="27.32" x2="15.36" y2="23.75"/><path class="cls-5" d="M7.26,13.62h2.6a6.56,6.56,0,0,1,1.15.07,1.75,1.75,0,0,1,.68.26,1.63,1.63,0,0,1,.49.55,1.39,1.39,0,0,1,.2.76,1.52,1.52,0,0,1-.24.83,1.48,1.48,0,0,1-.67.57,1.75,1.75,0,0,1,.91.59,1.54,1.54,0,0,1,.32,1,2,2,0,0,1-.2.86,1.7,1.7,0,0,1-.57.67,1.81,1.81,0,0,1-.88.31c-.21,0-.74,0-1.58.05H7.26ZM8.57,14.7v1.5h.86c.51,0,.83,0,1,0a.84.84,0,0,0,.53-.23.79.79,0,0,0,0-1,.78.78,0,0,0-.49-.23c-.13,0-.51,0-1.12,0Zm0,2.58V19H9.79a5.54,5.54,0,0,0,.9,0,.78.78,0,0,0,.66-.81.92.92,0,0,0-.14-.5.88.88,0,0,0-.41-.29,4.5,4.5,0,0,0-1.17-.1Z"/><path class="cls-5" d="M27.37,5.7H25.2V6.87h2a.45.45,0,0,1,.33.1.33.33,0,0,1,.11.26.35.35,0,0,1-.11.26.45.45,0,0,1-.33.11h-2V9h2.25a.5.5,0,0,1,.34.11.35.35,0,0,1,.12.28.34.34,0,0,1-.12.27.5.5,0,0,1-.34.11H24.82a.51.51,0,0,1-.59-.59V5.54a.83.83,0,0,1,.06-.34.41.41,0,0,1,.2-.19A.78.78,0,0,1,24.82,5h2.55a.56.56,0,0,1,.35.1.37.37,0,0,1,.11.27.35.35,0,0,1-.11.27A.51.51,0,0,1,27.37,5.7Z"/><path class="cls-5" d="M30,27.68a1.2,1.2,0,0,1-.1.46A1.74,1.74,0,0,1,29,29a2,2,0,0,1-.79.15,3,3,0,0,1-.63-.07,1.65,1.65,0,0,1-.51-.2,1.88,1.88,0,0,1-.43-.37,2.12,2.12,0,0,1-.29-.46,2.45,2.45,0,0,1-.18-.54,3,3,0,0,1-.06-.61,2.73,2.73,0,0,1,.15-.94,2,2,0,0,1,.44-.72,2.08,2.08,0,0,1,.67-.45,2.16,2.16,0,0,1,.81-.15,2,2,0,0,1,.94.21,1.78,1.78,0,0,1,.64.52,1.11,1.11,0,0,1,.22.59.4.4,0,0,1-.11.27.36.36,0,0,1-.26.11.32.32,0,0,1-.25-.08.94.94,0,0,1-.19-.27,1.36,1.36,0,0,0-.41-.49.94.94,0,0,0-.57-.16,1.07,1.07,0,0,0-.87.41A1.93,1.93,0,0,0,27,26.92a2.23,2.23,0,0,0,.14.84,1.06,1.06,0,0,0,.41.51,1.24,1.24,0,0,0,1.25,0,1.17,1.17,0,0,0,.4-.56.92.92,0,0,1,.14-.28.31.31,0,0,1,.27-.11.4.4,0,0,1,.27.11A.39.39,0,0,1,30,27.68Z"/></svg>