<svg id="Layer_1" data-name="Layer 1" xmlns="http://www.w3.org/2000/svg" viewBox="0 0 34 33.97"><defs><style>.cls-1{fill:#273b72;}</style></defs><title>41</title><path class="cls-1" d="M22.62,27.48c-.11-.14-.17-.24-.25-.33a3.3,3.3,0,0,1-.92-2.38c0-.41-.05-.82,0-1.23A11.58,11.58,0,0,1,21.53,22a2.43,2.43,0,0,1,1.87-2,5.06,5.06,0,0,1,2.86,0,2.53,2.53,0,0,1,1.93,2.46q.06,1.39,0,2.79a3.07,3.07,0,0,1-.91,2c-.08.09-.14.19-.25.33l.42.19c.65.23,1.29.47,1.94.69a2.71,2.71,0,0,1,1.14.72,8.16,8.16,0,0,1,.81,1.05.67.67,0,0,1-.11,1A8.73,8.73,0,0,1,27,33.54a8.83,8.83,0,0,1-8.55-2.4.68.68,0,0,1-.11-1.07A9.71,9.71,0,0,1,19.2,29a2.51,2.51,0,0,1,1.09-.67c.66-.22,1.32-.47,2-.7Zm7.5,3a2.1,2.1,0,0,0-1.08-1l-2.62-.95c-.4-.15-.49-.28-.49-.71,0-.22,0-.44,0-.66a.73.73,0,0,1,.31-.69A1.91,1.91,0,0,0,27,25.15c.05-.69.05-1.39.06-2.09a5.52,5.52,0,0,0-.07-.8,1.36,1.36,0,0,0-1-1.16,4.05,4.05,0,0,0-2.34,0,1.34,1.34,0,0,0-1,1,3.26,3.26,0,0,0-.09.69q0,1,0,1.92a2,2,0,0,0,.6,1.52,1.38,1.38,0,0,1,.52,1.35v.17c0,.48-.09.6-.55.77l-2.47.89a2.36,2.36,0,0,0-1.19,1A7.63,7.63,0,0,0,30.12,30.48Z"/><path class="cls-1" d="M11.35,11.81c.2.08.33.15.46.19.54.2,1.09.41,1.64.58a3.38,3.38,0,0,1,1.64,1.08,6.89,6.89,0,0,1,.6.82.64.64,0,0,1-.08.91,8.72,8.72,0,0,1-5.26,2.66A8.64,8.64,0,0,1,4.2,16.63a13.8,13.8,0,0,1-1.5-1.25.6.6,0,0,1-.11-.85,3.83,3.83,0,0,1,2.22-1.92C5.4,12.44,6,12.2,6.55,12c.12,0,.23-.1.39-.17a3.11,3.11,0,0,0-.2-.3A3.4,3.4,0,0,1,5.77,9c0-.51,0-1,0-1.53a6.4,6.4,0,0,1,.11-1.15A2.56,2.56,0,0,1,8,4.19a5.38,5.38,0,0,1,2.46,0,2.63,2.63,0,0,1,2.06,2.55c0,.9,0,1.79,0,2.69a3.08,3.08,0,0,1-.9,2C11.54,11.56,11.47,11.66,11.35,11.81Zm-7.52,3a7.64,7.64,0,0,0,10.64,0,2.48,2.48,0,0,0-1.2-1c-.85-.29-1.69-.6-2.53-.91a.59.59,0,0,1-.48-.67c0-.2,0-.4,0-.59a.88.88,0,0,1,.36-.82,1.88,1.88,0,0,0,.72-1.35,21.71,21.71,0,0,0,0-2.55,1.43,1.43,0,0,0-1.27-1.53,4.05,4.05,0,0,0-1.8,0,1.39,1.39,0,0,0-1.17.88,3.64,3.64,0,0,0-.17.92c0,.64,0,1.29,0,1.93a2,2,0,0,0,.59,1.52c.63.56.51.51.53,1.41v.14c0,.46-.09.59-.53.75-.81.29-1.61.6-2.43.86A2.6,2.6,0,0,0,3.83,14.78Z"/><path class="cls-1" d="M33.83,24.83A8.68,8.68,0,0,1,33,28.52a1.12,1.12,0,0,1-.39.47.49.49,0,0,1-.61-.1.57.57,0,0,1-.15-.67c.16-.42.35-.84.47-1.27a7.8,7.8,0,0,0-14.88-4.67A7.55,7.55,0,0,0,17.7,28c0,.09.08.17.11.26a.6.6,0,0,1-.29.77.56.56,0,0,1-.79-.31A15,15,0,0,1,16,26.57a8.94,8.94,0,0,1,4.29-9.52,8.69,8.69,0,0,1,4.4-1.21,8.8,8.8,0,0,1,7.15,3.4,8.42,8.42,0,0,1,1.87,4.41C33.78,24,33.8,24.44,33.83,24.83Z"/><path class="cls-1" d="M9.07.17A9,9,0,0,1,18,7.55a9.12,9.12,0,0,1-.65,5.33c-.13.28-.29.51-.65.49a.58.58,0,0,1-.53-.77c0-.12.1-.23.15-.35A7.51,7.51,0,0,0,17,9.09,7.8,7.8,0,0,0,1.52,7.56,7.67,7.67,0,0,0,2,12.24c0,.1.09.19.13.29a.6.6,0,0,1-.31.8.57.57,0,0,1-.76-.3A10.8,10.8,0,0,1,.52,11.6,9,9,0,0,1,5.82.8,8.35,8.35,0,0,1,9.07.17Z"/><path class="cls-1" d="M28.1,12.92a12.48,12.48,0,0,0-.28-4.4,8.25,8.25,0,0,0-6.5-5.91,14.32,14.32,0,0,0-3.14-.16.57.57,0,0,1-.65-.6.52.52,0,0,1,.52-.55,13.22,13.22,0,0,1,4.6.42,9.44,9.44,0,0,1,6.53,7.4,17.87,17.87,0,0,1,.15,3.27V13l1.29-1.39L32,10.12a.93.93,0,0,1,.27-.22A.57.57,0,0,1,33,10a.62.62,0,0,1,.05.71,2.52,2.52,0,0,1-.3.35l-3.45,3.71c-.4.42-.68.41-1.08,0l-3.33-3.59c-.11-.12-.22-.24-.32-.37a.59.59,0,0,1,0-.84.57.57,0,0,1,.82,0c.5.51,1,1,1.46,1.55Z"/><path class="cls-1" d="M4.66,21l-.32.33C3.56,22.16,2.79,23,2,23.83c0,.05-.1.11-.15.15A.58.58,0,0,1,1,24a.57.57,0,0,1,0-.79c.32-.37.66-.73,1-1.08l2.76-3a.57.57,0,0,1,1,0Q7.51,21,9.27,23a2.85,2.85,0,0,1,.23.26.59.59,0,0,1-.09.79.58.58,0,0,1-.77,0c-.07-.06-.13-.13-.2-.2-.8-.86-1.6-1.72-2.39-2.59A.88.88,0,0,1,5.93,21l-.11.06v.86a11.54,11.54,0,0,0,.27,3.26,8.24,8.24,0,0,0,6.54,6.17,11.8,11.8,0,0,0,2.79.17h.52a.55.55,0,0,1,.51.56.54.54,0,0,1-.52.59,10.88,10.88,0,0,1-6.78-1.43,9.52,9.52,0,0,1-4.36-6.43,23,23,0,0,1-.13-3.42C4.65,21.29,4.66,21.18,4.66,21Z"/></svg>