<svg id="Layer_1" data-name="Layer 1" xmlns="http://www.w3.org/2000/svg" viewBox="0 0 34 32.77"><defs><style>.cls-1{fill:#273b72;}</style></defs><title>51</title><path class="cls-1" d="M12.94,17.39a.54.54,0,0,1-.22-.05l-12-5.15a.55.55,0,0,1-.34-.49.56.56,0,0,1,.3-.52L20.8.39a.58.58,0,0,1,.48,0l12,5.15a.57.57,0,0,1,0,1L13.2,17.32A.48.48,0,0,1,12.94,17.39ZM2.2,11.62,12.91,16.2,31.8,6.1,21.09,1.52Z"/><path class="cls-1" d="M23.07,9.76a.48.48,0,0,1-.23-.91L26.37,7a.8.8,0,0,1-.13-.42A.91.91,0,0,1,26.36,6L22,4.16a3.84,3.84,0,0,1-2.41.13l-4,2.12a.48.48,0,1,1-.46-.85L19.3,3.34a.48.48,0,0,1,.42,0,2.73,2.73,0,0,0,2-.12.51.51,0,0,1,.42,0l5.26,2.26a.47.47,0,0,1,.29.42.5.5,0,0,1-.25.45.52.52,0,0,0-.24.18.5.5,0,0,0,.19.12.49.49,0,0,1,0,.87L23.29,9.7A.46.46,0,0,1,23.07,9.76Z"/><path class="cls-1" d="M12.19,14.41a.65.65,0,0,1-.19,0L6.74,12.12a.5.5,0,0,1-.29-.43.46.46,0,0,1,.26-.44A.79.79,0,0,0,7,11.06a.81.81,0,0,0-.2-.12.48.48,0,0,1-.29-.42.48.48,0,0,1,.26-.45l4.16-2.23a.5.5,0,0,1,.66.2.48.48,0,0,1-.2.65L7.8,10.59a.9.9,0,0,1,.13.43,1,1,0,0,1-.13.5l4.38,1.87a3.84,3.84,0,0,1,2.41-.13l4-2.13a.5.5,0,0,1,.66.2A.49.49,0,0,1,19,12l-4.17,2.23a.48.48,0,0,1-.42,0,2.73,2.73,0,0,0-2,.12A.46.46,0,0,1,12.19,14.41Z"/><path class="cls-1" d="M16.88,8.51c-1,.25-1.24.25-1.48.15s-.3-.28.15-.52a3.74,3.74,0,0,1,1.07-.36.3.3,0,0,0,.16-.07s0-.07,0-.1l-.3-.31a.39.39,0,0,0-.3,0A4.91,4.91,0,0,0,15,7.61l-.75-.32a.47.47,0,0,0-.35,0l-.45.25c-.1.05-.09.12,0,.16l.79.34c-.54.45-.44.89.21,1.17a4.51,4.51,0,0,0,2.78-.1c.89-.24,1.21-.18,1.43-.09s.27.38-.15.61a4.14,4.14,0,0,1-1.26.4.34.34,0,0,0-.17.07s0,.08,0,.11l.32.31a.34.34,0,0,0,.26.05,5.3,5.3,0,0,0,1.4-.41l.59.25a.56.56,0,0,0,.38,0l.46-.26c.1-.05.1-.12,0-.17l-.64-.27c.53-.45.45-.93-.23-1.22A4.12,4.12,0,0,0,16.88,8.51Z"/><path class="cls-1" d="M12.94,19.88a.54.54,0,0,1-.22-.05l-12-5.15a.56.56,0,1,1,.45-1l11.78,5L32.83,8a.56.56,0,0,1,.76.24.55.55,0,0,1-.23.76L13.2,19.81A.48.48,0,0,1,12.94,19.88Z"/><path class="cls-1" d="M12.94,22.37a.54.54,0,0,1-.22-.05l-12-5.15a.56.56,0,1,1,.45-1l11.78,5L32.83,10.52a.56.56,0,0,1,.76.24.55.55,0,0,1-.23.76L13.2,22.3A.48.48,0,0,1,12.94,22.37Z"/><path class="cls-1" d="M12.94,24.86a.54.54,0,0,1-.22-.05l-12-5.15a.56.56,0,0,1,.45-1l11.78,5L17,21.48a.56.56,0,1,1,.53,1L13.2,24.79A.48.48,0,0,1,12.94,24.86Z"/><path class="cls-1" d="M28.62,16.47a.56.56,0,0,1-.27-1.06L32.83,13a.57.57,0,0,1,.76.23.56.56,0,0,1-.23.77L28.89,16.4A.54.54,0,0,1,28.62,16.47Z"/><path class="cls-1" d="M12.94,27.35a.54.54,0,0,1-.22-.05l-12-5.15a.56.56,0,0,1-.29-.74.56.56,0,0,1,.74-.3l11.78,5.05,3.42-1.83a.56.56,0,0,1,.76.23.55.55,0,0,1-.23.76l-3.66,2A.59.59,0,0,1,12.94,27.35Z"/><path class="cls-1" d="M31.15,17.61a.57.57,0,0,1-.5-.3.56.56,0,0,1,.23-.76l1.95-1.05a.57.57,0,0,1,.76.23.56.56,0,0,1-.23.77l-1.95,1A.48.48,0,0,1,31.15,17.61Z"/><path class="cls-1" d="M12.94,19.88a.54.54,0,0,1-.22-.05l-12-5.15a.56.56,0,1,1,.45-1l11.78,5L32.83,8a.56.56,0,0,1,.76.24.55.55,0,0,1-.23.76L13.2,19.81A.48.48,0,0,1,12.94,19.88Z"/><path class="cls-1" d="M24.4,28.14A.59.59,0,0,1,24,28l-1.72-1.72a.61.61,0,0,1,0-.85.6.6,0,0,1,.86,0l1.29,1.29L29,22.08a.6.6,0,0,1,.86,0,.61.61,0,0,1,0,.85l-5,5A.57.57,0,0,1,24.4,28.14Z"/><path class="cls-1" d="M26.06,32.44A7.42,7.42,0,1,1,33.48,25,7.42,7.42,0,0,1,26.06,32.44Zm0-13.63A6.22,6.22,0,1,0,32.27,25,6.22,6.22,0,0,0,26.06,18.81Z"/></svg>