<svg id="Layer_1" data-name="Layer 1" xmlns="http://www.w3.org/2000/svg" viewBox="0 0 35.94 36.22"><defs><style>.cls-1{fill:none;stroke:#273372;stroke-miterlimit:10;stroke-width:1.91px;}</style></defs><title>61</title><path class="cls-1" d="M18.54,1.6C27.67,1.6,34.63,8.39,34.63,18s-7,16.59-16.09,16.59"/><path class="cls-1" d="M15.86,1.31c8,0,14.54,7.52,14.54,16.8S23.89,34.9,15.86,34.9"/><path class="cls-1" d="M15.86,34.9c-8,0-14.55-7.52-14.55-16.79S7.82,1.31,15.86,1.31"/><polyline class="cls-1" points="12.8 11.93 17.48 11.93 23.11 19.61 30.34 19.61"/><polyline class="cls-1" points="10.43 18.56 15.44 18.56 21.06 26.24 28.29 26.24"/><ellipse class="cls-1" cx="8.78" cy="18.23" rx="1.93" ry="2.12"/><ellipse class="cls-1" cx="10.87" cy="11.93" rx="1.93" ry="2.12"/></svg>