<svg id="Layer_1" data-name="Layer 1" xmlns="http://www.w3.org/2000/svg" viewBox="0 0 34 37.52"><defs><style>.cls-1{fill:#273372;}</style></defs><title>71</title><path class="cls-1" d="M13.27,6.54a.81.81,0,0,0,.79-1,.8.8,0,1,0-.79,1Z"/><path class="cls-1" d="M28.6,8.57c0-2.76-5.1-4.21-10.14-4.21a25.53,25.53,0,0,0-2.65.14.8.8,0,0,0-.72.88A.81.81,0,0,0,16,6.1a21.3,21.3,0,0,1,8.81.82C26.41,7.51,27,8.18,27,8.57s-.58,1.06-2.21,1.65a21.48,21.48,0,0,1-12.65,0C10.5,9.63,9.92,9,9.92,8.57s.25-.59.7-.91A.8.8,0,1,0,9.7,6.35,2.72,2.72,0,0,0,8.32,8.57C8.32,14.16,28.6,14.18,28.6,8.57Z"/><path class="cls-1" d="M33.56,23.17A.81.81,0,0,0,32,23.5c.82,3.91-5.88,7.22-13.52,7.22a21.76,21.76,0,0,1-10.23-2.3c9.79,2.85,22.51-.71,22.51-7.2V18.31a6.16,6.16,0,0,0,2.92-4.88V8.57c0-7.45-16.39-10.75-25.75-5.94-3,1.54-4.65,3.65-4.65,5.94v2.9C1.35,12.88.34,14.55.34,16.35v4.87A6.17,6.17,0,0,0,3.26,26.1c0,2.58-.13,3.62.41,4.85.08.17.17.35.27.53h0A6.84,6.84,0,0,0,5,32.92h0A11.55,11.55,0,0,0,8.3,35.13a.43.43,0,0,1,0,0,18.31,18.31,0,0,0,2.21.85l0,0a20.59,20.59,0,0,0,2.12.56c5,1,11.83.81,16.42-1.61l-.12,0a13.07,13.07,0,0,0,1.69-1l.12-.08.36-.29a8.46,8.46,0,0,0,2.23-2.85A4.81,4.81,0,0,0,33.66,29C33.66,23.65,33.69,23.81,33.56,23.17ZM18.46,2c7.37,0,13.59,3,13.59,6.59s-6.22,6.59-13.59,6.59-13.6-3-13.6-6.59S11.09,2,18.46,2ZM4.86,12.3c5.55,6,21.67,5.93,27.19,0v1.13c0,2.36-2.79,4-2.56,3.8C27,18.91,22.94,20,18.46,20c-7.37,0-13.6-3-13.6-6.59Zm-1.6,1.28c.2,6.43,12.85,9.87,22.5,7.06a21.72,21.72,0,0,1-10.22,2.3C6.11,22.94-1.16,18,3.26,13.58ZM2,21.22V20.08c5.64,6.07,21.79,5.83,27.18,0v1.14c0,3.57-6.22,6.59-13.59,6.59S2,24.79,2,21.22ZM32.05,29c0,3.57-6.22,6.59-13.59,6.59-5.88,0-11-1.92-12.87-4.51A.44.44,0,0,0,5.51,31a4.55,4.55,0,0,1-.65-3.11c5.48,5.92,21.65,6,27.19,0Z"/></svg>