<svg id="Layer_1" data-name="Layer 1" xmlns="http://www.w3.org/2000/svg" viewBox="0 0 34 34"><defs><style>.cls-1{fill:#273372;}</style></defs><title>81</title><path class="cls-1" d="M18.26,33.66H15.74l-.63-.14c-.53-.08-1.07-.13-1.59-.24a16.37,16.37,0,0,1-8.19-4.41,16.27,16.27,0,0,1-4.7-8.74c-.09-.48-.19-.95-.29-1.43V15.3A2,2,0,0,0,.47,15c.11-.62.17-1.26.32-1.88A16.63,16.63,0,0,1,13.88.63L15.3.34h3.4l.92.16a16.77,16.77,0,0,1,6.52,2.58,16.49,16.49,0,0,1,7.24,11c.09.55.19,1.09.28,1.64v2.52a2.75,2.75,0,0,0-.13.47c-.13.76-.18,1.52-.37,2.26A16.65,16.65,0,0,1,19.83,33.38C19.31,33.46,18.78,33.57,18.26,33.66ZM24.33,20.8c0-.72-.06-1.44-.16-2.14a3.09,3.09,0,0,0-3.08-2.75A3.1,3.1,0,0,0,17.68,19a33.66,33.66,0,0,0,0,3.48,3.16,3.16,0,0,0,3.45,3.21,3.09,3.09,0,0,0,3.05-2.76C24.26,22.22,24.28,21.51,24.33,20.8ZM13,23.83a5.17,5.17,0,0,1,.33-.51l1.21-1.4c.41-.49.83-1,1.21-1.49a3,3,0,0,0-.39-3.78A3.83,3.83,0,0,0,11,16.51a3,3,0,0,0-1.26,2.57h2.08a8.58,8.58,0,0,1,.32-.94.91.91,0,0,1,1.1-.52c.51.09.7.29.77.84a1.84,1.84,0,0,1-.23,1.28A9.26,9.26,0,0,1,13,20.82c-.8.9-1.59,1.82-2.45,2.67a2,2,0,0,0-.46,2h6.45a3.35,3.35,0,0,0-.06-1.69Zm2.69-9.56V12.08c.69-.05.7-.05,1,.39s.62,1,.94,1.5c.09.13.24.3.37.31a2.36,2.36,0,0,0,1.11-.06l-1.61-2.45c.22-.18.39-.29.53-.42a1.66,1.66,0,0,0-.64-2.84,9.35,9.35,0,0,0-2.89-.13,41.58,41.58,0,0,0,.07,5.89ZM11,11.7h1.9v-1H11.06V9.35h2V8.44a13.59,13.59,0,0,0-3.33,0,33.74,33.74,0,0,0,.08,5.83h1.6a14.51,14.51,0,0,0,1.73,0l-.08-1H11Zm13.2-3A3.33,3.33,0,0,0,21,8.65a2.7,2.7,0,0,0-.83.82,3.44,3.44,0,0,0-.47,2.33A2.72,2.72,0,0,0,24,14v-.9c-.46.09-.86.21-1.27.25a1.33,1.33,0,0,1-1.64-1.19,5.3,5.3,0,0,1,0-1.54,1.39,1.39,0,0,1,1.87-1.23c.28.07.55.18.86.28Z"/><path class="cls-1" d="M22,20.83c0,.59,0,1.18,0,1.77a2.53,2.53,0,0,1-.21.85.87.87,0,0,1-.89.53.82.82,0,0,1-.86-.57,5.36,5.36,0,0,1-.26-1.36c0-1.08,0-2.16.09-3.24.05-.77.46-1.21,1-1.22s1,.4,1.08,1.18,0,1.37,0,2.06Z"/><path class="cls-1" d="M15.65,11V9.47a1.46,1.46,0,0,1,1,0c.44.13.57.3.57.72a.62.62,0,0,1-.56.73A6.82,6.82,0,0,1,15.65,11Z"/></svg>