<svg id="Layer_1" data-name="Layer 1" xmlns="http://www.w3.org/2000/svg" viewBox="0 0 34 34"><defs><style>.cls-1{fill:#273372;}</style></defs><title>91</title><path class="cls-1" d="M33.66,17A16.66,16.66,0,1,1,17,.34,16.67,16.67,0,0,1,33.66,17ZM32,17A15,15,0,1,0,17,32,15,15,0,0,0,32,17Zm-13.59.68a3.91,3.91,0,0,0-1.27-.16h-1.3V19.7a2.19,2.19,0,0,0,0,.54.23.23,0,0,0,.11.14,1.37,1.37,0,0,0,.45,0h.74a4,4,0,0,0,1.06-.12,1.33,1.33,0,0,0,.71-.49,1.42,1.42,0,0,0,.3-.91,1.3,1.3,0,0,0-.21-.75A1.28,1.28,0,0,0,18.4,17.68ZM30,17A13,13,0,1,1,17,4,13,13,0,0,1,30,17Zm-8.14,2.17A2.38,2.38,0,0,0,21.53,18a2.24,2.24,0,0,0-.85-.85,4.69,4.69,0,0,0-1.09-.4,3.11,3.11,0,0,0,1.06-.56,2.47,2.47,0,0,0,.62-.79,2.2,2.2,0,0,0,.21-.95,2.24,2.24,0,0,0-.4-1.26,2.53,2.53,0,0,0-1.16-.87,3.57,3.57,0,0,0-.67-.19V10.31h-1.7V12h-1.1V10.31h-1.7V12h-2.6v1.39h.4a1.27,1.27,0,0,1,.53.07.43.43,0,0,1,.2.2,1.62,1.62,0,0,1,.06.57v5.61a1.59,1.59,0,0,1-.06.56.39.39,0,0,1-.2.2,1.47,1.47,0,0,1-.53.07h-.4V22h2.6v1.65h1.7V22h1.1v1.65h1.7v-1.8a3.36,3.36,0,0,0,.75-.21,3,3,0,0,0,1.37-1A2.49,2.49,0,0,0,21.85,19.17ZM18.21,15.9a1.29,1.29,0,0,0,.63-.43,1.21,1.21,0,0,0,.2-.68,1,1,0,0,0-.77-1.08,5.06,5.06,0,0,0-1.34-.12h-1.1v2.46h1.1A4.35,4.35,0,0,0,18.21,15.9Z"/></svg>